<svg width="16" height="16" viewBox="0 0 16 16" fill="none" xmlns="http://www.w3.org/2000/svg">
<g clip-path="url(#clip0_129_95)">
<rect x="0.75" y="0.75" width="14.5" height="14.5" rx="1.25" fill="white" stroke="black" stroke-width="1.5"/>
<path d="M6.44862 9.56337L6.4813 9.60121L6.4534 9.62531L6.42213 9.60577C6.29881 9.52871 5.54834 9.02731 5.01645 8.55192C4.59557 8.17574 4.26 7.93227 3.9874 7.83194C3.85207 7.78213 3.73546 7.76885 3.63318 7.78954C3.53155 7.81011 3.43905 7.86522 3.35315 7.96128L3.35315 7.96129L3.3526 7.96189C3.2483 8.07475 3.1837 8.16484 3.16276 8.27485C3.14177 8.38513 3.16311 8.52449 3.25382 8.73808C3.43598 9.16698 3.88306 9.86317 4.73813 11.1607C4.9749 11.5183 5.21502 11.8644 5.41106 12.1343C5.5091 12.2692 5.59592 12.3849 5.66568 12.4732C5.73633 12.5627 5.78686 12.6209 5.81337 12.6441C5.87615 12.6978 5.97437 12.7411 6.09507 12.7705C6.21502 12.7998 6.35301 12.8144 6.49131 12.8137C6.62963 12.813 6.76666 12.7969 6.88476 12.7657C7.00378 12.7343 7.09906 12.6888 7.15839 12.6324L7.15837 12.6324L7.15991 12.631C7.17492 12.6179 7.21038 12.5759 7.26676 12.5023C7.3217 12.4306 7.39346 12.333 7.47974 12.2129C7.65225 11.9727 7.882 11.6439 8.14969 11.2551C8.68503 10.4777 9.37158 9.46153 10.0544 8.43864C10.7372 7.41574 11.4161 6.38627 11.9362 5.58217C12.1963 5.18009 12.4165 4.83455 12.5777 4.57443C12.6582 4.44435 12.7239 4.33588 12.7722 4.2525C12.8214 4.16784 12.8508 4.11217 12.8611 4.08592L12.8614 4.08518C12.9374 3.90006 12.9635 3.80516 12.9413 3.71898C12.9302 3.67598 12.9059 3.6314 12.8619 3.57666C12.8175 3.52164 12.7553 3.45882 12.6707 3.37893L12.6703 3.3785C12.5491 3.26116 12.448 3.17659 12.3579 3.12231C12.2684 3.06836 12.1925 3.046 12.1204 3.04914C12.0482 3.05227 11.9733 3.08129 11.8863 3.14248C11.7992 3.20383 11.7029 3.29544 11.5883 3.4197C11.3835 3.6641 10.6638 4.52953 9.99852 5.36457C9.99852 5.36458 9.99851 5.36458 9.99851 5.36458L9.95941 5.33343L6.44862 9.56337Z" fill="#FF1111" stroke="black" stroke-width="0.1"/>
</g>
<defs>
<clipPath id="clip0_129_95">
<rect width="16" height="16" fill="white"/>
</clipPath>
</defs>
</svg>
