<svg width="16" height="16" viewBox="0 0 16 16" fill="none" xmlns="http://www.w3.org/2000/svg">
<g clip-path="url(#clip0_129_95)">
<rect x="0.75" y="0.75" width="14.5" height="14.5" rx="1.25" fill="#2196F3" stroke="black" stroke-width="1.5"/>
<path d="M11.9563 3.59273C11.7382 3.82546 10.9672 4.65455 10.2545 5.45455C7.01088 9.10546 6.5 9.5 6.5 9.5C6.36909 9.42727 5.56727 8.95091 5 8.5C4.09665 7.78195 3.53451 7.54909 3.14179 7.94182C2.69088 8.37818 2.79269 8.58182 4.62542 11.0545C5.13451 11.7382 5.65815 12.3782 5.78906 12.48C6.09451 12.7127 7.01088 12.7127 7.30179 12.4655C7.63633 12.2036 13.2072 4.74182 13.4109 4.27637C13.5709 3.92727 13.5563 3.85455 13.1927 3.54909C12.6691 3.09818 12.4509 3.11273 11.9563 3.59273Z" fill="#DC143C"/>
</g>
<defs>
<clipPath id="clip0_129_95">
<rect width="16" height="16" fill="white"/>
</clipPath>
</defs>
</svg>
