<svg aria-hidden="true" style="position:absolute;width:0;height:0;overflow:hidden" xmlns="http://www.w3.org/2000/svg">
  <defs>
    <symbol id="icon-ch-a" viewBox="0 0 32 32">
      <path fill="#fff" style="fill:var(--color1, #fff);stroke:var(--color2, #000)" stroke="#000" stroke-width="3" d="M4 1.5h24c1.381 0 2.5 1.119 2.5 2.5v24c0 1.381-1.119 2.5-2.5 2.5H4c-1.381 0-2.5-1.119-2.5-2.5V4c0-1.381 1.119-2.5 2.5-2.5z"/>
      <path fill="#f11" style="fill:var(--color3, #f11)" d="m12.897 19.127.065.076-.056.048-.063-.039c-.247-.154-1.748-1.157-2.811-2.108-.842-.752-1.513-1.239-2.058-1.44-.271-.1-.504-.126-.708-.085-.203.041-.388.151-.56.343l-.001.001c-.209.226-.338.406-.38.626s.001.499.182.926c.364.858 1.258 2.25 2.969 4.845.474.715.954 1.407 1.346 1.947.196.27.37.501.509.678.141.179.242.295.295.342.126.107.322.194.563.253.24.059.516.088.792.086s.551-.034.787-.096c.238-.063.429-.154.547-.267l.003-.003c.03-.026.101-.11.214-.257.11-.143.253-.339.426-.579.345-.48.805-1.138 1.34-1.916 1.071-1.555 2.444-3.587 3.809-5.633s2.723-4.105 3.764-5.713c.52-.804.961-1.495 1.283-2.015.161-.26.292-.477.389-.644.098-.169.157-.281.178-.333l.001-.001c.152-.37.204-.56.16-.732-.022-.086-.071-.175-.159-.285s-.213-.236-.382-.395l-.001-.001c-.242-.235-.445-.404-.625-.512-.179-.108-.331-.153-.475-.146s-.294.064-.468.187c-.174.123-.367.306-.596.554-.41.489-1.849 2.22-3.18 3.89l-.078-.062-7.022 8.46z"/>
    </symbol>
    <symbol id="icon-ch-f" viewBox="0 0 32 32">
      <path fill="#757575" style="fill:var(--color4, #757575);stroke:var(--color2, #000)" stroke="#000" stroke-width="3" d="M4 1.5h24c1.381 0 2.5 1.119 2.5 2.5v24c0 1.381-1.119 2.5-2.5 2.5H4c-1.381 0-2.5-1.119-2.5-2.5V4c0-1.381 1.119-2.5 2.5-2.5z"/>
      <path fill="#fff" style="fill:var(--color1, #fff)" d="M23.913 7.185c-.436.465-1.978 2.124-3.404 3.724C14.022 18.211 13 19 13 19c-.262-.145-1.865-1.098-3-2-1.807-1.436-2.931-1.902-3.716-1.116-.902.873-.698 1.28 2.967 6.225 1.018 1.367 2.065 2.647 2.327 2.851.611.465 2.444.465 3.025-.029.669-.524 11.811-15.447 12.218-16.378.32-.698.291-.844-.436-1.455-1.047-.902-1.484-.873-2.473.087z"/>
    </symbol>
    <symbol id="icon-ch-k" viewBox="0 0 32 32">
      <path fill="#fff" style="fill:var(--color1, #fff);stroke:var(--color5, #757)" stroke="#757" stroke-width="3" d="M4 1.5h24c1.381 0 2.5 1.119 2.5 2.5v24c0 1.381-1.119 2.5-2.5 2.5H4c-1.381 0-2.5-1.119-2.5-2.5V4c0-1.381 1.119-2.5 2.5-2.5z"/>
      <path fill="#fff" style="fill:var(--color1, #fff);stroke:var(--color5, #757)" stroke="#757" stroke-width=".4" d="m13 19 .122.158-.104.081-.115-.064c-.266-.148-1.881-1.107-3.027-2.018-.902-.717-1.61-1.172-2.179-1.358-.281-.092-.517-.114-.719-.077-.2.036-.381.133-.552.304l-.002.002c-.223.215-.339.368-.376.543-.037.174-.003.412.188.812.386.807 1.337 2.125 3.176 4.607.507.681 1.022 1.341 1.442 1.855.21.257.395.477.544.644.152.171.255.275.303.313.119.09.315.169.569.224.25.054.54.081.832.08s.579-.032.825-.09c.25-.059.438-.143.549-.236l.006-.005c.023-.018.092-.09.214-.233.116-.136.269-.322.453-.551.368-.458.859-1.087 1.431-1.83 1.144-1.486 2.612-3.429 4.071-5.385s2.911-3.924 4.022-5.461c.556-.769 1.026-1.429 1.37-1.925.172-.248.312-.455.414-.613.106-.164.164-.262.182-.303l.002-.003c.166-.361.198-.503.164-.621-.017-.06-.058-.131-.147-.229s-.219-.216-.4-.368l-.002-.002c-.526-.453-.842-.617-1.12-.606-.278.011-.584.202-1.08.682-.44.47-1.977 2.122-3.397 3.716-3.244 3.652-5.124 5.677-6.192 6.789-.534.556-.867.885-1.067 1.076-.1.095-.167.157-.21.194-.022.019-.037.032-.048.041l-.013.01-.004.003-.001.001-.001.001-.122-.158z"/>
    </symbol>
    <symbol id="icon-ch-r" viewBox="0 0 32 32">
      <path fill="#2196f3" style="fill:var(--color6, #2196f3);stroke:var(--color2, #000)" stroke="#000" stroke-width="3" d="M4 1.5h24c1.381 0 2.5 1.119 2.5 2.5v24c0 1.381-1.119 2.5-2.5 2.5H4c-1.381 0-2.5-1.119-2.5-2.5V4c0-1.381 1.119-2.5 2.5-2.5z"/>
      <path fill="#dc143c" style="fill:var(--color7, #dc143c)" d="M23.913 7.185c-.436.465-1.978 2.124-3.404 3.724C14.022 18.211 13 19 13 19c-.262-.145-1.865-1.098-3-2-1.807-1.436-2.931-1.902-3.716-1.116-.902.873-.698 1.28 2.967 6.225 1.018 1.367 2.065 2.647 2.327 2.851.611.465 2.444.465 3.025-.029.669-.524 11.811-15.447 12.218-16.378.32-.698.291-.844-.436-1.455-1.047-.902-1.484-.873-2.473.087z"/>
    </symbol>
    <symbol id="icon-ch-s" viewBox="0 0 32 32">
      <path fill="#fff" style="fill:var(--color1, #fff);stroke:var(--color2, #000)" stroke="#000" stroke-width="3" d="M4 1.5h24c1.381 0 2.5 1.119 2.5 2.5v24c0 1.381-1.119 2.5-2.5 2.5H4c-1.381 0-2.5-1.119-2.5-2.5V4c0-1.381 1.119-2.5 2.5-2.5z"/>
      <path fill="#fff" style="fill:var(--color1, #fff)" d="M23.913 7.185c-.436.465-1.978 2.124-3.404 3.724C14.022 18.211 13 19 13 19c-.262-.145-1.865-1.098-3-2-1.807-1.436-2.931-1.902-3.716-1.116-.902.873-.698 1.28 2.967 6.225 1.018 1.367 2.065 2.647 2.327 2.851.611.465 2.444.465 3.025-.029.669-.524 11.811-15.447 12.218-16.378.32-.698.291-.844-.436-1.455-1.047-.902-1.484-.873-2.473.087z"/>
    </symbol>
    <symbol id="icon-ch-y" viewBox="0 0 32 32">
      <path fill="#2196f3" style="fill:var(--color6, #2196f3);stroke:var(--color2, #000)" stroke="#000" stroke-width="3" d="M4 1.5h24c1.381 0 2.5 1.119 2.5 2.5v24c0 1.381-1.119 2.5-2.5 2.5H4c-1.381 0-2.5-1.119-2.5-2.5V4c0-1.381 1.119-2.5 2.5-2.5z"/>
      <path fill="#fff" style="fill:var(--color1, #fff)" d="M23.913 7.185c-.436.465-1.978 2.124-3.404 3.724C14.022 18.211 13 19 13 19c-.262-.145-1.865-1.098-3-2-1.807-1.436-2.931-1.902-3.716-1.116-.902.873-.698 1.28 2.967 6.225 1.018 1.367 2.065 2.647 2.327 2.851.611.465 2.444.465 3.025-.029.669-.524 11.811-15.447 12.218-16.378.32-.698.291-.844-.436-1.455-1.047-.902-1.484-.873-2.473.087z"/>
    </symbol>
  </defs>
</svg>
