<svg aria-hidden="true" style="position: absolute; width: 0; height: 0; overflow: hidden;" version="1.1" xmlns="http://www.w3.org/2000/svg" xmlns:xlink="http://www.w3.org/1999/xlink">
<defs>
<symbol id="ch-f" viewBox="0 0 32 32">
<path fill="#757575" style="fill: var(--color1, #757575); stroke: var(--color2, #000)" stroke="#000" stroke-linejoin="miter" stroke-linecap="butt" stroke-miterlimit="4" stroke-width="3" d="M4 1.5h24c1.381 0 2.5 1.119 2.5 2.5v24c0 1.381-1.119 2.5-2.5 2.5h-24c-1.381 0-2.5-1.119-2.5-2.5v-24c0-1.381 1.119-2.5 2.5-2.5z"></path>
<path fill="#fff" style="fill: var(--color3, #fff)" d="M23.913 7.185c-0.436 0.465-1.978 2.124-3.404 3.724-6.487 7.302-7.509 8.091-7.509 8.091-0.262-0.145-1.865-1.098-3-2-1.807-1.436-2.931-1.902-3.716-1.116-0.902 0.873-0.698 1.28 2.967 6.225 1.018 1.367 2.065 2.647 2.327 2.851 0.611 0.465 2.444 0.465 3.025-0.029 0.669-0.524 11.811-15.447 12.218-16.378 0.32-0.698 0.291-0.844-0.436-1.455-1.047-0.902-1.484-0.873-2.473 0.087z"></path>
</symbol>
<symbol id="ch-k" viewBox="0 0 32 32">
<path fill="#fff" style="fill: var(--color3, #fff); stroke: var(--color4, #757)" stroke="#757" stroke-linejoin="miter" stroke-linecap="butt" stroke-miterlimit="4" stroke-width="3" d="M4 1.5h24c1.381 0 2.5 1.119 2.5 2.5v24c0 1.381-1.119 2.5-2.5 2.5h-24c-1.381 0-2.5-1.119-2.5-2.5v-24c0-1.381 1.119-2.5 2.5-2.5z"></path>
<path fill="#fff" style="fill: var(--color3, #fff); stroke: var(--color4, #757)" stroke="#757" stroke-linejoin="miter" stroke-linecap="butt" stroke-miterlimit="4" stroke-width="0.4" d="M13 19l0.122 0.158-0.104 0.081-0.115-0.064c-0.266-0.148-1.881-1.107-3.027-2.018-0.902-0.717-1.61-1.172-2.179-1.358-0.281-0.092-0.517-0.114-0.719-0.077-0.2 0.036-0.381 0.133-0.552 0.304l0 0-0.002 0.002c-0.223 0.215-0.339 0.368-0.376 0.543-0.037 0.174-0.003 0.412 0.188 0.812 0.386 0.807 1.337 2.125 3.176 4.607 0.507 0.681 1.022 1.341 1.442 1.855 0.21 0.257 0.395 0.477 0.544 0.644 0.152 0.171 0.255 0.275 0.303 0.313 0.119 0.090 0.315 0.169 0.569 0.224 0.25 0.054 0.54 0.081 0.832 0.080s0.579-0.032 0.825-0.090c0.25-0.059 0.438-0.143 0.549-0.236l-0-0 0.006-0.005c0.023-0.018 0.092-0.090 0.214-0.233 0.116-0.136 0.269-0.322 0.453-0.551 0.368-0.458 0.859-1.087 1.431-1.83 1.144-1.486 2.612-3.429 4.071-5.385s2.911-3.924 4.022-5.461c0.556-0.769 1.026-1.429 1.37-1.925 0.172-0.248 0.312-0.455 0.414-0.613 0.106-0.164 0.164-0.262 0.182-0.303h-0l0.002-0.003c0.166-0.361 0.198-0.503 0.164-0.621-0.017-0.060-0.058-0.131-0.147-0.229s-0.219-0.216-0.4-0.368v0l-0.002-0.002c-0.526-0.453-0.842-0.617-1.12-0.606-0.278 0.011-0.584 0.202-1.080 0.682-0.44 0.47-1.977 2.122-3.397 3.716-3.244 3.652-5.124 5.677-6.192 6.789-0.534 0.556-0.867 0.885-1.067 1.076-0.1 0.095-0.167 0.157-0.21 0.194-0.022 0.019-0.037 0.032-0.048 0.041l-0.013 0.010-0.004 0.003-0.001 0.001-0.001 0.001c-0 0-0 0-0.122-0.158z"></path>
</symbol>
<symbol id="ch-r" viewBox="0 0 32 32">
<path class="r-qa"  d="M4 1.5h24c1.381 0 2.5 1.119 2.5 2.5v24c0 1.381-1.119 2.5-2.5 2.5h-24c-1.381 0-2.5-1.119-2.5-2.5v-24c0-1.381 1.119-2.5 2.5-2.5z"></path>
<path class="r-ws"  d="M23.913 7.185c-0.436 0.465-1.978 2.124-3.404 3.724-6.487 7.302-7.509 8.091-7.509 8.091-0.262-0.145-1.865-1.098-3-2-1.807-1.436-2.931-1.902-3.716-1.116-0.902 0.873-0.698 1.28 2.967 6.225 1.018 1.367 2.065 2.647 2.327 2.851 0.611 0.465 2.444 0.465 3.025-0.029 0.669-0.524 11.811-15.447 12.218-16.378 0.32-0.698 0.291-0.844-0.436-1.455-1.047-0.902-1.484-0.873-2.473 0.087z"></path>
</symbol>
<symbol id="ch-s" viewBox="0 0 32 32">
<path fill="#fff" style="fill: var(--color3, #fff); stroke: var(--color2, #000)" stroke="#000" stroke-linejoin="miter" stroke-linecap="butt" stroke-miterlimit="4" stroke-width="3" d="M4 1.5h24c1.381 0 2.5 1.119 2.5 2.5v24c0 1.381-1.119 2.5-2.5 2.5h-24c-1.381 0-2.5-1.119-2.5-2.5v-24c0-1.381 1.119-2.5 2.5-2.5z"></path>
<path fill="#fff" style="fill: var(--color3, #fff)" d="M23.913 7.185c-0.436 0.465-1.978 2.124-3.404 3.724-6.487 7.302-7.509 8.091-7.509 8.091-0.262-0.145-1.865-1.098-3-2-1.807-1.436-2.931-1.902-3.716-1.116-0.902 0.873-0.698 1.28 2.967 6.225 1.018 1.367 2.065 2.647 2.327 2.851 0.611 0.465 2.444 0.465 3.025-0.029 0.669-0.524 11.811-15.447 12.218-16.378 0.32-0.698 0.291-0.844-0.436-1.455-1.047-0.902-1.484-0.873-2.473 0.087z"></path>
</symbol>
<symbol id="ch-y" viewBox="0 0 32 32">
<path  stroke="#000" stroke-linejoin="miter" stroke-linecap="butt" stroke-miterlimit="4" stroke-width="3" d="M4 1.5h24c1.381 0 2.5 1.119 2.5 2.5v24c0 1.381-1.119 2.5-2.5 2.5h-24c-1.381 0-2.5-1.119-2.5-2.5v-24c0-1.381 1.119-2.5 2.5-2.5z"></path>
<path fill="#fff" style="fill: var(--color3, #fff)" d="M23.913 7.185c-0.436 0.465-1.978 2.124-3.404 3.724-6.487 7.302-7.509 8.091-7.509 8.091-0.262-0.145-1.865-1.098-3-2-1.807-1.436-2.931-1.902-3.716-1.116-0.902 0.873-0.698 1.28 2.967 6.225 1.018 1.367 2.065 2.647 2.327 2.851 0.611 0.465 2.444 0.465 3.025-0.029 0.669-0.524 11.811-15.447 12.218-16.378 0.32-0.698 0.291-0.844-0.436-1.455-1.047-0.902-1.484-0.873-2.473 0.087z"></path>
</symbol>
</defs>
</svg>
