<svg aria-hidden="true" style="position: absolute; width: 0; height: 0; overflow: hidden;" version="1.1" xmlns="http://www.w3.org/2000/svg" xmlns:xlink="http://www.w3.org/1999/xlink">
<defs>
<symbol id="trout" viewBox="0 0 38 32">
<path d="M25.116 0.064c0.369 0.032 0.978 0.032 1.362 0 0.369-0.032 0.064-0.064-0.689-0.064s-1.058 0.032-0.673 0.064z"></path>
<path d="M28.129 0.433c2.067 0.673 3.59 2.148 3.59 3.462 0 0.385-0.064 0.705-0.144 0.705s-0.369-0.369-0.657-0.801c-1.010-1.555-1.923-1.827-4.552-1.314l-1.571 0.304-1.154-0.353c-0.625-0.192-1.603-0.449-2.164-0.561l-1.010-0.208 0.369-0.321 0.385-0.304-0.465 0.272c-0.401 0.24-0.577 0.256-1.843 0.048-1.923-0.288-8.687-0.256-10.93 0.064-2.164 0.304-2.933 0.657-2.997 1.362-0.048 0.433 0.064 0.625 0.641 1.154 1.891 1.747 2.901 2.741 2.821 2.821-0.048 0.048-0.337-0.032-0.657-0.16s-0.769-0.24-0.978-0.24c-0.481 0-1.186-0.288-1.619-0.657-0.497-0.433-1.106-0.529-1.426-0.224-0.513 0.513-0.224 1.314 0.737 2.132 0.24 0.208 0.881 0.946 1.41 1.651 0.849 1.138 0.946 1.33 0.785 1.635-0.112 0.192-0.208 0.385-0.24 0.401-0.016 0.032-0.353-0.144-0.737-0.417-0.769-0.513-1.41-0.881-1.41-0.785 0 0.032 0.433 0.337 0.962 0.657 0.513 0.321 0.994 0.657 1.042 0.721 0.032 0.080-0.080 0.337-0.256 0.561-0.192 0.24-0.304 0.561-0.256 0.737s0 0.288-0.112 0.273c-0.096-0.016-0.16 0.16-0.144 0.433 0.016 0.256-0.032 0.753-0.096 1.090-0.080 0.337-0.080 0.609-0.016 0.609s0.16-0.353 0.224-0.801c0.112-0.785 0.321-1.138 0.465-0.769 0.048 0.112 0.096 0.064 0.096-0.128 0.016-0.176 0.112-0.417 0.208-0.513 0.16-0.16 0.16-0.272 0-0.529-0.128-0.192-0.176-0.385-0.128-0.433s0.096-0.032 0.096 0.048c0 0.064 0.096 0.032 0.224-0.064 0.353-0.304 1.539 1.106 1.539 1.827 0 0.801-0.208 1.122-1.026 1.603-0.785 0.465-1.138 0.513-0.994 0.144 0.048-0.128 0.032-0.208-0.048-0.144-0.256 0.144-0.978-0.224-0.978-0.497 0-0.16-0.032-0.24-0.080-0.192s-0.016 0.369 0.064 0.705 0.144 0.529 0.16 0.417c0.016-0.272 0.657-0.24 0.657 0.048 0 0.208-0.128 0.272-0.481 0.272-0.048 0-0.192 0.128-0.353 0.273-0.24 0.24-0.224 0.256 0.288 0.288 0.449 0.048 0.545-0.016 0.545-0.272 0-0.208 0.208-0.401 0.689-0.609 1.458-0.641 2.084-1.555 1.731-2.484-0.096-0.24-0.449-0.737-0.801-1.122-0.481-0.513-0.625-0.785-0.545-1.042 0.112-0.433 0.24-0.449 0.609-0.032 0.817 0.898 3.911 2.693 6.122 3.542l0.994 0.385-0.080 0.577c-0.128 0.737 0.385 1.923 0.978 2.324 0.401 0.256 0.449 0.256 1.138-0.080 0.401-0.208 0.833-0.32 0.962-0.272 0.513 0.192 0.865-0.192 0.865-0.946 0-0.401 0.032-0.721 0.080-0.721s0.737 0.272 1.539 0.593c1.106 0.449 1.41 0.641 1.346 0.833-0.064 0.16 0.16 0.481 0.673 0.914 0.769 0.657 0.769 0.673 0.465 1.010-0.16 0.176-0.449 0.369-0.641 0.433-0.176 0.064-0.433 0.24-0.545 0.417-0.112 0.16-0.256 0.256-0.32 0.224s-0.128 0.705-0.16 1.635c-0.048 1.763-0.224 2.308-0.497 1.619-0.144-0.337-0.16-0.353-0.176-0.064s-0.032 0.288-0.256-0.080c-0.224-0.385-0.24-0.369-0.176 0.449s0.048 0.833-0.24 0.577c-0.16-0.16-0.353-0.497-0.433-0.769-0.112-0.433-0.144-0.465-0.256-0.192-0.080 0.16-0.048 0.593 0.048 0.962 0.096 0.353 0.144 0.673 0.112 0.721-0.128 0.112-0.721-1.042-0.721-1.426-0.016-0.385-0.016-0.385-0.24-0.096-0.176 0.24-0.24 0.256-0.305 0.080-0.192-0.625-0.208-0.93-0.032-1.010 0.096-0.048 0.080-0.080-0.048-0.080-0.128-0.016-0.369 0.096-0.529 0.256-0.272 0.24-0.32 0.24-0.657-0.064-0.577-0.513-0.881-0.593-0.337-0.096 0.272 0.272 0.545 0.609 0.609 0.785 0.128 0.288 0.128 0.288 0.272-0.064 0.192-0.529 0.417-0.433 0.497 0.208 0.048 0.433 0.016 0.545-0.144 0.481-0.24-0.080-0.192 0.032 0.305 0.769 0.385 0.545 0.144 0.561-0.369 0.016-0.673-0.721-1.058-0.817-0.497-0.128 0.785 0.946 0.417 0.897-0.449-0.064-0.433-0.481-0.801-0.769-0.833-0.657-0.048 0.144-0.144 0.144-0.401 0-0.192-0.096-0.545-0.176-0.801-0.16-0.353 0.016-0.305 0.048 0.305 0.224 0.753 0.208 1.491 0.641 1.907 1.138 0.208 0.256 0.16 0.256-0.577 0.16-1.587-0.224-3.237-0.593-4.76-1.058-0.849-0.272-1.571-0.481-1.619-0.481s-0.128 0.208-0.192 0.481c-0.064 0.256-0.16 0.513-0.24 0.561-0.256 0.16-0.93-0.224-1.218-0.705-0.224-0.385-0.337-0.449-0.641-0.337-0.192 0.080-0.385 0.112-0.401 0.080-0.032-0.032-0.032 0.305-0.016 0.737 0.064 0.705 0.032 0.785-0.24 0.689-0.272-0.080-0.272-0.080 0 0.096 0.208 0.144 0.272 0.401 0.272 1.17l-0.016 0.994-1.266 0.849c-0.705 0.481-1.282 0.93-1.282 0.994 0 0.449 2.452 1.731 4.087 2.164 1.587 0.401 1.571 0.417 0.962-0.994-0.304-0.689-0.529-1.25-0.513-1.266s0.978 0.208 2.132 0.497c3.318 0.849 5.321 1.106 8.959 1.106 3.927 0.016 6.972-0.385 10.209-1.362 0.609-0.176 1.154-0.305 1.186-0.256 0.032 0.032-0.176 0.609-0.497 1.282-0.625 1.41-0.641 1.394 0.962 0.994 1.186-0.305 3.414-1.378 3.879-1.875l0.353-0.369-1.346-0.881c-1.458-0.946-1.763-1.442-0.898-1.442 0.465 0 0.481-0.016 0.304-0.481-0.24-0.737-0.016-1.603 0.577-2.164l0.529-0.497-0.385-0.176c-0.337-0.16-0.369-0.16-0.192 0.048 0.144 0.176 0.112 0.305-0.224 0.609-0.449 0.417-0.689 1.282-0.529 2.019 0.112 0.577-0.16 0.641-0.417 0.096-0.128-0.305-0.112-0.577 0.096-1.202 0.144-0.433 0.256-0.994 0.256-1.25 0.016-0.417 0.032-0.433 0.224-0.16 0.192 0.256 0.224 0.192 0.224-0.513 0-0.561-0.096-0.881-0.288-1.058-0.256-0.24-0.304-0.224-0.625 0.176l-0.337 0.433v-0.721c0-0.881 0.465-1.571 1.058-1.571 0.962 0 2.58 0.513 3.173 0.994 0.641 0.529 0.673 0.769 0.064 0.433-0.433-0.24-1.731-0.353-1.731-0.16 0 0.273 0.481 0.561 0.657 0.385 0.208-0.208 1.186 0 1.571 0.337 0.16 0.144 0.337 0.256 0.401 0.256 0.176 0-0.337-0.865-0.785-1.314-0.288-0.288-0.401-0.529-0.337-0.705 0.080-0.208 0.064-0.224-0.112-0.096-0.16 0.128-0.417 0.112-0.994-0.048-0.417-0.128-1.042-0.24-1.394-0.24-0.337 0-0.609-0.032-0.609-0.080 0-0.272 0.721-1.010 0.897-0.93 0.128 0.048 0.224 0 0.224-0.112 0-0.096-0.064-0.128-0.16-0.080-0.224 0.144-0.192-0.112 0.064-0.481 0.304-0.449 0.897-2.869 0.785-3.27-0.064-0.24-0.016-0.337 0.176-0.337 0.144 0 0.256-0.064 0.256-0.16 0-0.080-0.096-0.112-0.224-0.064-0.16 0.064-0.224-0.192-0.304-1.042-0.112-1.426-0.705-3.109-1.587-4.52-1.458-2.388-2.676-4.712-2.516-4.872 0.224-0.224 0.176-1.49-0.080-1.987-0.545-1.026-2.468-2.276-3.862-2.484-0.497-0.080-0.433-0.032 0.337 0.224zM18.818 1.651c3.574 0.513 6.988 1.555 9.937 3.077 1.202 0.625 1.731 1.026 3.205 2.516 2.356 2.34 3.253 4.023 3.622 6.827 0.272 1.987-0.24 4.327-1.202 5.513-0.144 0.176-0.016-0.192 0.256-0.801 0.465-0.994 0.529-1.314 0.577-2.837 0.128-3.269-0.737-5.577-2.853-7.677-1.442-1.426-2.949-2.452-5-3.43-2.276-1.074-3.366-1.378-4.68-1.362-1.667 0.032-2.949-0.224-4.007-0.785-1.010-0.529-1.523-0.609-1.827-0.304-0.144 0.144-0.128 0.256 0.080 0.481 0.24 0.272 0.224 0.288-0.208 0.288-0.256 0-1.010-0.272-1.667-0.593-1.202-0.609-1.202-0.609-3.221-0.609-1.474 0-2.084 0.064-2.276 0.224-0.144 0.112-0.224 0.272-0.176 0.353 0.128 0.208-0.096 0.176-1.042-0.192-0.657-0.24-1.074-0.304-1.683-0.224-1.314 0.16-0.513-0.176 0.946-0.401 3.221-0.497 7.949-0.513 11.219-0.064zM29.94 2.885c0.449 0.417 1.459 1.955 2.34 3.558 0.577 1.058 0.593 1.106 0.176 0.721-0.256-0.224-0.545-0.625-0.657-0.881-0.112-0.272-0.224-0.385-0.224-0.272-0.016 0.16-0.064 0.16-0.24 0-0.128-0.112-0.192-0.256-0.16-0.321s-0.080-0.16-0.272-0.208c-0.256-0.096-0.305-0.192-0.24-0.529 0.080-0.321 0.064-0.369-0.064-0.192-0.080 0.128-0.16 0.176-0.16 0.096s-0.096-0.064-0.192 0.032c-0.24 0.176-0.673-0.16-0.481-0.385 0.064-0.080-0.016-0.032-0.16 0.080-0.401 0.304-0.353 0.032 0.080-0.449l0.353-0.401-0.513 0.369c-0.288 0.192-0.529 0.272-0.529 0.176s-0.096-0.128-0.192-0.080c-0.112 0.064-0.032-0.048 0.192-0.224l0.401-0.337-0.433 0.144c-0.256 0.096-0.481 0.096-0.529 0.016-0.048-0.064 0.176-0.224 0.497-0.321 0.817-0.272 0.593-0.353-0.353-0.096-0.433 0.112-0.93 0.16-1.106 0.096-0.321-0.112-0.321-0.128 0-0.208 0.176-0.032 0.048-0.048-0.272-0.032-0.978 0.080-0.689-0.192 0.401-0.385 0.994-0.16 0.994-0.16-0.449-0.096-1.587 0.080-1.635 0-0.16-0.224 1.346-0.208 2.484-0.080 2.949 0.353zM7.791 2.741c0.064 0.048 0.272 0.096 0.465 0.096 0.256 0 0.353 0.064 0.289 0.224-0.048 0.128 0.032 0.256 0.208 0.304 0.16 0.048 0 0.080-0.353 0.096-0.481 0.016-0.577 0.064-0.401 0.176 0.128 0.080 0.369 0.16 0.529 0.16s0.561 0.208 0.882 0.465c0.753 0.593 2.26 1.138 3.109 1.138 0.753 0 0.721 0.144-0.064 0.321l-0.529 0.128 0.497 0.016c0.641 0.016 1.026-0.288 1.186-0.946 0.112-0.497 0.144-0.513 0.24-0.208 0.080 0.24 0.272 0.353 0.689 0.417 0.737 0.080 0.833 0.016 0.305-0.224-0.24-0.112-0.385-0.256-0.337-0.337s-0.032-0.304-0.208-0.481c-0.289-0.337-0.289-0.337 0.064-0.144 0.545 0.272 1.603 0.224 1.715-0.080 0.064-0.144 0.144-0.224 0.208-0.176 0.048 0.064 0.032 0.192-0.064 0.304-0.096 0.128-0.080 0.465 0.032 0.914 0.208 0.801 0.401 0.593 0.401-0.417 0-1.266 0.914 0.096 0.978 1.474 0.048 0.737 0.016 0.801-0.305 0.785-0.272 0-0.305 0.032-0.176 0.208 0.096 0.112 0.272 0.208 0.401 0.208 0.256 0 0.545 0.497 0.545 0.93 0 0.176-0.305 0.641-0.689 1.042-0.529 0.545-0.914 0.769-1.651 0.962l-0.946 0.272 0.833-0.064c0.577-0.032 1.042-0.176 1.49-0.481 0.737-0.481 0.849-0.353 0.208 0.256-1.218 1.154-3.253 0.946-3.253-0.337 0-0.561-0.16-0.753-0.689-0.881-0.272-0.064-0.497-0.256-0.593-0.513-0.080-0.208-0.273-0.433-0.417-0.497-0.144-0.048-0.401-0.433-0.577-0.833s-0.433-0.865-0.577-1.042c-0.449-0.497-2.917-1.891-4.423-2.5-1.859-0.737-1.939-0.962-0.337-0.897 0.673 0.032 1.266 0.112 1.314 0.16zM12.471 3.093c0.337 0.272 0.497 0.561 0.497 0.833 0 0.304-0.048 0.369-0.144 0.208-0.112-0.176-0.16-0.16-0.288 0.048-0.144 0.256-0.176 0.256-0.353 0.032-0.272-0.321-0.914-0.337-1.026-0.032-0.096 0.256 0.176 0.577 0.481 0.577 0.112 0 0.208 0.064 0.208 0.16 0 0.224-0.192 0.192-0.609-0.096-0.433-0.304-0.449-0.769-0.032-1.186 0.401-0.401 0.753-0.401 1.186-0.048 0.337 0.288 0.337 0.288 0.032-0.080-0.369-0.417-0.994-0.465-1.41-0.080-0.208 0.176-0.288 0.192-0.288 0.048 0-0.16-0.048-0.16-0.256 0.016-0.144 0.112-0.224 0.353-0.176 0.577 0.080 0.417-0.128 0.497-0.272 0.112-0.192-0.497-0.096-0.849 0.321-1.17 0.609-0.481 1.506-0.449 2.132 0.080zM18.705 3.494c0.545 0.192 1.41 1.266 1.859 2.308 0.224 0.529 0.256 0.561 0.176 0.16-0.048-0.272-0.305-0.817-0.561-1.25-0.497-0.801-0.497-0.978 0.032-0.401 0.433 0.513 1.042 1.843 1.186 2.596 0.096 0.545 0.064 0.657-0.273 0.914-0.369 0.272-0.369 0.288-0.080 0.513 0.288 0.208 0.288 0.24 0.016 0.801-0.337 0.721-0.865 1.122-1.923 1.458-0.721 0.224-0.737 0.256-0.192 0.176 0.337-0.064 0.737-0.144 0.881-0.176 0.208-0.080 0.208-0.032-0.048 0.16-0.369 0.305-1.154 0.529-2.26 0.673-0.753 0.096-0.769 0.096-0.433-0.16 0.577-0.433 1.17-1.587 1.33-2.596 0.128-0.785 0.112-1.026-0.16-1.571-0.16-0.369-0.337-1.106-0.369-1.667l-0.080-0.994h0.545c0.305 0 0.545-0.048 0.545-0.112 0-0.24-0.545-0.689-0.833-0.689-0.176 0-0.256-0.080-0.208-0.16 0.128-0.208 0.24-0.208 0.849 0.016zM7.166 4.023c0.914 0.465 1.474 1.042 2.019 2.1 0.481 0.946 0.881 1.442 1.266 1.571 0.401 0.144 0.337-0.112-0.24-0.914-1.394-1.891-1.603-2.212-1.394-2.099 1.266 0.769 1.907 1.266 2.26 1.715 1.202 1.571 1.234 2.693 0.096 2.693-0.673 0-1.49-0.833-2.132-2.18-0.737-1.587-1.266-2.228-2.244-2.805-0.962-0.561-0.689-0.625 0.369-0.080zM22.023 4.439c0.048 0.096-0.016 0.208-0.16 0.256-0.305 0.128-0.481 0-0.321-0.24 0.128-0.224 0.353-0.224 0.481-0.016zM24.828 4.76c0 0.080-0.112 0.16-0.24 0.16s-0.24-0.080-0.24-0.16c0-0.096 0.112-0.16 0.24-0.16s0.24 0.064 0.24 0.16zM26.11 4.76c0 0.080-0.112 0.16-0.24 0.16s-0.24-0.080-0.24-0.16c0-0.096 0.112-0.16 0.24-0.16s0.24 0.064 0.24 0.16zM23.465 4.92c0.048 0.096-0.016 0.208-0.16 0.256-0.305 0.128-0.481 0-0.321-0.24 0.128-0.224 0.353-0.224 0.481-0.016zM24.523 5.609c-0.208 0.208-0.417 0.048-0.256-0.192 0.048-0.096 0.176-0.128 0.272-0.080 0.096 0.064 0.096 0.16-0.016 0.272zM25.597 5.545c0.048 0.128-0.016 0.192-0.144 0.144-0.112-0.032-0.24-0.16-0.272-0.272-0.048-0.128 0.016-0.192 0.144-0.144 0.112 0.032 0.24 0.16 0.273 0.272zM27.072 5.561c0 0.080-0.112 0.16-0.24 0.16s-0.24-0.080-0.24-0.16c0-0.096 0.112-0.16 0.24-0.16s0.24 0.064 0.24 0.16zM4.73 5.898c0.609 0.369 2.837 1.106 3.382 1.106 0.32 0 1.491 1.042 1.491 1.33 0 0.064-0.337-0.048-0.753-0.272-1.474-0.737-3.718-1.282-4.167-1.010-0.385 0.24-1.074-1.058-0.737-1.378 0.144-0.16 0.192-0.144 0.785 0.224zM28.706 5.802c0 0.080-0.080 0.176-0.176 0.208s-0.176-0.064-0.176-0.208 0.080-0.24 0.176-0.208c0.096 0.032 0.176 0.128 0.176 0.208zM27.552 6.844c0 0.080-0.112 0.16-0.24 0.16s-0.24-0.080-0.24-0.16c0-0.096 0.112-0.16 0.24-0.16s0.24 0.064 0.24 0.16zM29.556 6.988c0.112 0.192-0.192 0.385-0.401 0.256-0.176-0.112-0.064-0.401 0.16-0.401 0.080 0 0.176 0.064 0.24 0.144zM30.758 7.164c0 0.080-0.112 0.16-0.24 0.16s-0.24-0.080-0.24-0.16c0-0.096 0.112-0.16 0.24-0.16s0.24 0.064 0.24 0.16zM7.567 8.414c1.507 0.914 2.949 1.507 4.584 1.907 0.625 0.144 1.138 0.321 1.138 0.401 0 0.24-1.266 0.128-2.741-0.273-2.26-0.593-2.388-0.609-1.346-0.096 1.17 0.577 2.516 0.914 4.648 1.202l1.603 0.208-0.721 0.192c-0.401 0.128-1.25 0.224-1.907 0.24-0.753 0.016-1.218 0.080-1.25 0.208-0.064 0.192 1.042 1.026 1.923 1.426l0.513 0.24-0.657-0.064c-1.17-0.128-5.129-3.013-6.619-4.84-0.497-0.609-0.513-0.609-0.272-0.128 0.144 0.288 0.497 0.801 0.785 1.122 0.337 0.401 0.401 0.529 0.16 0.369-0.192-0.128-0.865-0.881-1.49-1.667l-1.154-1.426 0.737 0.080c0.513 0.064 1.154 0.337 2.067 0.897zM29.812 8.014c-0.208 0.208-0.417 0.048-0.256-0.192 0.048-0.096 0.176-0.128 0.272-0.080 0.096 0.064 0.096 0.16-0.016 0.272zM31.319 8.27c0.112 0.192-0.192 0.385-0.401 0.256-0.176-0.112-0.064-0.401 0.16-0.401 0.080 0 0.176 0.064 0.24 0.144zM30.597 8.927c0 0.080-0.112 0.16-0.24 0.16s-0.24-0.080-0.24-0.16c0-0.096 0.112-0.16 0.24-0.16s0.24 0.064 0.24 0.16zM32.681 8.927c0 0.080-0.112 0.16-0.24 0.16s-0.24-0.080-0.24-0.16c0-0.096 0.112-0.16 0.24-0.16s0.24 0.064 0.24 0.16zM33.001 10.53c0 0.080-0.112 0.16-0.24 0.16s-0.24-0.080-0.24-0.16c0-0.096 0.112-0.16 0.24-0.16s0.24 0.064 0.24 0.16zM20.34 11.139c0 0.080-0.256 0.401-0.593 0.721-0.529 0.529-0.673 0.593-1.426 0.593-0.962 0-2.468-0.304-2.468-0.513 0-0.064 0.337-0.128 0.769-0.128 1.058 0 2.725-0.288 3.221-0.561s0.497-0.272 0.497-0.112zM16.141 12.373c0.497 0.128 1.202 0.272 1.555 0.337 0.625 0.096 0.625 0.112 0.24 0.272-0.224 0.096-0.609 0.256-0.865 0.385-0.256 0.112-0.609 0.208-0.785 0.208-0.401 0-2.196-0.801-2.196-0.978 0-0.208 0.545-0.176 0.801 0.048 0.128 0.112 0.096 0.048-0.064-0.16-0.305-0.353-0.305-0.353 0.048-0.353 0.192 0 0.753 0.112 1.266 0.24zM20.661 12.469c-0.337 0.273-0.353 0.305-0.048 0.16 0.577-0.288 1.635-0.208 4.488 0.369 3.654 0.737 5.77 1.298 7.661 2.019 0.721 0.272 0.353 0.353-0.417 0.080-0.978-0.353-4.824-1.362-5.113-1.346-0.128 0 0.561 0.224 1.523 0.481 2.42 0.641 4.391 1.314 4.055 1.394-0.16 0.032-0.817-0.128-1.458-0.353-1.090-0.369-5.577-1.539-5.946-1.539-0.433 0 0.288 0.224 3.013 0.946 1.651 0.433 3.061 0.833 3.109 0.898 0.096 0.096-0.433 0.080-2.773-0.144-0.433-0.032-1.362-0.256-2.051-0.465-1.843-0.609-2.933-0.801-3.863-0.689-0.962 0.128-1.587-0.064-2.244-0.673-0.385-0.369-0.417-0.369-0.24-0.080 0.112 0.192 0.369 0.433 0.577 0.545s0.337 0.224 0.305 0.256c-0.128 0.144-1.058-0.449-1.234-0.769-0.24-0.465-0.048-1.090 0.385-1.266 0.593-0.24 0.689-0.176 0.272 0.176zM14.49 13.094c0.497 0.256 1.010 0.481 1.138 0.481s0.224 0.064 0.224 0.144c0 0.337-1.843 0.064-2.725-0.385-0.561-0.305-0.785-0.481-0.609-0.529 0.144-0.032 0.657 0.176 1.122 0.433 0.481 0.272 0.978 0.497 1.106 0.497s-0.064-0.144-0.417-0.305c-0.353-0.16-0.785-0.417-0.962-0.561-0.561-0.433 0.112-0.305 1.122 0.224zM19.988 14.681c0.337 0.176 1.266 0.401 2.051 0.497s1.939 0.321 2.58 0.481c1.651 0.449 6.571 2.34 7.42 2.853 0.817 0.497 1.41 1.41 1.218 1.891-0.096 0.256-0.16 0.192-0.337-0.337-0.272-0.753-0.769-1.202-2.116-1.859-1.138-0.545-4.071-1.635-4.167-1.539-0.032 0.032 0.513 0.273 1.186 0.513 1.747 0.625 3.494 1.474 4.087 1.971 0.545 0.465 0.978 1.33 0.833 1.683-0.096 0.272-1.491 0.753-2.164 0.753-0.433 0-0.449-0.016-0.272-0.401 0.272-0.609-0.144-0.962-1.074-0.914-0.962 0.032-1.362 0.272-1.362 0.769 0 0.513-0.256 0.369-0.401-0.208-0.128-0.577-0.881-1.859-0.994-1.747-0.064 0.048 0.016 0.224 0.176 0.401 0.369 0.417 0.609 1.282 0.417 1.603-0.112 0.192-0.144 0.128-0.16-0.288 0-1.378-1.426-2.468-5.385-4.119-0.785-0.337-2.356-0.914-3.51-1.298-1.811-0.609-1.971-0.689-1.202-0.609 1.090 0.128 2.324 0.529 4.536 1.523 0.946 0.417 1.715 0.737 1.715 0.705 0-0.128-2.58-1.33-4.279-2.003-0.994-0.385-1.811-0.737-1.811-0.785s0.417-0.305 0.93-0.577l0.914-0.481 0.272 0.593c0.176 0.401 0.481 0.705 0.898 0.93zM16.83 15.434c0.481 0.144 1.026 0.353 1.234 0.481 0.401 0.256 0.465 0.833 0.112 0.962-0.128 0.064-0.208 0.144-0.16 0.208 0.096 0.176-0.673 0.112-0.833-0.048-0.080-0.080-0.032-0.096 0.096-0.016 0.16 0.080 0.192 0.064 0.112-0.064-0.064-0.096-0.176-0.144-0.256-0.096s-0.256-0.080-0.385-0.272c-0.144-0.192-0.256-0.272-0.256-0.16s-0.064 0.16-0.16 0.112c-0.096-0.048-0.112 0.016-0.048 0.16 0.064 0.192 0.128 0.208 0.208 0.064 0.096-0.128 0.176-0.096 0.305 0.144 0.288 0.545-0.080 0.561-0.529 0.016-0.513-0.593-0.561-0.369-0.064 0.272l0.353 0.465-0.353-0.305c-0.369-0.32-0.481-0.16-0.144 0.224 0.096 0.128 0.032 0.096-0.16-0.064-0.369-0.305-0.529-0.689-0.208-0.497 0.096 0.048 0.112-0.016 0.048-0.16-0.080-0.208-0.112-0.224-0.224-0.048s-0.144 0.16-0.144-0.016c0-0.128-0.048-0.192-0.096-0.128-0.064 0.048 0.048 0.369 0.256 0.689 0.24 0.433 0.272 0.545 0.080 0.385-0.433-0.353-0.721-1.058-0.721-1.731 0-0.337 0.048-0.673 0.112-0.721 0.176-0.192 0.914-0.128 1.827 0.144zM23.385 17.982c0.625 0.305 1.122 0.625 1.122 0.705 0 0.096 0.128 0.192 0.305 0.256 0.609 0.192 1.571 1.378 1.378 1.683-0.064 0.096-0.208 0.16-0.337 0.16s-0.208 0.064-0.16 0.144-0.096 0.208-0.353 0.305c-0.24 0.080-0.898 0.609-1.474 1.17s-1.282 1.106-1.555 1.218c-0.721 0.256-0.657 0.128 0.112-0.273 0.865-0.449 0.817-0.545-0.096-0.144-0.401 0.176-0.833 0.288-0.962 0.24-0.385-0.144-0.112-0.385 0.609-0.497 0.497-0.096 0.897-0.337 1.699-1.090 0.577-0.529 0.93-0.914 0.785-0.865-0.481 0.176-0.288-0.032 0.337-0.369 0.417-0.224 0.481-0.305 0.192-0.224-0.224 0.048-0.577 0.224-0.801 0.401s-0.673 0.449-0.994 0.593c-0.625 0.272-0.785 0.513-0.385 0.513 0.128 0 0.465-0.192 0.737-0.417 0.272-0.24 0.529-0.385 0.577-0.337 0.144 0.144-1.25 1.218-1.715 1.314-0.721 0.16-1.058-0.016-1.042-0.545 0.016-0.433 0.064-0.465 0.833-0.529 0.577-0.048 1.090-0.24 1.763-0.657 0.513-0.32 0.865-0.593 0.769-0.593-0.369 0-1.186 0.353-1.186 0.513 0 0.096-0.112 0.112-0.256 0.064-0.128-0.048-0.192-0.032-0.144 0.064 0.112 0.176-0.545 0.369-1.058 0.288-0.465-0.064-0.577-0.417-0.192-0.561 0.16-0.048 0.337-0.176 0.401-0.272s0.529-0.208 1.042-0.272l0.93-0.096-0.769-0.032c-0.753-0.016-0.946-0.321-0.224-0.353 0.192 0 0.256-0.048 0.16-0.096-0.305-0.112-0.256-0.369 0.080-0.369 0.24-0.016 0.224-0.032-0.048-0.192-0.176-0.096-0.465-0.305-0.641-0.465-0.176-0.176-0.497-0.449-0.721-0.625-0.673-0.529 0.016-0.401 1.282 0.24zM29.796 20.627c0 0.080-0.096 0.16-0.192 0.16-0.16 0-0.144 0.048 0.016 0.144 0.112 0.080 0.16 0.224 0.096 0.32-0.064 0.112 0.273 0.689 0.785 1.346 0.978 1.282 1.635 2.596 1.763 3.558 0.096 0.625 0.096 0.609-0.208-0.192-0.433-1.17-1.218-2.58-1.795-3.253-0.401-0.465-0.385-0.401 0.144 0.401 0.673 1.026 1.058 1.747 1.314 2.404 0.272 0.705 0.048 0.433-0.609-0.769-0.353-0.625-0.833-1.33-1.058-1.539l-0.417-0.385v0.417c0 0.272 0.064 0.401 0.208 0.353 0.096-0.048 0.272 0.048 0.385 0.224 0.176 0.288 0.144 0.32-0.321 0.433-0.288 0.064-0.705 0.096-0.946 0.080s-0.641 0.096-0.881 0.272c-0.256 0.176-0.705 0.369-1.010 0.433-0.305 0.048-0.705 0.144-0.881 0.192-0.288 0.080-0.288 0.064-0.096-0.176 0.128-0.144 0.32-0.24 0.449-0.192 0.112 0.048 0.465-0.176 0.785-0.513 0.385-0.401 0.545-0.497 0.465-0.272-0.064 0.208 0.16 0.064 0.641-0.401 0.401-0.401 0.689-0.593 0.625-0.449-0.144 0.417 0.016 0.353 0.337-0.128 0.256-0.401 0.256-0.417-0.465-1.186-0.785-0.833-0.914-1.218-0.449-1.33 0.529-0.144 1.314-0.112 1.314 0.048zM26.751 21.412c0 0.449-0.337 0.978-0.641 0.978-0.176 0-0.32-0.080-0.32-0.176 0-0.128-0.080-0.128-0.24 0.016-0.256 0.208-0.721 0.112-0.721-0.16 0-0.256 0.994-0.801 1.491-0.801 0.24 0 0.433 0.064 0.433 0.144zM28.065 21.732c0.064 0.048-0.064 0.385-0.272 0.737-0.369 0.609-0.401 0.625-0.497 0.272-0.096-0.337-0.144-0.304-0.577 0.433-0.465 0.817-0.689 0.994-0.817 0.609-0.032-0.096-0.288 0.24-0.577 0.769s-0.481 0.785-0.433 0.561c0.080-0.385 0.080-0.385-0.288 0.080-0.577 0.705-0.673 0.385-0.16-0.513 0.609-1.042 1.026-1.571 1.25-1.571 0.288 0 0.914-0.689 1.090-1.218 0.144-0.433 0.208-0.465 0.673-0.369 0.272 0.048 0.545 0.144 0.609 0.208zM24.828 22.358c0 0.064-0.192 0.337-0.433 0.609-0.256 0.256-0.401 0.401-0.32 0.321 0.064-0.096 0.112-0.272 0.112-0.417 0-0.272 0.288-0.641 0.513-0.641 0.064 0 0.128 0.064 0.128 0.128zM31.575 23.399c-0.128 0.128-0.176 0.112-0.176-0.064 0-0.32 0.208-0.545 0.288-0.305 0.048 0.112-0.016 0.272-0.112 0.369zM32.216 23.656c-0.256 0.465-0.208 0.609 0.064 0.24 0.272-0.353 0.321-0.192 0.064 0.272-0.16 0.32-0.176 0.32-0.385 0.032-0.176-0.24-0.176-0.353 0.048-0.737 0.288-0.497 0.481-0.32 0.208 0.192zM11.285 24.794c5.69 1.667 12.052 1.699 17.597 0.080 0.769-0.224 1.458-0.401 1.539-0.401 0.128 0 1.619 3.911 1.619 4.263 0 0.176-2.548 0.978-4.199 1.346-4.471 0.962-9.792 1.026-14.312 0.144-2.356-0.449-5.225-1.282-5.177-1.491 0.272-1.010 1.523-4.263 1.651-4.263 0.096 0 0.673 0.144 1.282 0.32zM9.089 25.595c0.048 0.144-0.032 0.176-0.304 0.096-1.234-0.337-1.122-0.449-1.010 1.042l0.080 1.346-1.058 0.721c-0.593 0.385-1.106 0.769-1.138 0.833-0.144 0.224 2.869 1.571 3.077 1.362 0.032-0.032-0.080-0.417-0.256-0.833-0.337-0.801-0.369-1.122-0.080-0.914 0.176 0.112 1.042 2.019 1.042 2.276 0 0.16-1.010-0.064-2.116-0.481-0.93-0.353-2.372-1.202-2.372-1.394 0-0.080 0.545-0.481 1.202-0.913l1.202-0.769v-3.157l0.833 0.288c0.449 0.16 0.865 0.369 0.897 0.497zM22.696 25.274c-0.096 0.256-0.24 0.481-0.305 0.481-0.192 0-0.144-0.561 0.064-0.769 0.337-0.337 0.433-0.208 0.24 0.288zM34.364 28.72c0.657 0.449 1.202 0.849 1.202 0.93 0 0.192-1.426 1.042-2.372 1.394-1.042 0.401-2.116 0.641-2.116 0.497 0-0.272 0.962-2.34 1.106-2.388 0.256-0.080 0.224 0.16-0.144 1.026-0.176 0.417-0.288 0.785-0.256 0.817 0.192 0.192 3.141-1.090 3.141-1.362 0-0.064-0.513-0.433-1.138-0.833l-1.138-0.721 0.112-1.298c0.096-1.266 0.080-1.314-0.272-1.41-0.369-0.112-0.353-0.128 0.112-0.337l0.481-0.208 0.096 3.109 1.186 0.785zM21.622 25.595c0 0.080-0.112 0.16-0.24 0.16s-0.24-0.080-0.24-0.16c0-0.096 0.112-0.16 0.24-0.16s0.24 0.064 0.24 0.16z"></path>
<path d="M25.549 14.296c0.369 0.176 3.366 1.010 3.414 0.962 0.080-0.080-2.292-0.817-3.013-0.946-0.305-0.048-0.481-0.064-0.401-0.016z"></path>
<path d="M17.6 16.684c0.096 0.112 0.112 0.256 0.048 0.337-0.064 0.064 0.048 0.032 0.24-0.096 0.401-0.24 0.385-0.288-0.112-0.385-0.272-0.048-0.305-0.016-0.176 0.144z"></path>
<path d="M9.554 26.508c-0.304 0.865-0.609 1.683-0.673 1.827-0.112 0.288 0.849 0.641 3.478 1.25 3.286 0.769 8.671 1.058 11.988 0.657 2.276-0.288 6.443-1.218 7.036-1.587 0.16-0.112 0.080-0.481-0.385-1.795-0.321-0.913-0.641-1.715-0.705-1.795-0.064-0.064-0.946 0.096-1.955 0.369-2.949 0.769-4.856 1.010-8.158 1.010-3.221 0-5.802-0.337-8.446-1.106-0.737-0.208-1.394-0.385-1.475-0.385s-0.401 0.705-0.705 1.555zM12.743 26.236c0.256 0.112 0.353 0.224 0.273 0.417-0.064 0.192-0.224 0.224-0.625 0.144-0.417-0.064-0.545-0.032-0.545 0.144 0 0.128 0.16 0.256 0.369 0.288 0.224 0.032 0.353 0.16 0.353 0.369 0 0.256-0.096 0.305-0.513 0.272-0.449-0.048-0.513 0-0.609 0.449s-0.16 0.497-0.529 0.401c-0.24-0.064-0.465-0.128-0.497-0.16-0.016-0.032 0.144-0.641 0.385-1.362l0.433-1.314 0.561 0.112c0.304 0.048 0.737 0.16 0.946 0.24zM29.251 26.14c0.305 0.24 0.305 0.24 0 0.465-0.208 0.144-0.529 0.208-0.93 0.144-0.529-0.064-0.625-0.032-0.737 0.304-0.192 0.529-0.048 0.946 0.385 1.138 0.417 0.192 1.186-0.032 1.186-0.353 0-0.096-0.16-0.128-0.401-0.064-0.321 0.080-0.401 0.032-0.401-0.208 0-0.401 1.41-0.833 1.635-0.497 0.176 0.288 0.16 0.529-0.064 1.010-0.417 0.93-2.212 1.218-2.933 0.481-0.449-0.433-0.545-1.41-0.176-1.875 0.529-0.705 1.827-0.994 2.436-0.545zM14.362 26.605c0.016 0.016-0.128 0.657-0.289 1.426-0.305 1.33-0.337 1.378-0.705 1.266-0.224-0.048-0.417-0.128-0.433-0.176s0.096-0.673 0.273-1.41c0.288-1.298 0.305-1.33 0.705-1.234 0.224 0.064 0.433 0.112 0.449 0.128zM25.886 26.989c0.048 0.256 0.192 0.833 0.32 1.314 0.112 0.481 0.176 0.93 0.128 1.010-0.144 0.24-0.946 0.128-1.346-0.208-0.224-0.176-0.609-0.465-0.865-0.657l-0.449-0.337 0.112 0.833 0.112 0.817h-0.481c-0.481 0-0.481-0.016-0.593-1.090-0.176-1.779-0.192-1.715 0.208-1.763 0.24-0.032 0.625 0.16 1.122 0.545 0.417 0.337 0.833 0.657 0.946 0.737 0.128 0.112 0.144-0.032 0.032-0.529-0.192-0.817-0.096-1.106 0.32-1.106 0.224 0 0.369 0.144 0.433 0.433zM16.862 27.021c0.256 0.256-0.176 0.689-0.513 0.497-0.144-0.080-0.369-0.080-0.481 0-0.16 0.096-0.080 0.208 0.321 0.401 0.305 0.16 0.593 0.369 0.657 0.465 0.256 0.369 0.112 0.898-0.272 1.154-0.737 0.481-2.58-0.032-1.955-0.561 0.192-0.144 0.337-0.144 0.657 0 0.337 0.16 0.465 0.16 0.625-0.016 0.112-0.112 0.128-0.224 0.032-0.256-0.529-0.208-1.202-0.737-1.202-0.946 0-0.144 0.192-0.433 0.417-0.673 0.337-0.337 0.513-0.385 0.978-0.32 0.32 0.064 0.657 0.176 0.737 0.256zM18.529 27.598l-0.096 0.561h0.641c0.609 0 0.625-0.016 0.625-0.561 0-0.497 0.048-0.561 0.401-0.561s0.401 0.064 0.401 0.593c0 0.337 0.048 0.994 0.096 1.442l0.112 0.849h-0.513c-0.465 0-0.497-0.032-0.497-0.561 0-0.545-0.016-0.561-0.641-0.561s-0.641 0.016-0.641 0.561c0 0.529-0.032 0.561-0.497 0.561h-0.513l0.112-0.978c0.048-0.545 0.096-1.202 0.096-1.442 0-0.417 0.064-0.465 0.497-0.465 0.497 0 0.497 0.016 0.417 0.561zM22.007 27.23c0.048 0.112 0.112 0.769 0.16 1.442l0.096 1.25h-0.465c-0.433 0-0.449-0.016-0.545-1.090-0.176-1.747-0.16-1.795 0.288-1.795 0.224 0 0.433 0.096 0.465 0.192z"></path>
<path d="M3.464 3.398c-0.064 0.128-0.433 0.321-0.849 0.433-0.769 0.208-1.154 0.705-0.946 1.218 0.080 0.208 0.128 0.192 0.304-0.048 0.144-0.208 0.353-0.256 0.705-0.208 0.288 0.032 0.513 0.016 0.513-0.048s0.128-0.16 0.288-0.192c0.144-0.048-0.128-0.080-0.609-0.096l-0.881-0.032 0.641-0.321c0.705-0.353 1.154-0.737 1.010-0.865-0.048-0.048-0.128 0.016-0.176 0.16z"></path>
<path d="M0.146 5.545c-0.080 0.176-0.16 0.481-0.144 0.689 0.016 0.288 0.048 0.272 0.128-0.128 0.064-0.272 0.176-0.577 0.24-0.673 0.064-0.112 0.080-0.192 0.032-0.192s-0.16 0.144-0.256 0.304z"></path>
<path d="M0.146 6.811c0 0.304 1.33 1.667 1.955 2.003 0.513 0.272 0.513 0.272 0.128 0-0.801-0.577-1.507-1.266-1.795-1.731-0.16-0.256-0.288-0.385-0.288-0.272z"></path>
<path d="M2.118 12.132c-0.272 0.16-0.593 0.449-0.689 0.641-0.433 0.801-0.080 2.212 0.609 2.484 0.176 0.064 0.144-0.032-0.112-0.304-0.224-0.24-0.304-0.417-0.208-0.417 0.112 0 0.192-0.064 0.192-0.16 0-0.080-0.112-0.112-0.24-0.064-0.176 0.080-0.24-0.016-0.24-0.353 0-0.353 0.048-0.401 0.192-0.256 0.288 0.289 0.401 0.24 0.593-0.288 0.080-0.272 0.24-0.481 0.337-0.481 0.112 0 0.080 0.144-0.064 0.353-0.321 0.449-0.321 0.625-0.016 0.513 0.128-0.064 0.24-0.224 0.24-0.385 0-0.224 0.096-0.289 0.449-0.256 0.288 0.048 0.417 0.144 0.385 0.321-0.032 0.144 0.032 0.256 0.128 0.256 0.080 0 0.16 0.064 0.16 0.16 0 0.080-0.112 0.16-0.24 0.16s-0.24 0.064-0.24 0.16c0 0.24-0.304 0.192-0.593-0.080-0.304-0.321-0.481-0.176-0.208 0.16 0.112 0.128 0.385 0.256 0.625 0.256 0.369 0.032 0.385 0.032 0.048 0.096-0.192 0.032-0.321 0.144-0.272 0.224 0.064 0.080 0.224 0.080 0.417-0.016 0.176-0.096 0.272-0.24 0.224-0.304-0.032-0.080 0.032-0.224 0.16-0.337s0.24-0.32 0.24-0.465c0-0.144 0.192-0.369 0.417-0.513l0.417-0.256-0.385-0.385c-0.192-0.224-0.272-0.288-0.16-0.128 0.385 0.497-0.224 1.17-0.609 0.689-0.112-0.128-0.385-0.224-0.625-0.24-0.353-0.016-0.369-0.032-0.096-0.112 0.176-0.064 0.321-0.256 0.321-0.433 0-0.224 0.096-0.305 0.321-0.272 0.256 0.032 0.272 0.016 0.080-0.112-0.369-0.256-0.994-0.208-1.555 0.144zM3.095 12.261c-0.128 0.449-1.507 1.122-1.507 0.705 0.016-0.288 0.304-0.545 0.481-0.433 0.128 0.080 0.176 0.064 0.096-0.048-0.112-0.192 0.321-0.497 0.737-0.513 0.176 0 0.24 0.096 0.192 0.288z"></path>
<path d="M4.041 14.056c-0.16 0.433-0.16 0.465 0.112 0.321 0.433-0.24 0.513-0.192 0.401 0.176l-0.112 0.337 0.337-0.337c0.321-0.321 0.304-0.914 0-0.721-0.096 0.048-0.256 0.016-0.353-0.080-0.16-0.112-0.256-0.048-0.385 0.304z"></path>
<path d="M2.069 14.088c0 0.144 0.112 0.337 0.24 0.449 0.144 0.128 0.208 0.337 0.144 0.577-0.048 0.208-0.032 0.385 0.064 0.385 0.272 0 0.16-0.865-0.144-1.266-0.208-0.256-0.304-0.305-0.304-0.144z"></path>
<path d="M36.944 16.652c0.304 0.288 0.657 0.817 0.785 1.17s0.224 0.513 0.24 0.353c0-0.16-0.080-0.449-0.176-0.641-0.224-0.433-1.122-1.394-1.298-1.394-0.064 0 0.128 0.24 0.449 0.513z"></path>
<path d="M3.8 17.566c-1.33 1.474-1.651 3.862-0.689 5.064 0.208 0.272 0.208 0.224-0.016-0.224-0.705-1.474-0.304-3.574 0.946-4.936 0.353-0.385 0.593-0.689 0.545-0.689s-0.401 0.353-0.785 0.785z"></path>
<path d="M5.355 18.784c0.16 1.298 0.801 3.462 1.298 4.375 0.224 0.417 0.353 0.609 0.288 0.433s-0.321-0.881-0.577-1.587c-0.24-0.689-0.561-1.875-0.689-2.628-0.288-1.603-0.497-1.987-0.321-0.593z"></path>
<path d="M5.804 18.784c0 0.353 0.032 0.481 0.064 0.272 0.032-0.192 0.032-0.481 0-0.641-0.048-0.144-0.080 0.016-0.064 0.369z"></path>
<path d="M35.421 19.857c-0.016 0.353 0.176 0.465 0.465 0.272 0.208-0.112 0.192-0.144-0.032-0.144-0.144 0-0.304-0.096-0.337-0.208-0.048-0.112-0.096-0.096-0.096 0.080z"></path>
<path d="M17.584 20.771c-0.16 0.256-0.24 0.288-0.449 0.128-0.208-0.176-0.208-0.16-0.016 0.096 0.224 0.288 0.24 0.288 0.497-0.064 0.176-0.224 0.353-0.305 0.481-0.224 0.144 0.080 0.176 0.064 0.096-0.048-0.176-0.272-0.385-0.24-0.609 0.112z"></path>
<path d="M20.196 21.14c0 0.208 0.048 0.272 0.096 0.16 0.032-0.096 0.144-0.16 0.224-0.096 0.080 0.048 0.144-0.032 0.144-0.16 0-0.144-0.112-0.256-0.24-0.256-0.144 0-0.24 0.144-0.224 0.353z"></path>
<path d="M18.737 21.316c0 0.224 0.497 0.753 0.689 0.753 0.064 0 0.112-0.080 0.112-0.16 0-0.096-0.112-0.16-0.24-0.16s-0.24-0.144-0.24-0.321c0-0.176-0.064-0.32-0.16-0.32-0.080 0-0.16 0.096-0.16 0.208z"></path>
<path d="M14.33 21.909c-0.16 0.176-0.369 0.272-0.465 0.208-0.096-0.048-0.080 0 0.032 0.128 0.176 0.192 0.256 0.176 0.449-0.096 0.144-0.176 0.32-0.305 0.401-0.273 0.096 0.016 0.128-0.032 0.064-0.128-0.128-0.208-0.144-0.208-0.481 0.16z"></path>
<path d="M34.284 22.021c0 0.080 0.256 0.513 0.545 0.994l0.545 0.865 0.273-0.417c0.224-0.337 0.337-0.401 0.561-0.272 0.401 0.224 0.481 0.208 0.385-0.080-0.064-0.128-0.16-0.208-0.224-0.16-0.080 0.048-0.192 0-0.24-0.080-0.064-0.096-0.288-0.24-0.497-0.321s-0.385-0.256-0.385-0.401c0-0.16-0.16-0.24-0.481-0.24-0.256 0-0.481 0.048-0.481 0.112zM35.245 22.662c0.224 0.144 0.417 0.272 0.449 0.288 0.080 0.064-0.16 0.561-0.288 0.561-0.064 0-0.272-0.256-0.465-0.561-0.369-0.625-0.288-0.689 0.304-0.288z"></path>
<path d="M18.593 22.582c-0.016 0.16-0.128 0.288-0.272 0.288-0.128 0-0.192 0.080-0.128 0.176 0.144 0.24 0.609-0.24 0.497-0.529-0.064-0.144-0.096-0.112-0.096 0.064z"></path>
<path d="M15.26 22.967c-0.192 0.208-0.529 0.385-0.737 0.385-0.224 0-0.497 0.128-0.609 0.272-0.208 0.256-0.192 0.272 0.048 0.064 0.16-0.112 0.385-0.176 0.529-0.128 0.128 0.064 0.272 0.032 0.321-0.032 0.048-0.080 0.224-0.112 0.401-0.064s0.32 0.016 0.32-0.080c0-0.096 0.128-0.208 0.288-0.24 0.256-0.064 0.256-0.080 0-0.096-0.176-0.016-0.24-0.096-0.192-0.256 0.128-0.32 0.048-0.288-0.369 0.176z"></path>
<path d="M3.672 23.415c0.224 0.256 0.577 0.641 0.801 0.833 0.449 0.401 1.603 1.090 1.603 0.962 0-0.048-0.224-0.208-0.513-0.353-0.272-0.144-0.914-0.641-1.394-1.090-0.497-0.449-0.721-0.609-0.497-0.353z"></path>
</symbol>
<symbol id="gone-fishing" viewBox="0 0 43 32">
<path d="M24.99 0.088c-0.531 0.092-0.183 0.128 1.191 0.128 1.062 0 2.253 0.11 2.674 0.22 1.575 0.458 2.674 1.593 2.912 2.985 0.073 0.403 0.165 0.696 0.22 0.641 0.22-0.22-0.366-1.941-0.861-2.528-0.824-0.989-1.96-1.447-3.828-1.52-0.861-0.037-1.905 0-2.308 0.073z"></path>
<path d="M17.481 1.938c-0.055 0.092-0.843 0.549-1.74 1.007-0.879 0.476-2.216 1.355-2.967 1.996-1.264 1.081-1.41 1.154-2.509 1.264-1.337 0.147-2.967 0.824-3.755 1.557-0.513 0.495-1.026 1.447-1.026 1.905 0.018 0.128 0.146-0.055 0.293-0.403 0.55-1.264 1.795-2.235 3.425-2.674 0.952-0.256 1.96-0.33 1.96-0.165 0 0.055-0.293 0.458-0.641 0.934-0.348 0.458-0.989 1.41-1.392 2.106-0.751 1.245-0.769 1.264-1.996 1.63-0.678 0.201-1.282 0.366-1.355 0.366-0.092 0-0.604 0.311-1.172 0.696-0.586 0.403-1.538 0.989-2.125 1.337s-1.374 0.897-1.722 1.227l-0.659 0.604 0.769 0.769 0.751 0.769h-0.586c-0.549 0-0.586 0.055-0.641 0.659-0.037 0.531 0.037 0.714 0.385 0.952 0.256 0.165 0.623 0.586 0.842 0.934 0.275 0.421 0.751 0.806 1.447 1.154 0.568 0.275 1.429 0.733 1.886 1.007 1.007 0.604 2.143 0.788 3.26 0.531 0.696-0.147 0.861-0.128 1.062 0.128 0.348 0.476 0.293 0.806-0.11 0.678-0.201-0.055-0.403-0.018-0.476 0.092-0.055 0.092-0.33 0.183-0.568 0.183-0.348 0-0.531 0.147-0.678 0.549-0.11 0.293-0.275 0.549-0.33 0.549-0.22 0-0.073 0.458 0.293 0.952 0.385 0.458 1.3 0.769 1.484 0.495 0.055-0.092-0.073-0.165-0.256-0.165-0.201 0-0.476-0.147-0.604-0.33-0.201-0.256-0.201-0.275 0.018-0.092 0.403 0.366 0.879 0.275 1.374-0.22 0.568-0.549 0.604-0.366 0.055 0.22-0.348 0.385-0.366 0.458-0.128 0.916 0.403 0.824 0.403 0.843 0.147 0.696-0.147-0.092-0.201-0.092-0.128-0.018 0.055 0.073 0.568 0.183 1.136 0.22 0.861 0.055 1.044 0.018 1.209-0.275 0.092-0.201 0.128-0.495 0.073-0.641-0.055-0.165-0.018-0.293 0.092-0.293s0.293 0.201 0.385 0.458c0.092 0.238 0.458 0.604 0.806 0.769 0.33 0.183 1.136 0.696 1.758 1.136s1.941 1.154 2.912 1.612c0.971 0.44 1.923 0.897 2.106 1.007 0.586 0.311 2.729 0.879 3.352 0.879 0.421 0 0.659-0.11 0.806-0.403 0.311-0.568-0.073-0.769-2.143-1.154-1.374-0.275-1.777-0.293-1.96-0.11-0.165 0.183-0.11 0.201 0.293 0.11 0.513-0.128 0.604 0 0.311 0.458-0.128 0.183-0.238 0.201-0.311 0.073-0.092-0.092-0.44-0.293-0.788-0.44-1.282-0.495-3.773-1.85-4.725-2.564-0.531-0.403-1.117-0.733-1.3-0.733s-0.458-0.147-0.641-0.33c-0.275-0.33-0.275-0.366 0.037-0.659 0.513-0.458 1.099-0.073 1.227 0.806 0.037 0.311 0.348 0.568 0.586 0.476 0.165-0.073 0.201-0.037 0.128 0.11-0.073 0.128-0.055 0.147 0.092 0.073 0.128-0.073 0.183-0.037 0.165 0.092-0.037 0.11 0.055 0.256 0.201 0.311 0.165 0.055 0.201 0 0.11-0.165-0.092-0.147-0.073-0.201 0.018-0.11s0.165 0.256 0.165 0.348c0 0.11 0.11 0.238 0.256 0.293 0.165 0.055 0.201 0 0.11-0.165-0.092-0.147-0.073-0.201 0.018-0.11s0.165 0.256 0.165 0.348c0 0.11 0.11 0.238 0.256 0.293s0.201 0 0.128-0.128c-0.092-0.128-0.018-0.165 0.165-0.073 0.256 0.092 0.256 0.146 0.055 0.275-0.183 0.128-0.147 0.147 0.092 0.073 0.22-0.073 0.293-0.037 0.201 0.11s-0.037 0.165 0.183 0.092c0.201-0.092 0.275-0.055 0.183 0.092s-0.037 0.165 0.183 0.092c0.201-0.092 0.275-0.055 0.183 0.092s-0.037 0.165 0.183 0.092c0.201-0.092 0.275-0.055 0.183 0.092s-0.037 0.165 0.183 0.092c0.183-0.073 0.275-0.055 0.201 0.055-0.128 0.201 0.147 0.256 0.33 0.055 0.073-0.055-0.494-0.458-1.245-0.861-1.777-0.971-3.278-2.070-3.498-2.564-0.092-0.201-0.385-0.494-0.659-0.623-0.293-0.128-0.513-0.348-0.513-0.458 0-0.128-0.256-0.513-0.586-0.861-0.568-0.623-1.685-2.381-1.575-2.473 0.037-0.037 0.348-0.128 0.714-0.238 0.641-0.165 0.733-0.128 1.923 0.806 1.282 1.007 3.187 1.905 4.011 1.905 0.366 0 0.458-0.092 0.458-0.458 0-0.256-0.128-0.769-0.275-1.117-0.293-0.696-0.238-1.026 0.165-0.879 0.495 0.183 4.469-1.062 6.484-2.033 1.154-0.549 2.235-1.007 2.418-1.007s0.696 0.147 1.136 0.348c1.154 0.494 2.674 0.788 3.626 0.714l0.824-0.055-1.319-0.897c-0.733-0.495-1.282-0.971-1.227-1.062 0.055-0.073 0.531-0.385 1.044-0.659 1.282-0.659 1.3-0.678 1.136-0.385-0.073 0.147 0.037 0.073 0.275-0.165 0.22-0.238 0.531-0.385 0.659-0.33 0.147 0.055 0.311-0.018 0.366-0.165 0.073-0.147 0.256-0.275 0.421-0.275s0.494-0.22 0.733-0.476c0.33-0.348 0.476-0.403 0.586-0.22 0.128 0.183 0.165 0.183 0.165-0.037 0-0.403 1.832-1.465 2.473-1.465 0.421 0 0.678 0.183 1.099 0.751 1.117 1.52 3.883 3.828 4.579 3.828 0.311 0-0.055-0.733-1.264-2.528-1.429-2.125-1.758-2.912-1.758-4.213 0-1.007 0.678-4.048 1.026-4.561 0.311-0.495 0.33-0.604 0.018-0.604-0.293 0-1.062 0.806-1.484 1.557-0.311 0.549-0.311 0.549 0.018 0.11 0.678-0.934 1.026-1.245 0.604-0.568-0.568 0.916-1.392 2.711-1.667 3.645-0.202 0.714-0.202 0.824 0.073 1.026s0.275 0.238-0.11 0.421c-0.366 0.183-0.366 0.201 0.22 0.201 0.513 0.018 0.586 0.055 0.385 0.293-0.385 0.458-0.073 1.044 1.575 2.912l1.593 1.813-1.062-0.806c-0.568-0.44-1.52-1.41-2.106-2.198-0.659-0.842-1.3-1.483-1.648-1.63l-0.568-0.238 0.44-0.476c0.385-0.421 1.227-2.051 1.227-2.381 0-0.055-0.311 0.458-0.696 1.172-0.568 1.044-0.788 1.3-1.209 1.337-0.275 0.037-0.641-0.055-0.806-0.183-0.202-0.165-0.256-0.165-0.147-0.018 0.092 0.183-0.055 0.22-0.604 0.201-0.659-0.018-0.714-0.055-0.513-0.311 0.183-0.256 0.183-0.256-0.073-0.055-0.201 0.147-0.549 0.183-1.007 0.11-0.403-0.055-0.806-0.128-0.934-0.146s-0.293-0.11-0.366-0.201c-0.073-0.073-0.037-0.092 0.092-0.018 0.11 0.073 0.22 0.037 0.22-0.055 0-0.256-0.311-0.256-0.458-0.018-0.073 0.128-0.238 0.128-0.476 0-0.256-0.147-0.348-0.128-0.348 0.037s-0.055 0.165-0.147 0.037c-0.183-0.275-1.355-0.824-1.191-0.568 0.055 0.128-0.055 0.073-0.275-0.128-0.22-0.183-0.513-0.293-0.678-0.238-0.275 0.11-2.473-0.586-2.473-0.769 0.018-0.073 0.549-0.531 1.191-1.026 1.722-1.355 1.447-1.557-1.099-0.788-0.696 0.22-1.612 0.385-2.015 0.385l-0.733-0.018 0.641 0.11 0.641 0.128-0.769 0.348c-0.733 0.311-0.879 0.33-2.363 0.092-1.539-0.238-2.125-0.568-1.41-0.788 0.183-0.055 0.11-0.073-0.183-0.037-0.275 0.037-0.549 0-0.586-0.073-0.055-0.073-0.403-0.201-0.769-0.275-0.806-0.147-1.337-0.549-1.337-1.026 0-0.183-0.092-0.385-0.183-0.44-0.11-0.073-0.147-0.275-0.092-0.476 0.073-0.201 0.037-0.348-0.092-0.348s-0.165-0.147-0.092-0.366c0.183-0.586-0.11-0.44-1.117 0.568-0.916 0.916-0.971 0.934-1.557 0.733-0.311-0.11-0.714-0.202-0.879-0.183-0.165 0 0.092 0.128 0.568 0.275l0.861 0.256-0.678 0.989-0.678 0.971-2.235 0.641c-1.465 0.403-2.253 0.55-2.253 0.421s0.348-0.751 0.751-1.392c1.081-1.648 4.194-4.689 5.623-5.476 1.136-0.623 2.271-1.447 2.015-1.465-0.073 0-0.183 0.073-0.238 0.183zM16.401 6.37c-0.275 0.33-0.843 1.117-1.245 1.74-0.678 1.026-1.062 1.392-1.062 1.044 0-0.33 2.454-3.37 2.711-3.37 0.037 0-0.128 0.275-0.403 0.586zM16.217 7.341c-0.275 0.348-0.531 0.824-0.568 1.044-0.11 0.495-0.366 0.751-0.641 0.659-0.201-0.055 1.337-2.344 1.575-2.344 0.073 0-0.11 0.293-0.366 0.641zM16.584 8.201c-0.348 0.494-0.385 0.769-0.055 0.586 0.165-0.092 0.165-0.073 0.018 0.092-0.128 0.128-0.348 0.201-0.513 0.165-0.238-0.037-0.201-0.165 0.183-0.659 0.531-0.659 0.788-0.806 0.366-0.183zM17.39 8.513c-0.128 0.256-0.11 0.385 0.055 0.44 0.11 0.055 0.037 0.11-0.201 0.11-0.421 0.018-0.421-0.11 0.018-0.678 0.256-0.33 0.348-0.256 0.128 0.128zM18.543 8.714c0.073 0.275 0 0.366-0.256 0.366-0.311 0-0.33-0.055-0.128-0.366 0.128-0.201 0.238-0.366 0.256-0.366s0.073 0.165 0.128 0.366zM27.262 8.549c-0.11 0.073-0.165 0.22-0.092 0.33 0.092 0.128 0.018 0.147-0.183 0.073s-0.275-0.037-0.201 0.073c0.073 0.11-0.092 0.348-0.348 0.513-0.275 0.165-0.421 0.22-0.366 0.11 0.183-0.275-0.128-0.256-0.403 0.018-0.165 0.165-0.22 0.165-0.22-0.018 0-0.128-0.092-0.165-0.22-0.092s-0.147 0.055-0.073-0.073c0.165-0.293-0.128-0.275-0.403 0-0.11 0.11-0.256 0.165-0.33 0.092-0.183-0.183 1.941-1.172 2.528-1.172 0.293 0 0.44 0.073 0.311 0.146zM19.514 8.696c-0.073 0.092 0 0.22 0.11 0.256 0.128 0.055 0.037 0.11-0.201 0.11-0.366 0.018-0.385-0.018-0.201-0.256 0.256-0.293 0.458-0.385 0.293-0.11zM23.452 9.795c2.033 0.366 4.652 1.081 4.506 1.227-0.037 0.055-0.897-0.073-1.886-0.275-3.242-0.659-4.872-0.824-8.132-0.824-3.608 0-5.641 0.293-8.297 1.172-0.879 0.311-1.923 0.55-2.308 0.55-0.495 0-0.989 0.183-1.593 0.604-0.843 0.549-2.637 1.483-2.637 1.355 0-0.037 0.586-0.458 1.282-0.934 0.824-0.568 1.795-1.044 2.711-1.3 0.769-0.238 1.868-0.586 2.436-0.788 1.282-0.458 3.37-0.934 5.037-1.136 1.886-0.238 6.649-0.055 8.883 0.348zM15.283 11.828c0 0.092 2.747 0.165 7.784 0.256 4.616 0.055 5.934 0.147 6.502 0.366 0.403 0.147 1.648 0.366 2.747 0.458l2.015 0.183-2.289-0.092c-6.227-0.201-11.356-0.256-12.18-0.128-0.641 0.11 1.081 0.201 5.769 0.311 3.681 0.073 7.509 0.201 8.517 0.256l1.832 0.128-1.557 0.861c-4.506 2.454-9.579 4.689-13.37 5.879-1.502 0.476-2.106 0.549-4.524 0.623-1.538 0.055-3.077 0.037-3.443-0.018-0.568-0.11-0.623-0.165-0.458-0.476 0.165-0.33 0.403-0.366 1.905-0.366 2.161 0 5.55-0.568 7.766-1.3 0.934-0.311 1.685-0.604 1.648-0.641-0.037-0.018-0.678 0.11-1.429 0.293-2.198 0.568-4.89 0.934-6.905 0.971-2.070 0.018-2.436-0.11-2.070-0.788 0.128-0.238 0.22-0.934 0.201-1.575 0-0.641 0.018-1.172 0.073-1.172s0.861 0.403 1.795 0.879c1.722 0.897 3.553 1.612 3.718 1.465 0.037-0.055-0.201-0.348-0.549-0.659-0.348-0.293-0.604-0.586-0.549-0.641 0.037-0.037-0.256-0.293-0.659-0.568-0.806-0.531-0.897-0.733-0.403-1.007 0.293-0.165 0.293-0.183 0-0.293-0.861-0.33-0.055-0.458 2.93-0.476 1.777-0.018 3.443-0.073 3.7-0.147l0.458-0.147-0.549-0.11c-3.004-0.678-7.656-0.879-8.975-0.385-0.842 0.311-1.74 0.476-1.74 0.311 0-0.073 0.147-0.293 0.311-0.495 0.183-0.22 0.201-0.275 0.055-0.165-0.403 0.366-0.586 0.275-0.348-0.183 0.201-0.348 0.183-0.366-0.055-0.183-0.22 0.201-0.311 0.165-0.513-0.201-0.275-0.55-0.092-0.971 0.293-0.641 0.201 0.165 0.366 0.147 0.733-0.11 0.256-0.165 0.641-0.275 0.824-0.22s0.348 0.018 0.348-0.055c0-0.092 0.147-0.128 0.33-0.092 0.165 0.037 0.311 0.073 0.311 0.092zM8.964 12.615c0.311-0.073 0.348-0.037 0.238 0.238-0.11 0.33-0.11 0.33 0.275 0 0.238-0.201 0.403-0.256 0.403-0.128 0 0.147 0.128 0.128 0.421-0.055 0.22-0.128 0.623-0.293 0.916-0.366 0.385-0.092 0.494-0.055 0.494 0.183 0 0.165 0.238 0.604 0.513 0.971 0.806 1.026 0.806 1.026 0.092 1.978l-0.678 0.879 0.696-0.531c0.824-0.623 1.081-0.476 0.989 0.641-0.037 0.659-0.128 0.806-0.495 0.897l-0.44 0.092 0.476 0.22 0.458 0.22-0.293 0.788c-0.513 1.282-0.751 1.593-1.502 1.978-0.861 0.44-1.429 0.476-1.593 0.073-0.092-0.275-0.128-0.275-0.275 0-0.256 0.44-0.531 0.165-0.403-0.403 0.073-0.403 0.055-0.44-0.11-0.22s-0.183 0.183-0.092-0.165c0.092-0.293 0.073-0.385-0.073-0.311-0.128 0.092-0.147 0.018-0.073-0.183 0.092-0.238 0.183-0.183 0.458 0.311 0.201 0.348 0.311 0.495 0.256 0.33-0.037-0.183 0.165-0.531 0.55-0.879 0.348-0.33 0.623-0.769 0.623-0.989s0.073-0.513 0.165-0.641c0.165-0.275-0.073-1.85-0.348-2.125-0.11-0.11-0.55-0.055-1.191 0.147-0.659 0.22-1.557 0.33-2.619 0.311-1.813-0.018-2.656 0.165-3.26 0.733-0.366 0.33-0.495 0.366-1.026 0.183-0.348-0.11-0.916-0.494-1.264-0.861-0.604-0.641-0.623-0.659-0.256-0.916 0.201-0.165 0.696-0.458 1.081-0.659 0.623-0.311 0.769-0.33 1.154-0.128 0.403 0.22 0.495 0.201 0.696-0.073 0.128-0.165 0.293-0.311 0.366-0.311s0.549-0.293 1.044-0.659c1.099-0.824 1.868-1.007 2.656-0.696 0.311 0.128 0.751 0.183 0.971 0.128zM18.488 14.154c-2.234 0.055-2.509 0.092-2.711 0.421-0.183 0.311-0.183 0.366 0.092 0.385 0.293 0 0.275 0.037-0.037 0.165-0.348 0.147-0.348 0.165 0.018 0.165 0.348 0.018 0.696 0.549 0.641 0.971 0 0.073 0.238 0.275 0.531 0.421 0.659 0.348 0.733 0.513 0.11 0.275-0.897-0.33-3.388-1.648-3.498-1.85-0.183-0.293 0.311-0.733 1.026-0.897 0.348-0.073 1.905-0.128 3.462-0.128l2.839 0.018-2.473 0.055zM7.224 16.407c0.073 0.128 0.238 0.11 0.476-0.018 0.201-0.11 0.531-0.128 0.769-0.037 0.22 0.073 0.696 0.147 1.044 0.147 1.227 0 0.806 1.227-0.513 1.484-0.513 0.11-0.586 0.073-0.586-0.275 0-0.33-0.073-0.366-0.458-0.275-0.275 0.073-0.458 0.037-0.458-0.092 0-0.11-0.238-0.201-0.549-0.201-0.293 0-0.549-0.055-0.549-0.147 0-0.073-0.366-0.128-0.806-0.128s-0.714 0.055-0.604 0.128c0.128 0.073 0.403 0.147 0.641 0.147 0.22 0 0.403 0.092 0.403 0.201 0 0.128 0.22 0.183 0.549 0.128 0.421-0.073 0.549-0.018 0.549 0.22s0.11 0.293 0.421 0.238c0.348-0.073 0.44 0.037 0.623 0.714 0.165 0.586 0.165 0.824 0 0.916-0.366 0.238-0.494 0.165-0.494-0.22 0-0.201-0.128-0.366-0.275-0.366s-0.275-0.165-0.275-0.366c0-0.238-0.128-0.366-0.348-0.366-0.421 0-2.289-1.136-2.344-1.429-0.055-0.201 0.458-0.33 1.777-0.458 0.348-0.037 0.696-0.092 0.769-0.092 0.073-0.018 0.183 0.055 0.238 0.147zM2.774 17.506c0.916 0.092 1.392 0.256 1.886 0.641 0.769 0.568 1.703 1.795 1.868 2.418 0.073 0.33 0.183 0.403 0.403 0.311 0.843-0.348 1.74-0.458 1.868-0.22 0.238 0.385 0.22 0.403-0.733 0.751-1.539 0.531-1.722 0.476-2.491-0.879-0.366-0.659-0.696-1.191-0.733-1.191-0.055 0 0.073 0.421 0.275 0.934l0.366 0.916-0.403-0.128c-1.062-0.311-3.26-1.612-3.26-1.923 0-0.055 0.513-0.22 1.117-0.33 1.538-0.311 1.172-0.659-0.678-0.659-0.971 0-1.41-0.073-1.52-0.256-0.275-0.421-0.018-0.806 0.421-0.659 0.201 0.073 0.934 0.183 1.612 0.275zM29.203 17.689c-0.256 0.275-0.275 0.366-0.073 0.366 0.22 0 0.22 0.037 0 0.165-0.201 0.128-0.128 0.183 0.275 0.238 0.293 0.037 0.495 0.128 0.458 0.238-0.055 0.092 0.146 0.238 0.458 0.293l0.531 0.128-0.549 0.037c-0.458 0.055-0.421 0.073 0.275 0.183 0.769 0.128 0.751 0.128-0.238 0.092-1.062-0.055-2.802-0.733-2.766-1.099 0.018-0.183 1.465-1.007 1.795-1.007 0.092 0 0.018 0.165-0.165 0.366zM10.173 21.169c0.165 0 0.256 0.183 0.238 0.495 0 0.494-0.018 0.494-0.165 0.092-0.11-0.238-0.33-0.403-0.568-0.403-0.348 0-0.366-0.037-0.147-0.293 0.147-0.183 0.275-0.22 0.311-0.092 0.037 0.11 0.183 0.201 0.33 0.201zM16.291 21.553c0 0.11-0.147 0.165-0.33 0.128-0.201-0.055-0.348 0-0.348 0.147 0 0.128 0.073 0.201 0.165 0.147 0.22-0.128 0.879 0.092 0.879 0.311 0 0.11-0.147 0.11-0.366-0.018-0.201-0.11-0.366-0.147-0.366-0.11 0 0.055 0.256 0.238 0.568 0.385 0.311 0.165 0.513 0.348 0.458 0.403s0.037 0.22 0.22 0.348c0.623 0.458 0.037 0.476-0.751 0.018-0.458-0.275-0.879-0.421-0.952-0.348-0.092 0.073-0.092 0.018 0-0.128 0.092-0.165 0.055-0.22-0.11-0.165-0.33 0.128-0.934-0.183-0.806-0.403 0.055-0.092 0-0.22-0.11-0.293-0.147-0.073-0.165-0.055-0.092 0.073 0.238 0.403-0.183 0.22-0.623-0.238l-0.421-0.458h1.484c0.989 0 1.502 0.073 1.502 0.201zM11.419 23.348c0.55 0.769 0.604 0.934 0.366 1.117-0.201 0.183-0.33 0.147-0.586-0.183-0.494-0.604-0.806-0.33-0.458 0.366 0.385 0.788 1.319 1.209 1.044 0.458-0.11-0.275 0.33-0.476 0.659-0.275s0.128 0.421-0.714 0.843c-0.733 0.348-1.007 0.806-0.494 0.806 0.147 0 0.311-0.11 0.348-0.238 0.073-0.165 0.11-0.165 0.11 0.018 0.018 0.256-0.842 0.641-1.099 0.476-0.092-0.055-0.165-0.238-0.165-0.403 0-0.238 0.037-0.238 0.275 0.073 0.256 0.33 0.256 0.33 0.147-0.055-0.073-0.311 0-0.458 0.33-0.604 0.403-0.165 0.385-0.183-0.201-0.128-0.641 0.037-0.641 0.037-0.623-0.696 0-0.403 0.073-0.916 0.147-1.154 0.092-0.256 0.055-0.531-0.092-0.696-0.11-0.147-0.165-0.311-0.11-0.366s0.348 0.275 0.678 0.733c0.311 0.458 0.604 0.843 0.659 0.843s-0.147-0.348-0.44-0.788c-0.751-1.099-0.861-1.3-0.623-1.172 0.092 0.073 0.476 0.531 0.842 1.026zM10.063 23.751c0 0.421-0.183 0.44-0.659 0.055-0.183-0.147-0.256-0.238-0.146-0.183 0.128 0.055 0.275-0.018 0.33-0.183 0.147-0.366 0.476-0.146 0.476 0.311zM9.312 24.264c0.165 0.275 0.11 0.403-0.275 0.659-0.458 0.293-0.495 0.293-0.788 0-0.183-0.201-0.22-0.348-0.092-0.403 0.11-0.037 0.366-0.183 0.549-0.33 0.44-0.33 0.403-0.33 0.604 0.073zM23.782 30.674c0.183 0.128 0.201 0.238 0.037 0.494-0.183 0.33-0.183 0.33-0.201-0.055 0-0.22-0.11-0.44-0.22-0.476-0.128-0.055-0.147-0.11-0.055-0.11 0.11 0 0.293 0.055 0.44 0.147z"></path>
<path d="M25.815 8.897c-0.623 0.348-0.586 0.403 0.183 0.403 0.604 0 0.659-0.018 0.678-0.403 0.037-0.44-0.037-0.44-0.861 0z"></path>
<path d="M5.704 13.678c-0.458 0.33-0.934 0.531-1.136 0.476-0.238-0.055-0.311-0.018-0.238 0.183 0.238 0.623 2.015 0.824 2.473 0.275 0.147-0.165 0.403-0.586 0.568-0.916l0.275-0.586h-0.568c-0.348 0.018-0.916 0.238-1.374 0.568zM6.767 13.714c0 0.385-0.659 0.897-1.044 0.806-0.275-0.073-0.275-0.092 0.055-0.11 0.403-0.018 0.714-0.458 0.513-0.769-0.055-0.092 0.037-0.165 0.183-0.165 0.165 0 0.293 0.11 0.293 0.238z"></path>
<path d="M15.741 15.949c0.256 0.147 0.549 0.256 0.641 0.256 0.11 0-0.018-0.11-0.275-0.256s-0.531-0.256-0.641-0.256c-0.092 0 0.018 0.11 0.275 0.256z"></path>
<path d="M38.91 8.916c-0.165 0.311-0.275 0.604-0.238 0.641 0.055 0.037 0.22-0.22 0.385-0.568 0.385-0.788 0.238-0.861-0.147-0.073z"></path>
<path d="M21.932 8.659c0.22 0.037 0.549 0.037 0.733 0 0.165-0.055-0.018-0.092-0.421-0.073-0.403 0-0.549 0.037-0.311 0.073z"></path>
<path d="M5.338 10.546c0 0.348 0.037 0.495 0.092 0.311 0.037-0.165 0.037-0.458 0-0.641-0.055-0.165-0.092-0.018-0.092 0.33z"></path>
<path d="M22.243 21.901c-0.073 0.128-0.476 0.165-0.971 0.11-0.568-0.055-0.678-0.055-0.311 0.037 0.513 0.128 0.549 0.183 0.476 0.861-0.018 0.403-0.146 0.788-0.275 0.861-0.147 0.11-0.147 0.147 0.018 0.147 0.128 0 0.311 0.165 0.44 0.385 0.183 0.348 0.165 0.385-0.33 0.275-0.275-0.055-0.824-0.147-1.191-0.22l-0.696-0.11 0.037 0.879 0.018 0.897 0.073-0.806c0.073-0.714 0.11-0.769 0.476-0.678 0.22 0.055 0.586 0.11 0.788 0.11 0.275 0 0.421 0.147 0.476 0.458 0.092 0.458-0.092 0.623-0.311 0.275-0.165-0.275-0.641-0.22-0.641 0.092 0 0.165 0.11 0.22 0.293 0.147 0.256-0.092 0.293-0.037 0.183 0.421-0.183 0.678-0.275 0.769-0.476 0.44-0.183-0.293-0.22-0.238-0.256 0.641-0.018 0.275-0.128 0.348-0.458 0.311-0.586-0.055-0.696-0.165-0.421-0.44 0.128-0.128 0.22-0.385 0.22-0.604 0-0.311-0.055-0.275-0.275 0.165-0.366 0.696-0.348 0.824 0.183 1.026 0.604 0.238 1.062 0.037 0.952-0.385-0.055-0.22 0-0.348 0.165-0.348 0.147 0 0.366-0.256 0.458-0.549 0.11-0.311 0.311-0.549 0.458-0.549s0.238-0.165 0.201-0.421c-0.037-0.311 0.055-0.403 0.421-0.403 0.494 0 0.513 0.055 0.183 1.355-0.11 0.44-0.147 0.952-0.092 1.136 0.073 0.22 0.018 0.348-0.128 0.348-0.128 0.018 0.055 0.147 0.403 0.293s0.843 0.238 1.081 0.201c0.256-0.055 0.641 0.037 0.879 0.183 0.238 0.165 0.476 0.238 0.531 0.183s-0.073-0.147-0.293-0.22c-0.311-0.092-0.366-0.22-0.275-0.513 0.33-1.081 0.44-1.703 0.348-1.978-0.092-0.33 0.33-0.568 0.733-0.421 0.147 0.055 0.238 0.293 0.22 0.531 0 0.238-0.073 0.385-0.147 0.33-0.092-0.037-0.147 0.018-0.147 0.11 0 0.11 0.128 0.201 0.275 0.201 0.165 0 0.275-0.165 0.275-0.458 0-0.348 0.092-0.458 0.421-0.458 0.385 0 0.421 0.073 0.44 1.044 0 0.806-0.037 0.952-0.147 0.604-0.128-0.385-0.147-0.366-0.073 0.147 0.055 0.33 0.018 0.568-0.073 0.513s-0.147 0.037-0.128 0.201c0.018 0.366-0.403 0.495-0.806 0.238-0.22-0.128-0.22-0.22-0.037-0.403 0.293-0.293 0.293-0.934 0-0.843-0.385 0.128-0.403 1.19-0.018 1.392 0.458 0.256 2.967 0.623 3.205 0.476 0.092-0.055 0.128-0.275 0.092-0.476-0.073-0.293-0.055-0.311 0.165-0.128 0.33 0.275 0.33 0-0.018-0.458-0.275-0.366-0.275-0.366-0.311 0 0 0.183-0.018 0.495 0 0.659 0.018 0.201-0.092 0.33-0.293 0.33-0.513 0-0.568-0.165-0.293-0.696 0.147-0.275 0.256-0.879 0.256-1.374 0-0.714 0.055-0.861 0.33-0.861 0.201 0 0.458 0.256 0.641 0.659 0.311 0.659 0.788 0.696 0.586 0.055-0.092-0.275-0.018-0.348 0.275-0.348 0.348 0 0.385 0.073 0.275 0.403-0.055 0.238-0.201 0.788-0.293 1.245-0.275 1.319-0.311 1.392-0.641 0.989-0.256-0.33-0.256-0.33-0.073 0.073 0.165 0.348 0.256 0.385 0.476 0.201 0.147-0.11 0.256-0.385 0.256-0.604 0-0.293 0.073-0.256 0.33 0.238 0.165 0.348 0.421 0.678 0.568 0.714 0.128 0.055 0.073-0.092-0.147-0.311-0.33-0.33-0.403-0.586-0.348-1.392 0.018-0.531 0.11-0.934 0.165-0.897 0.073 0.037 0.22-0.055 0.348-0.201 0.201-0.238 0.183-0.256-0.055-0.165-0.348 0.128-0.494-0.44-0.238-0.897 0.147-0.256 0.128-0.385-0.092-0.549-0.311-0.238-0.256-0.678 0.128-0.916 0.275-0.165 0.348-0.788 0.11-0.934-0.073-0.037-0.458-0.128-0.861-0.183l-0.733-0.092 0.788 0.201c0.549 0.147 0.769 0.293 0.769 0.531 0 0.201-0.073 0.348-0.183 0.348-0.092 0-0.183-0.092-0.183-0.183 0-0.11-0.165-0.183-0.366-0.183-0.22 0-0.366 0.128-0.366 0.293 0 0.183 0.11 0.256 0.275 0.183 0.183-0.055 0.275 0.018 0.275 0.22 0 0.366-0.366 0.989-0.366 0.623 0-0.11-0.073-0.22-0.183-0.22-0.092 0-0.183 0.165-0.183 0.366 0 0.403 0.641 0.531 0.788 0.128 0.037-0.11 0.147-0.147 0.238-0.073 0.256 0.256-0.22 0.769-0.678 0.733-1.062-0.11-1.282-0.238-1.154-0.641 0.073-0.238 0.037-0.33-0.073-0.256-0.11 0.055-0.238 0-0.275-0.11-0.055-0.128-0.11-0.055-0.11 0.165-0.018 0.476-0.201 0.531-0.549 0.183-0.201-0.183-0.238-0.183-0.128 0 0.092 0.147 0.018 0.238-0.201 0.238s-0.33-0.147-0.33-0.44c0-0.348 0.055-0.403 0.238-0.238 0.201 0.146 0.201 0.092 0.018-0.311-0.201-0.421-0.256-0.458-0.403-0.201-0.092 0.165-0.11 0.421-0.055 0.568 0.128 0.348-0.403 0.549-0.678 0.275-0.165-0.165-0.165-0.256 0.018-0.366 0.128-0.073 0.293-0.604 0.348-1.172 0.128-1.245 0.513-1.392 1.044-0.403 0.238 0.44 0.403 0.586 0.494 0.421 0.073-0.128 0.092-0.293 0.037-0.366-0.037-0.092 0.018-0.275 0.128-0.421 0.293-0.366 0.11-0.348-0.256 0-0.238 0.256-0.293 0.238-0.476-0.092-0.238-0.458-1.099-0.513-1.099-0.073 0 0.22-0.11 0.183-0.385-0.183-0.44-0.549-1.264-0.641-1.648-0.183-0.22 0.256-0.256 0.256-0.385-0.092-0.201-0.586-1.447-0.989-1.703-0.568zM23.305 22.066c0.549 0.22 0.806 0.934 0.311 0.934-0.183 0-0.366-0.128-0.44-0.275-0.165-0.421-0.641-0.33-0.769 0.165-0.147 0.604-0.037 1.062 0.275 1.172 0.165 0.055 0.201-0.037 0.11-0.311-0.092-0.293-0.037-0.385 0.22-0.385 0.183 0 0.458 0.092 0.604 0.183 0.403 0.256-0.458 1.099-1.117 1.099-0.934 0-1.245-1.52-0.495-2.326 0.44-0.458 0.641-0.513 1.3-0.256zM25.906 22.872c0.275 0.44 0.293 1.685 0.018 2.125-0.073 0.11-0.073 0.275-0.018 0.385 0.055 0.092 0.037 0.183-0.055 0.183-0.348 0-0.385-0.256-0.092-0.604 0.33-0.366 0.33-0.366-0.128-0.073-0.659 0.421-1.557 0.33-1.612-0.147-0.092-1.026-0.037-1.447 0.238-1.85 0.385-0.586 1.264-0.604 1.648-0.018zM23.122 22.89c0.055 0.147-0.037 0.293-0.256 0.348-0.201 0.055-0.348 0-0.348-0.128 0-0.476 0.44-0.641 0.604-0.22zM23.983 24.85c0 0.073-0.293 0.165-0.641 0.201s-0.641 0-0.641-0.073 0.11-0.147 0.256-0.147c0.128 0 0.348-0.128 0.476-0.275 0.201-0.238 0.275-0.238 0.385-0.055 0.092 0.128 0.165 0.293 0.165 0.348zM23.946 25.308c0.22 0.073 0.403 0.256 0.403 0.421 0 0.495-0.22 0.604-0.476 0.238-0.128-0.165-0.293-0.256-0.366-0.183-0.073 0.092 0.018 0.311 0.201 0.513 0.275 0.293 0.385 0.33 0.623 0.147s0.256-0.183 0.073 0.037c-0.128 0.147-0.238 0.421-0.238 0.623 0 0.458-0.513 1.026-0.934 1.026-0.659 0-0.897-0.22-0.897-0.806v-0.568l0.366 0.458c0.183 0.256 0.403 0.403 0.458 0.33 0.073-0.073-0.037-0.33-0.238-0.586-0.183-0.256-0.403-0.403-0.476-0.33-0.201 0.183 0.256-0.916 0.476-1.191 0.22-0.256 0.403-0.293 1.026-0.128zM27.921 26.114c0.073 0.11 0.037 0.311-0.092 0.458-0.11 0.128-0.238 0.678-0.275 1.227-0.055 0.897-0.092 0.971-0.549 1.026-0.476 0.055-0.494 0.037-0.348-0.458 0.073-0.275 0.165-0.806 0.183-1.154s0.037-0.788 0.055-0.971c0.018-0.348 0.824-0.44 1.026-0.128zM27.829 28.074c-0.165 0.275-0.183 0.22-0.11-0.293 0.055-0.33 0.128-0.751 0.147-0.916 0-0.165 0.055-0.018 0.092 0.293 0.037 0.33-0.018 0.751-0.128 0.916z"></path>
<path d="M21.785 23.458c0 0.147 0.092 0.275 0.183 0.275 0.11 0 0.183-0.128 0.183-0.275s-0.073-0.275-0.183-0.275c-0.092 0-0.183 0.128-0.183 0.275z"></path>
<path d="M24.789 23.257c-0.147 0.385-0.018 1.209 0.201 1.264 0.11 0.018 0.201-0.311 0.238-0.751 0.055-0.751-0.22-1.081-0.44-0.513zM25.027 24.136c-0.037 0.238-0.073 0.092-0.073-0.311-0.018-0.403 0.018-0.586 0.073-0.421 0.037 0.183 0.037 0.513 0 0.733z"></path>
<path d="M28.617 23.312c0 0.183-0.055 0.623-0.128 0.971l-0.11 0.641 0.183-0.604c0.256-0.788 0.403-0.751 0.293 0.092-0.092 0.604-0.092 0.641 0.055 0.183 0.201-0.604 0.146-1.465-0.092-1.538-0.11-0.037-0.183 0.092-0.201 0.256z"></path>
<path d="M21.181 26.48c-0.256 1.154-0.238 1.355 0.11 1.392 0.22 0.018 0.238 0.018 0.037-0.055-0.33-0.092-0.348-0.311-0.073-0.806 0.092-0.201 0.165-0.549 0.128-0.769-0.055-0.311-0.092-0.256-0.201 0.238z"></path>
<path d="M31.859 26.718c0.678 0.275 0.842 0.586 0.549 1.044-0.165 0.238-0.201 0.238-0.366 0-0.092-0.147-0.201-0.366-0.238-0.458-0.037-0.11-0.201-0.073-0.385 0.073-0.201 0.183-0.293 0.476-0.256 0.897 0.055 0.751 0.494 1.044 0.44 0.311 0-0.256-0.073-0.458-0.147-0.458-0.22 0-0.183-0.513 0.037-0.641 0.11-0.055 0.238 0.037 0.311 0.22 0.055 0.183 0.275 0.476 0.495 0.641l0.385 0.311-0.604 0.549c-0.311 0.311-0.513 0.568-0.44 0.568 0.092 0 0.385-0.238 0.659-0.531 0.403-0.421 0.476-0.604 0.33-0.879-0.128-0.22-0.128-0.458-0.018-0.623 0.366-0.586 0.11-0.989-0.751-1.154l-0.641-0.11 0.641 0.238z"></path>
<path d="M18.855 29.612c-0.22 0.147-0.183 0.165 0.165 0.073 0.293-0.092 0.385-0.073 0.311 0.073-0.073 0.11-0.055 0.201 0.055 0.201 0.311 0 0.385-0.33 0.092-0.44-0.348-0.128-0.293-0.147-0.623 0.092z"></path>
</symbol>
<symbol id="carp" viewBox="0 0 35 32">
<path d="M10.908 0.141c-1.48 0.344-3.335 1.57-4.471 2.946-1.271 1.525-1.75 3.409-1.196 4.68l0.299 0.658-0.449 0.598c-0.553 0.763-1.361 2.363-1.615 3.185-0.15 0.508-0.299 0.688-0.673 0.852-0.269 0.105-0.523 0.344-0.583 0.508-0.045 0.179-0.269 0.404-0.493 0.523s-0.568 0.389-0.763 0.598c-0.284 0.299-0.329 0.419-0.179 0.598 0.194 0.239-0.015 0.478-0.284 0.314-0.075-0.045-0.15-0.015-0.15 0.060 0 0.090 0.090 0.165 0.194 0.165 0.135 0 0.135 0.045-0.015 0.135s-0.090 0.149 0.209 0.224c0.224 0.060 0.673 0.239 0.987 0.389 0.553 0.269 0.553 0.269 0.404-0.030-0.090-0.15-0.329-0.404-0.553-0.538-0.508-0.314-0.598-0.837-0.12-0.688 0.508 0.149 0.628 0.239 1.196 0.927 0.583 0.718 0.658 0.718 0.314-0.015l-0.239-0.479 0.314 0.359c0.419 0.479 0.553 0.284 0.254-0.359-0.135-0.284-0.209-0.523-0.164-0.523 0.030 0 0.419 0.314 0.837 0.703 0.419 0.404 0.688 0.583 0.598 0.419-0.209-0.419-0.808-1.032-1.286-1.361-0.389-0.239-0.404-0.284-0.15-0.374 0.224-0.090 0.194-0.12-0.15-0.12-0.299-0.015-0.404 0.045-0.344 0.194 0.045 0.12 0.015 0.254-0.090 0.299-0.135 0.045-0.135 0.075 0 0.075 0.105 0.015 0.269 0.165 0.359 0.344l0.179 0.314-0.404-0.314c-0.299-0.224-0.568-0.299-1.062-0.269-0.374 0.030-0.673 0.015-0.673-0.030 0-0.194 1.017-0.957 1.376-1.032 0.224-0.045 0.389-0.135 0.344-0.179-0.030-0.060 0.269 0 0.673 0.12 0.508 0.179 0.643 0.269 0.478 0.344-0.179 0.075-0.15 0.105 0.15 0.105 0.209 0.015 0.523 0.060 0.673 0.12 0.224 0.090 0.239 0.075 0.075-0.135-0.135-0.165-0.15-0.269-0.030-0.344 0.224-0.135 0.015-0.404-0.254-0.314-0.135 0.060-0.254-0.015-0.299-0.209-0.090-0.344-0.12-0.359-0.508-0.135-0.568 0.299-0.643 0.045-0.090-0.299 0.299-0.179 0.628-0.284 0.718-0.239 0.090 0.060 0.359-0.030 0.598-0.209s0.493-0.299 0.553-0.254c0.075 0.045 0.404-0.090 0.763-0.299 1.032-0.583 1.764-0.434 3.185 0.643 0.897 0.688 1.136 0.942 0.882 0.942-0.075 0-0.179-0.060-0.239-0.15-0.045-0.075-0.179-0.105-0.284-0.060-0.12 0.045-0.404-0.015-0.643-0.135-0.224-0.12-0.583-0.269-0.793-0.329l-0.374-0.105 0.419 0.434c0.688 0.733 0.449 0.852-0.688 0.344-0.434-0.194-0.837-0.269-1.077-0.209-0.493 0.12-0.478-0.030 0.045-0.299 0.299-0.165 0.329-0.224 0.135-0.239-0.389 0-1.196 0.359-1.436 0.643-0.179 0.224-0.164 0.254 0.060 0.254 0.209 0 0.224 0.045 0.075 0.209-0.090 0.12-0.269 0.179-0.374 0.149-0.15-0.060-0.179 0-0.12 0.224 0.075 0.269 0.015 0.314-0.449 0.314-0.299 0-0.568 0.060-0.613 0.135-0.12 0.179 0.897 1.047 1.72 1.48 0.389 0.209 0.508 0.239 0.284 0.075-0.209-0.15-0.568-0.449-0.822-0.688-0.419-0.374-0.374-0.374 0.628 0.15 0.598 0.314 1.092 0.658 1.092 0.763s-0.449 0.389-1.002 0.643c-0.553 0.254-1.047 0.478-1.077 0.523-0.165 0.165 0.404 0.359 1.062 0.359 0.882 0 1.226-0.135 2.108-0.808 0.389-0.299 0.703-0.493 0.703-0.449 0 0.224-0.538 1.092-0.942 1.51-0.643 0.688-0.314 0.613 0.538-0.12 1.002-0.852 1.45-1.705 1.57-2.931l0.105-1.017 0.209 0.703c0.224 0.778 0.060 1.794-0.374 2.482-0.404 0.628-0.090 0.523 0.598-0.194 0.733-0.748 0.852-0.778 0.434-0.105-1.032 1.66-2.662 2.408-4.576 2.108-0.493-0.090-1.196-0.314-1.585-0.508l-0.688-0.374 0.553 0.090c0.299 0.045 0.673 0.015 0.822-0.075 0.224-0.12 0.179-0.15-0.254-0.135-1.077 0.030-1.899-0.329-1.286-0.568 0.12-0.045 0.254-0.179 0.299-0.299 0.060-0.164 0.015-0.164-0.284 0.030-0.344 0.224-0.359 0.209-0.419-0.194-0.030-0.224-0.075-0.030-0.090 0.434 0 0.479-0.060 0.867-0.105 0.867-0.164 0-0.748-0.344-1.092-0.658-0.344-0.299-0.344-0.299-0.194-0.015 0.090 0.179 0.314 0.404 0.523 0.508 0.284 0.149 0.389 0.389 0.523 1.121 0.269 1.406 0.733 2.722 1.465 4.112 0.479 0.912 0.583 1.211 0.389 1.136-0.135-0.045-0.449-0.135-0.703-0.165-0.404-0.075-0.419-0.060-0.15 0.105 0.165 0.105 0.344 0.269 0.419 0.374 0.060 0.105 0.344 0.508 0.628 0.882 0.314 0.389 0.449 0.688 0.329 0.703-0.090 0.015 0.194 0.060 0.643 0.105 0.449 0.060 0.867 0.075 0.927 0.060 0.224-0.105-0.135-0.748-0.733-1.331-0.658-0.613-0.658-0.628-0.449-1.121 0.12-0.284 0.329-0.598 0.464-0.718 0.434-0.359 0.688-1.002 0.688-1.72v-0.673l0.643 0.344c0.344 0.194 0.942 0.464 1.316 0.613l0.688 0.254 0.075 0.927c0.045 0.568 0.224 1.196 0.464 1.66 0.449 0.897 1.346 1.794 1.645 1.675 0.314-0.12 0.568-1.406 0.419-2.079-0.075-0.284-0.239-0.748-0.374-1.017-0.284-0.598-0.299-0.748-0.045-0.748 0.090 0 0.299 0.209 0.434 0.449 0.314 0.553 0.643 0.568 1.107 0.075 0.583-0.628 0.763-0.493 1.241 0.897 0.374 1.136 1.077 2.288 1.809 2.991 0.389 0.374 0.493 0.404 0.598 0.224 0.209-0.329 0.179-0.793-0.090-1.181-0.179-0.239-0.209-0.508-0.149-0.912 0.075-0.493 0.045-0.598-0.299-0.808-0.389-0.269-0.957-1.077-0.957-1.376 0-0.105 0.478-0.299 1.047-0.434 1.181-0.284 2.632-0.942 3.948-1.779l0.867-0.568 0.479 0.449c0.568 0.538 0.897 0.703 1.63 0.837 0.628 0.12 0.942 0 0.718-0.254-0.224-0.299-0.254-0.793-0.030-1.047 0.105-0.149 0.149-0.254 0.090-0.254s0.045-0.135 0.239-0.284c0.434-0.359 0.284-0.568-0.464-0.643l-0.523-0.060 0.957-0.478c0.538-0.254 1.316-0.553 1.735-0.643 1.017-0.224 1.406-0.015 3.006 1.57l1.241 1.211-0.434 1.092c-0.553 1.421-1.525 3.065-2.019 3.379-0.359 0.239-0.972 1.062-0.972 1.316 0 0.075 0.389 0.12 0.867 0.12 1.032 0 1.376 0.164 1.092 0.508-0.12 0.135-0.135 0.239-0.045 0.239 0.254 0 0.643-0.718 0.449-0.837-0.105-0.060-0.12-0.045-0.060 0.060 0.135 0.224 0.045 0.224-0.404 0.015l-0.359-0.165 0.598-0.897c0.329-0.493 0.733-0.957 0.912-1.017 0.434-0.179-0.015-0.179-0.628-0.015-0.269 0.090-0.479 0.105-0.449 0.045s0.329-0.643 0.658-1.301c0.344-0.658 0.703-1.45 0.793-1.765 0.105-0.299 0.209-0.553 0.239-0.553 0.015 0 0.284 0.105 0.568 0.224 0.927 0.389 1.107 0.314 1.196-0.493 0.075-0.568 0.015-0.867-0.344-1.615-0.224-0.508-0.464-1.151-0.523-1.421-0.060-0.284-0.224-0.718-0.374-0.972-0.299-0.523-0.284-1.525 0.015-1.705 0.105-0.075 0.299-0.344 0.419-0.613 0.135-0.284 0.523-0.688 0.882-0.927 0.464-0.314 0.628-0.523 0.628-0.807 0-0.269 0.209-0.568 0.673-0.987 1.122-1.017 0.822-1.391-1.017-1.271-0.568 0.030-1.256 0.209-1.779 0.449l-0.852 0.389-0.613-1.136c-0.778-1.436-1.525-2.422-2.766-3.604l-0.972-0.942 0.508-0.613c1.077-1.346 1.525-2.781 1.062-3.484-0.224-0.344-0.314-0.374-0.942-0.299-0.389 0.045-0.912 0.090-1.181 0.090-0.419 0-0.583 0.135-1.525 1.406-1.107 1.465-1.824 2.183-2.198 2.183-0.329 0-0.254-0.553 0.165-1.166 0.583-0.852 0.478-1.226-0.419-1.436-0.419-0.105-0.419-0.105-0.164-0.538 0.224-0.359 0.224-0.464 0.075-0.658-0.523-0.628-1.6 0.135-1.465 1.032 0.045 0.344-0.075 0.643-0.508 1.286-0.912 1.346-2.079 2.213-2.079 1.54 0-0.344 0.254-0.778 1.092-1.839 0.718-0.897 0.748-0.957 0.479-1.151-0.389-0.284-0.523-0.269-1.002 0.194-0.404 0.389-0.419 0.389-0.628 0.12-0.149-0.209-0.374-0.284-0.808-0.284-0.822 0.030-1.764 0.733-2.542 1.914-1.226 1.884-3.215 3.26-4.994 3.469-1.017 0.12-1.376-0.060-1.615-0.778-0.508-1.525 1.241-4.262 3.35-5.234 0.957-0.434 1.989-0.538 2.183-0.209 0.508 0.808-1.525 2.393-3.080 2.393-0.553 0-0.733 0.374-0.493 1.017 0.194 0.508 0.389 0.628 1.032 0.628 1.615-0.015 3.723-2.123 3.738-3.738 0-0.673-0.344-1.166-0.987-1.436-0.553-0.239-0.912-0.239-1.764-0.045zM26.265 2.279c0.045 0.105-0.075 0.538-0.254 0.942-0.778 1.66-2.497 2.183-1.809 0.553 0.284-0.688 0.598-1.047 1.196-1.421 0.538-0.344 0.763-0.359 0.867-0.075zM16.351 3.4c0 0.299-0.733 1.48-1.136 1.839-0.149 0.135-0.419 0.269-0.583 0.299-0.254 0.030-0.299-0.030-0.269-0.449 0.015-0.628 0.673-1.585 1.286-1.869 0.523-0.254 0.703-0.209 0.703 0.179zM20.747 3.086c0.045 0.075-0.194 0.523-0.523 1.017-0.733 1.122-0.957 1.735-0.748 2.138 0.194 0.359 0.658 0.523 1.151 0.404 0.359-0.090 0.344-0.090-0.165 0.852-0.284 0.523-0.523 0.987-0.523 1.047 0 0.209 0.493 0.553 0.808 0.553 0.269 0 0.479-0.299 1.136-1.585 0.449-0.867 0.867-1.615 0.927-1.645 0.060-0.045 0.239 0.060 0.419 0.239 0.359 0.359 0.852 0.389 1.585 0.075l0.538-0.224 1.121 1.092c1.107 1.062 2.527 3.006 2.946 4.023l0.224 0.523-1.166 0.912c-1.032 0.793-1.271 0.912-1.899 0.942-0.673 0.030-2.751-0.464-3.125-0.763-0.075-0.060-0.329-0.15-0.553-0.209-0.434-0.105-1.809-1.211-1.884-1.51-0.030-0.105-0.179-0.224-0.344-0.269-0.15-0.045-0.284-0.179-0.284-0.314s-0.090-0.239-0.194-0.239c-0.254 0-1.151-1.092-1.151-1.406 0-0.12-0.060-0.269-0.149-0.314-0.075-0.045-0.15-0.254-0.15-0.464s-0.090-0.359-0.224-0.359c-0.12 0-0.254-0.165-0.314-0.374-0.045-0.209-0.135-0.374-0.194-0.374-0.254 0-2.288 2.019-2.781 2.766-0.389 0.583-0.628 0.807-0.793 0.763-0.807-0.239-2.213-0.389-3.454-0.374-0.793 0-1.331 0.045-1.211 0.090s0.449 0.314 0.733 0.583c0.449 0.449 0.493 0.568 0.419 1.107-0.045 0.329-0.015 0.643 0.060 0.688s0.135-0.135 0.135-0.374c0-0.598 0.194-0.583 0.508 0.015 0.12 0.269 0.239 0.404 0.239 0.284s-0.164-0.419-0.359-0.673c-0.299-0.404-0.329-0.508-0.165-0.748 0.194-0.254 0.209-0.254 0.359 0.045 0.090 0.165 0.164 0.434 0.164 0.613s0.060 0.269 0.15 0.224c0.090-0.060 0.12-0.164 0.075-0.239-0.060-0.075-0.045-0.284 0.015-0.464 0.090-0.314 0.105-0.314 0.299-0.045 0.239 0.329 0.284 1.122 0.060 1.122-0.075 0-0.149 0.239-0.149 0.538v0.538l-0.299-0.344c-0.15-0.194-0.284-0.299-0.299-0.239 0 0.075 0.105 0.239 0.239 0.359 0.239 0.239 0.239 0.822 0 1.465-0.12 0.299-0.105 0.299 0.12 0.015 0.135-0.164 0.239-0.449 0.239-0.628 0-0.493 0.164-0.822 0.359-0.703 0.090 0.060 0.075-0.015-0.030-0.15-0.12-0.135-0.165-0.374-0.105-0.553 0.105-0.344 0.299-0.389 0.434-0.12 0.060 0.105 0.060 0.030 0.015-0.179-0.030-0.194-0.030-0.523 0.030-0.718 0.075-0.314 0.090-0.329 0.284-0.075 0.194 0.239 0.209 0.224 0.12-0.179-0.060-0.344-0.045-0.404 0.075-0.224 0.209 0.269 0.075 1.286-0.224 1.75-0.12 0.179-0.209 0.434-0.209 0.568 0 0.12-0.060 0.224-0.149 0.224-0.075 0-0.15 0.12-0.15 0.254 0.015 0.254 0.015 0.254 0.209 0 0.299-0.374 0.374-0.314 0.493 0.374 0.075 0.493 0.12 0.568 0.194 0.344 0.060-0.179 0.015-0.478-0.105-0.733-0.254-0.493-0.135-1.286 0.149-1.002 0.090 0.090 0.179 0.449 0.194 0.793 0.015 0.359 0.030 0.778 0.045 0.927 0.015 0.165 0.060 0.239 0.12 0.179s0.090-0.359 0.060-0.673c-0.015-0.344 0.045-0.658 0.179-0.778 0.209-0.224 0.179-0.583-0.060-0.583-0.075 0-0.135 0.12-0.135 0.254 0 0.209-0.045 0.194-0.239-0.075-0.15-0.224-0.209-0.493-0.15-0.748 0.194-0.822 0.239-1.241 0.090-1.151-0.075 0.045-0.209-0.060-0.299-0.224-0.135-0.239-0.12-0.299 0.075-0.299 0.12 0 0.224 0.075 0.224 0.165 0 0.105 0.164 0.12 0.434 0.060 0.493-0.105 0.643 0.030 0.508 0.508-0.060 0.254-0.12 0.284-0.209 0.135-0.090-0.135-0.135-0.090-0.135 0.179 0 0.209-0.045 0.538-0.090 0.748l-0.075 0.374 0.209-0.359c0.12-0.194 0.239-0.299 0.284-0.224s0.045 0.060 0.030-0.045c-0.015-0.090 0.015-0.359 0.075-0.598l0.12-0.419 0.224 0.449c0.224 0.464 0.12 1.421-0.164 1.421-0.075 0-0.165 0.15-0.209 0.329-0.030 0.194-0.12 0.478-0.164 0.643-0.105 0.269-0.090 0.269 0.060 0.045 0.149-0.254 0.179-0.254 0.464 0.015 0.165 0.149 0.359 0.464 0.449 0.703l0.135 0.434-0.060-0.449c-0.060-0.449 0.224-1.062 0.404-0.867 0.329 0.329-0.12 1.69-0.478 1.465-0.090-0.045-0.165 0.030-0.179 0.179s-0.090-0.030-0.194-0.404c-0.135-0.479-0.209-0.598-0.284-0.419-0.045 0.15-0.030 0.299 0.045 0.344 0.239 0.15 0.164 1.062-0.105 1.406-0.269 0.329-0.269 0.329-0.299-0.224-0.015-0.314 0.045-0.688 0.12-0.837 0.090-0.164 0.090-0.269 0-0.269-0.075 0-0.224 0.239-0.314 0.538-0.105 0.284-0.269 0.568-0.374 0.613-0.12 0.030-0.254 0.284-0.314 0.538-0.090 0.449-0.105 0.449-0.224 0.15-0.060-0.179-0.060-0.538 0.015-0.778 0.075-0.284 0.075-0.464-0.015-0.464-0.075 0-0.135 0.149-0.135 0.344s-0.105 0.478-0.239 0.643c-0.209 0.269-0.224 0.239-0.149-0.434 0.105-0.867 0.224-1.121 0.404-0.837 0.105 0.164 0.135 0.164 0.135 0.015 0-0.105-0.075-0.269-0.15-0.374-0.090-0.105-0.254-0.314-0.359-0.464-0.179-0.254-0.194-0.209-0.135 0.464 0.075 0.643 0.015 0.867-0.344 1.465-0.389 0.673-0.419 0.703-0.553 0.404-0.090-0.179-0.209-0.329-0.269-0.329-0.269 0-0.449-0.583-0.269-0.867 0.135-0.209 0.135-0.404 0.015-0.778-0.105-0.269-0.135-0.538-0.090-0.613s0.030-0.135-0.045-0.135c-0.224 0-0.449-0.703-0.314-0.972 0.135-0.224 0.165-0.224 0.359 0.045 0.12 0.165 0.164 0.404 0.12 0.523s-0.015 0.269 0.075 0.314c0.209 0.135 0.135-0.493-0.12-0.927-0.165-0.314-0.209-0.329-0.434-0.135-0.209 0.179-0.284 0.194-0.419 0.045-0.194-0.209-0.090-1.032 0.105-0.897 0.239 0.135 0.135-0.15-0.164-0.538-0.179-0.224-0.269-0.269-0.209-0.105 0.045 0.135 0.045 0.493 0 0.793-0.12 0.568-0.359 0.613-0.613 0.12-0.075-0.165-0.254-0.269-0.389-0.239-0.179 0.030-0.239-0.075-0.254-0.419-0.015-0.389 0.030-0.449 0.239-0.374 0.164 0.060 0.194 0.045 0.105-0.045-0.075-0.090-0.284-0.179-0.434-0.209-0.164-0.015-0.314-0.135-0.344-0.224-0.090-0.269 0.703-0.194 1.047 0.075 0.344 0.299 0.314 0.045-0.045-0.389-0.269-0.329-0.329-0.344-0.852-0.179-0.778 0.254-1.376 0.568-1.989 1.047-0.284 0.224-0.852 0.479-1.256 0.583s-0.987 0.314-1.316 0.479l-0.598 0.299 0.105-0.344c0.179-0.553 1.391-2.856 1.75-3.305 0.344-0.419 0.344-0.419 0.837-0.165 0.389 0.179 0.778 0.224 1.66 0.179 1.525-0.090 2.647-0.673 3.963-2.079 0.942-1.002 0.957-1.002 1.062-0.613 0.060 0.224 0.165 0.493 0.254 0.583 0.254 0.314 1.107 0.224 1.57-0.165 0.419-0.359 0.434-0.359 0.613-0.075 0.224 0.344 0.912 0.374 1.51 0.060 0.583-0.284 1.525-1.391 2.363-2.722 0.523-0.852 0.748-1.092 1.017-1.092 0.194 0 0.389 0.060 0.434 0.12zM17.128 8.111c-0.239 0.284-0.658 0.837-0.927 1.241l-0.479 0.718 0.658-0.688c0.344-0.374 0.837-0.837 1.092-1.047l0.434-0.359-0.374 0.523c-0.209 0.284-0.508 0.763-0.643 1.047l-0.254 0.523 0.344-0.449c0.194-0.239 0.538-0.643 0.763-0.897l0.434-0.449-0.299 0.449c-0.149 0.239-0.404 0.688-0.553 0.972-0.254 0.523-0.239 0.508 0.359-0.15 0.628-0.703 0.822-0.718 0.344-0.030-0.538 0.778-0.538 0.852 0.030 0.359 0.613-0.538 0.927-0.538 0.434 0.015-0.538 0.598-0.523 0.703 0.060 0.374 0.523-0.299 0.553-0.299 0.329-0.030-0.479 0.583-0.464 0.658 0.075 0.434 0.718-0.299 0.837-0.269 0.389 0.090l-0.374 0.299 0.598-0.105c0.568-0.090 0.583-0.075 0.299 0.15-0.284 0.239-0.269 0.239 0.299 0.164l0.598-0.090-0.897 0.449 0.583-0.090c0.389-0.060 0.553-0.030 0.479 0.075-0.045 0.090 0.105 0.194 0.374 0.254 0.419 0.090 0.434 0.12 0.179 0.314-0.239 0.194-0.224 0.209 0.164 0.12 0.284-0.075 0.404-0.045 0.344 0.045s0.523 0.359 1.436 0.658c0.837 0.284 1.555 0.553 1.57 0.613 0.030 0.075 0.269 0.12 0.523 0.135l0.479 0.015-0.419 0.149c-0.359 0.135-0.733 0.015-2.796-0.837-2.064-0.867-5.787-2.198-6.101-2.183-0.060 0 0.015 0.075 0.165 0.165 0.135 0.075 0.254 0.284 0.254 0.449 0 0.179-0.060 0.254-0.165 0.209-0.090-0.060-0.075 0.045 0.045 0.209 0.194 0.314 0.194 0.314 0.239-0.135 0.045-0.404 0.329-0.673 0.329-0.299 0 0.075 0.105 0.149 0.224 0.149 0.254 0 0.718 0.987 0.628 1.346-0.030 0.135-0.105 0.075-0.164-0.194-0.075-0.224-0.179-0.404-0.254-0.404s-0.030 0.209 0.090 0.449c0.254 0.493 0.194 0.897-0.179 1.271-0.194 0.209-0.209 0.329-0.045 0.882 0.105 0.359 0.135 0.807 0.075 0.987-0.105 0.329-0.12 0.314-0.344-0.135-0.164-0.359-0.179-0.523-0.045-0.658 0.090-0.090 0.165-0.224 0.165-0.314 0-0.075-0.045-0.090-0.105-0.045-0.060 0.060-0.194-0.105-0.299-0.359-0.149-0.359-0.149-0.523-0.030-0.688 0.105-0.105 0.135-0.239 0.090-0.284s-0.15 0.045-0.239 0.194c-0.105 0.209-0.090 0.464 0.045 0.867 0.105 0.314 0.165 0.673 0.135 0.807-0.090 0.359-1.002 0.942-1.301 0.822-0.149-0.060-0.239-0.015-0.239 0.135 0 0.12-0.105 0.299-0.224 0.404-0.194 0.164-0.224 0.12-0.224-0.329 0-0.344 0.135-0.643 0.464-1.002 0.538-0.598 0.688-0.508 0.464 0.239-0.135 0.419-0.12 0.493 0.015 0.359 0.105-0.105 0.179-0.479 0.179-0.837 0-0.793 0.164-0.852 0.449-0.194 0.12 0.269 0.209 0.404 0.224 0.299 0-0.105-0.105-0.389-0.224-0.613-0.12-0.239-0.165-0.479-0.105-0.553s-0.015-0.030-0.15 0.075c-0.239 0.179-0.269 0.165-0.269-0.105 0-0.179-0.060-0.359-0.149-0.404-0.090-0.060-0.060-0.224 0.090-0.449 0.135-0.209 0.254-0.688 0.284-1.077l0.060-0.718-0.209 0.882c-0.105 0.493-0.284 0.972-0.404 1.047-0.12 0.090-0.269 0.299-0.329 0.464-0.105 0.269-0.135 0.254-0.314-0.179-0.194-0.449-0.149-1.092 0.060-1.092 0.060 0 0.179 0.179 0.284 0.404l0.179 0.419-0.090-0.434c-0.045-0.239 0.015-0.568 0.15-0.763 0.165-0.254 0.194-0.464 0.090-0.807-0.135-0.479 0.045-0.658 0.209-0.224 0.060 0.135 0.135 0.224 0.165 0.179 0.209-0.209-0.165-0.553-0.688-0.643-0.314-0.060-0.613-0.149-0.658-0.224-0.12-0.179 0.778-1.406 1.57-2.153 0.867-0.807 1.122-0.897 0.479-0.179zM11.984 10.668l0.060 0.449-0.389-0.359c-0.389-0.359-0.389-0.359-0.389-0.045 0 0.404-0.075 0.404-0.449 0.030-0.389-0.389-0.389-0.419 0.194-0.493 0.807-0.105 0.927-0.060 0.972 0.419zM12.882 11.206l-0.060 0.359-0.179-0.404c-0.090-0.209-0.239-0.434-0.329-0.493-0.075-0.045-0.105-0.164-0.060-0.254 0.164-0.269 0.688 0.404 0.628 0.793zM13.21 10.578c0.224 0.434-0.030 0.493-0.344 0.075-0.224-0.299-0.239-0.359-0.045-0.359 0.12 0 0.299 0.135 0.389 0.284zM15.902 11.64c0 0.628-0.179 0.658-0.404 0.045-0.284-0.837-0.254-1.047 0.105-0.718 0.164 0.15 0.299 0.449 0.299 0.673zM32.037 11.251c-0.852 0.359-2.228 1.107-2.228 1.226 0 0.030 0.344-0.105 0.778-0.329 0.852-0.434 1.914-0.837 1.914-0.733 0 0.045-0.479 0.284-1.047 0.538-1.211 0.553-1.316 0.718-0.179 0.284 0.434-0.165 0.927-0.299 1.122-0.284 0.194 0 0.030 0.12-0.449 0.284-0.852 0.299-2.632 1.211-2.542 1.301 0.030 0.030 0.284-0.045 0.568-0.165s0.852-0.254 1.256-0.299l0.748-0.090-0.957 0.314c-1.002 0.329-1.211 0.538-0.254 0.269 1.032-0.284 0.867-0.060-0.209 0.299-1.181 0.374-1.391 0.583-0.224 0.239 0.912-0.284 1.241-0.269 0.464 0.015s-0.882 0.419-0.239 0.299l0.523-0.090-0.449 0.224c-0.359 0.165-0.389 0.209-0.149 0.224 0.164 0.015-0.015 0.12-0.404 0.239-0.852 0.269-0.927 0.404-0.149 0.299 0.493-0.075 0.479-0.060-0.194 0.164l-0.748 0.254 1.196 0.179-0.523 0.12-0.523 0.135 0.493 0.209c0.583 0.239 0.613 0.329 0.075 0.239-0.359-0.060-0.329-0.015 0.179 0.254 0.329 0.165 0.464 0.269 0.299 0.209-0.165-0.045-0.493-0.12-0.748-0.165-0.344-0.045-0.269 0.015 0.314 0.299 0.419 0.209 0.822 0.449 0.882 0.553 0.075 0.105-0.045 0.090-0.314-0.045-0.957-0.479-1.122-0.389-0.254 0.135 0.523 0.314 0.912 0.583 0.882 0.613-0.030 0.045-0.478-0.149-0.987-0.404s-0.957-0.449-0.987-0.419c-0.015 0.030 0.493 0.374 1.151 0.778 0.643 0.404 1.181 0.763 1.181 0.793 0 0.045-0.568-0.239-1.271-0.613-0.703-0.359-1.271-0.643-1.271-0.613s0.404 0.344 0.897 0.688c1.017 0.718 1.107 0.957 0.12 0.359l-0.643-0.389 0.748 0.703c0.628 0.583 0.658 0.628 0.194 0.299-0.314-0.209-0.807-0.568-1.092-0.778-0.957-0.718-0.538-0.269 0.643 0.688 0.628 0.523 1.226 1.017 1.301 1.092 0.374 0.374-1.032-0.583-2.273-1.54l-1.376-1.077 0.508-0.508c0.314-0.299 0.568-0.763 0.673-1.136 0.075-0.359 0.209-0.852 0.299-1.092 0.12-0.359 0.105-0.479-0.090-0.628-0.135-0.090-0.209-0.329-0.179-0.523 0.030-0.239-0.060-0.389-0.284-0.493-0.194-0.075-0.344-0.194-0.344-0.254 0-0.179 1.779-1.316 2.736-1.749 1.555-0.703 1.66-0.748 1.974-0.748 0.164 0-0.075 0.15-0.538 0.344zM8.844 11.296c0.075 0.269-0.748 0.254-1.107-0.030-0.269-0.209-0.239-0.224 0.374-0.194 0.374 0.030 0.688 0.135 0.733 0.224zM18.639 11.999c0.045 0.12 0.224 0.179 0.449 0.135 0.434-0.090 0.568 0.075 0.449 0.553-0.090 0.329-0.105 0.344-0.209 0.060-0.090-0.224-0.12-0.179-0.12 0.194-0.015 0.254-0.075 0.523-0.165 0.568-0.075 0.045-0.149 0.209-0.149 0.344 0.015 0.194 0.060 0.179 0.194-0.090 0.105-0.179 0.239-0.284 0.299-0.239 0.060 0.060 0.105-0.015 0.105-0.179 0-0.149 0.075-0.389 0.149-0.508 0.135-0.194 0.165-0.194 0.299 0 0.12 0.179 0.15 0.165 0.15-0.12 0-0.434 0.269-0.419 0.478 0.045 0.135 0.284 0.12 0.464-0.030 0.778l-0.194 0.419-0.105-0.449-0.090-0.449-0.090 0.464c-0.060 0.269-0.209 0.583-0.344 0.703-0.12 0.135-0.224 0.344-0.224 0.464 0 0.135-0.060 0.239-0.12 0.239-0.075 0-0.254 0.254-0.404 0.553l-0.284 0.568-0.060-0.478c-0.030-0.284 0.060-0.628 0.179-0.822 0.269-0.389 0.299-0.568 0.090-0.568-0.075 0-0.15 0.12-0.165 0.254 0 0.209-0.030 0.194-0.135-0.075-0.075-0.179-0.165-0.329-0.179-0.329-0.030 0-0.030 0.523-0.015 1.166 0.030 0.837-0.015 1.256-0.179 1.465-0.209 0.269-0.209 0.254-0.224-0.164 0-0.254 0.060-0.538 0.135-0.643 0.060-0.105 0.060-0.449-0.030-0.748-0.105-0.464-0.075-0.688 0.209-1.301 0.359-0.763 0.508-1.48 0.284-1.346-0.12 0.075-0.299-0.254-0.299-0.538 0-0.209 0.254-0.164 0.344 0.075zM21.046 12.776c0.045 0.135 0.105 0.419 0.105 0.628 0.015 0.404 0.015 0.404 0.135-0.045 0.090-0.404 0.12-0.419 0.209-0.149 0.060 0.164 0.194 0.493 0.269 0.718 0.12 0.299 0.194 0.374 0.284 0.224 0.090-0.135 0.15-0.12 0.224 0.090s0.135 0.224 0.224 0.060c0.075-0.105 0.135-0.344 0.135-0.538 0-0.209 0.060-0.314 0.165-0.239 0.090 0.045 0.12 0.254 0.060 0.464-0.060 0.239-0.030 0.329 0.075 0.269 0.209-0.135 0.194 0.568-0.030 0.793-0.135 0.135-0.135 0.179 0 0.179 0.105 0 0.224-0.209 0.284-0.449 0.135-0.703 0.404-0.763 0.299-0.060-0.060 0.404-0.045 0.508 0.045 0.359s0.15-0.165 0.15-0.045c0 0.12 0.135 0.164 0.344 0.135 0.194-0.030 0.299-0.135 0.269-0.254s-0.060-0.329-0.075-0.464c0-0.15-0.090-0.299-0.179-0.329-0.135-0.045-0.149 0.045-0.060 0.374 0.075 0.239 0.075 0.464 0.015 0.508-0.135 0.075-0.344-1.136-0.224-1.256 0.030-0.030 0.239 0.090 0.449 0.299 0.209 0.194 0.434 0.344 0.478 0.344 0.060-0.015 0.254 0.030 0.449 0.105 0.239 0.090 0.329 0.254 0.329 0.568 0 0.434-0.284 0.837-0.314 0.434 0-0.149-0.030-0.149-0.090 0.015-0.075 0.165-0.105 0.165-0.209 0-0.12-0.179-0.165-0.164-0.284 0.015-0.075 0.12-0.15 0.164-0.15 0.090s-0.135-0.015-0.299 0.135c-0.284 0.254-0.299 0.254-0.314-0.015 0-0.239-0.015-0.239-0.135 0.045-0.194 0.479-0.344 0.434-0.239-0.075l0.090-0.404-0.224 0.374c-0.194 0.344-0.209 0.344-0.224 0.075-0.015-0.284-0.030-0.284-0.179 0.030-0.090 0.194-0.224 0.344-0.299 0.344s-0.105-0.15-0.045-0.344c0.075-0.299 0.075-0.299-0.135 0.045-0.135 0.209-0.224 0.284-0.239 0.164 0-0.164-0.075-0.135-0.314 0.075-0.314 0.284-0.329 0.284-0.224-0.060 0.165-0.493-0.015-0.404-0.299 0.15-0.389 0.748-0.748 0.912-1.151 0.493-0.194-0.179-0.239-0.179-0.314 0.105-0.105 0.464-0.239 0.269-0.269-0.404l-0.015-0.553-0.269 0.344-0.284 0.359v-0.464c0-0.239 0.105-0.583 0.224-0.748 0.209-0.284 0.224-0.284 0.314 0.045 0.135 0.478 0.389 0.254 0.284-0.239-0.045-0.224-0.030-0.568 0.060-0.778l0.135-0.359 0.149 0.374c0.105 0.239 0.165 0.284 0.165 0.135 0.015-0.329 0.404-1.047 0.508-0.942 0.045 0.045 0.030-0.165-0.045-0.449-0.12-0.538 0.030-0.748 0.209-0.299zM22.347 13.285c0.075 0 0.135 0.165 0.135 0.374 0 0.673-0.703 0.329-0.733-0.359-0.015-0.12 0.075-0.165 0.224-0.105 0.135 0.045 0.299 0.090 0.374 0.090zM23.379 13.808c0 0.12-0.060 0.224-0.15 0.224-0.075 0-0.149-0.105-0.149-0.224s0.075-0.224 0.149-0.224c0.090 0 0.15 0.105 0.15 0.224zM28.029 13.913c0.149 0.269 0.135 0.299-0.075 0.224-0.149-0.060-0.239-0.015-0.239 0.12 0 0.12 0.105 0.224 0.239 0.224 0.284 0 0.224 0.464-0.075 0.568-0.135 0.045-0.179 0-0.135-0.15 0.105-0.239-0.404-0.628-0.628-0.493-0.090 0.060-0.149 0.060-0.149 0.015 0-0.030-0.045-0.179-0.105-0.329-0.075-0.194-0.045-0.239 0.149-0.165 0.135 0.045 0.329 0 0.434-0.12 0.269-0.299 0.374-0.269 0.583 0.105zM7.334 14.062c0.090 0.105 0.194 0.449 0.239 0.763 0.075 0.464 0.030 0.598-0.254 0.778-0.269 0.179-0.434 0.194-0.852 0.045-0.284-0.090-0.553-0.239-0.613-0.329-0.179-0.254-0.135-1.062 0.060-1.256 0.239-0.239 1.241-0.224 1.421 0zM26.669 14.197c0 0.165-0.060 0.254-0.15 0.209-0.075-0.045-0.149-0.194-0.149-0.314s0.075-0.209 0.149-0.209c0.090 0 0.15 0.135 0.15 0.314zM26.34 14.481c0.149 0.329 0.149 0.508 0.030 0.748-0.209 0.389-0.224 0.389-0.254-0.179-0.015-0.254-0.090-0.523-0.164-0.598-0.060-0.060-0.090 0.105-0.060 0.389 0.030 0.269-0.015 0.553-0.105 0.598-0.105 0.075-0.165-0.060-0.165-0.344 0-0.239-0.075-0.493-0.179-0.553-0.105-0.075-0.075-0.164 0.105-0.314 0.419-0.299 0.583-0.239 0.793 0.254zM26.833 15.034c-0.15 0.254-0.15 0.239-0.165-0.045 0-0.344 0.194-0.613 0.269-0.374 0.030 0.090-0.015 0.269-0.105 0.419zM27.491 14.63c0.12 0.194-0.060 0.748-0.239 0.748-0.075 0-0.135-0.209-0.135-0.449 0-0.449 0.194-0.598 0.374-0.299zM28.358 15.558c-0.284 1.286-0.972 1.944-2.303 2.213-1.6 0.314-3.11 1.032-4.845 2.258-0.897 0.643-2.138 1.421-2.737 1.72-0.987 0.493-1.271 0.553-2.901 0.688-1.809 0.135-2.602 0.374-2.766 0.807-0.060 0.179-0.12 0.15-0.254-0.12-0.105-0.209-0.434-0.419-0.912-0.553-0.688-0.209-0.703-0.239-0.299-0.269 0.254-0.030 0.613-0.090 0.822-0.149l0.374-0.090-0.449-0.209c-0.434-0.194-0.434-0.194 0.224-0.090 0.374 0.075 1.45 0.12 2.393 0.12 1.57 0 1.794-0.030 2.602-0.419 1.181-0.538 2.034-1.271 2.931-2.467 0.419-0.538 0.748-0.927 0.748-0.867 0 0.15-0.852 1.376-1.376 1.959l-0.434 0.508 0.972-0.628c0.538-0.344 1.391-0.852 1.884-1.136s1.361-0.897 1.914-1.346c0.867-0.718 0.942-0.748 0.508-0.254-0.269 0.314-0.464 0.598-0.419 0.643 0.090 0.090 2.273-1.241 2.407-1.465 0.060-0.075 0.165-0.135 0.239-0.135 0.224 0-0.269 0.852-0.553 0.957-0.135 0.060-0.209 0.135-0.164 0.179 0.105 0.105 1.002-0.359 1.002-0.523 0-0.12 1.346-1.66 1.436-1.66 0.015 0 0 0.149-0.045 0.329zM6.556 19.685c0.972 0.060 1.824-0.090 3.021-0.523 0.568-0.209-0.284 0.538-1.047 0.927-0.568 0.269-1.002 0.374-1.66 0.374-1.107 0-1.72-0.284-0.688-0.314l0.673-0.015-0.628-0.135c-0.718-0.135-1.764-0.583-2.213-0.942-0.164-0.135 0.105-0.060 0.583 0.165 0.598 0.254 1.256 0.419 1.959 0.464zM4.418 20.014c0.090 0 0.105 0.149 0.045 0.404-0.075 0.239-0.209 0.793-0.299 1.241l-0.179 0.822-0.404-1.241c-0.209-0.688-0.389-1.465-0.389-1.735v-0.493l0.538 0.493c0.284 0.284 0.598 0.508 0.688 0.508zM23.379 19.565c0.194 0.135 0.194 0.15 0 0.15s-0.194 0.015 0 0.149c0.164 0.105 0.164 0.15 0.030 0.15-0.105 0-0.165 0.060-0.12 0.135 0.105 0.165-0.329 0.344-0.553 0.224-0.105-0.045-0.045 0.030 0.105 0.149 0.165 0.135 0.209 0.239 0.105 0.239s-0.135 0.075-0.075 0.179c0.075 0.12 0.015 0.135-0.179 0.075-0.209-0.075-0.179-0.030 0.090 0.194 0.209 0.164 0.434 0.299 0.508 0.299s0.105 0.045 0.060 0.090c-0.135 0.12-1.196-0.464-1.6-0.882l-0.344-0.389 0.718-0.449c0.778-0.493 0.912-0.538 1.256-0.314zM10.175 20.597c0.090 0.419 0.449 1.421 0.778 2.258 0.344 0.822 0.613 1.615 0.598 1.764 0 0.135-0.179-0.209-0.389-0.763-0.374-0.972-0.658-1.361-0.344-0.464 0.090 0.254 0.090 0.628 0.030 0.882-0.12 0.434-0.12 0.434-0.314-0.269-0.209-0.703-0.449-0.822-0.479-0.209-0.015 0.479-0.598-2.093-0.643-2.811-0.030-0.523 0.224-1.077 0.508-1.107 0.045-0.015 0.164 0.314 0.254 0.718zM5.674 20.702c0.927 0.479 1.151 0.703 0.688 0.628-0.299-0.030-0.389 0.060-0.583 0.628-0.12 0.374-0.314 0.778-0.434 0.897-0.179 0.179-0.209 0.15-0.224-0.299 0-0.434-0.030-0.464-0.135-0.224l-0.135 0.299-0.015-0.299c-0.030-0.254-0.045-0.254-0.165 0.075-0.12 0.374-0.090-0.135 0.105-1.196 0.060-0.329 0.045-0.329-0.15 0.075-0.135 0.254-0.224 0.344-0.239 0.209 0-0.344 0.299-1.181 0.434-1.181 0.075 0 0.449 0.179 0.852 0.389zM8.47 20.717c-0.434 0.299-0.449 0.538-0.030 0.419 0.224-0.075 0.284-0.060 0.224 0.060-0.060 0.090-0.209 0.164-0.329 0.164-0.359 0-0.239 0.254 0.179 0.359 0.224 0.060 0.359 0.15 0.314 0.194-0.179 0.165-0.837-0.12-1.45-0.628l-0.628-0.523h0.658c0.344 0 0.748-0.075 0.867-0.149 0.374-0.239 0.553-0.15 0.194 0.105zM15.005 23.348c0 0.105 0.209 0.523 0.449 0.912 0.254 0.389 0.389 0.673 0.314 0.628s-0.179 0.015-0.224 0.15c-0.045 0.12-0.030 0.179 0.045 0.135s0.194 0 0.254 0.090c0.060 0.12 0.045 0.135-0.060 0.075-0.269-0.165-0.209 0.075 0.135 0.658 0.224 0.359 0.254 0.449 0.075 0.314-0.269-0.224-0.314-0.12-0.090 0.299 0.329 0.598 0 0.254-0.464-0.508-0.628-1.017-1.226-2.751-0.987-2.856 0.329-0.135 0.553-0.090 0.553 0.105z"></path>
<path d="M9.726 11.565c0.090 0.479 0.164 0.613 0.254 0.508 0.030-0.030-0.030-0.269-0.15-0.508l-0.194-0.449 0.090 0.449z"></path>
<path d="M12.238 15.378c-0.045 0.164-0.164 0.299-0.239 0.299s-0.135 0.075-0.135 0.164c0 0.12 0.060 0.12 0.209 0 0.164-0.149 0.224-0.12 0.284 0.090 0.030 0.15 0.060 0.015 0.045-0.299 0-0.628-0.030-0.673-0.165-0.254z"></path>
<path d="M17.577 12.926c-0.12 0.135-0.149 0.344-0.090 0.553 0.105 0.299 0.12 0.284 0.224-0.194 0.135-0.613 0.12-0.643-0.135-0.359z"></path>
<path d="M20.986 14.137c0 0.179-0.239 0.583-0.523 0.897-0.568 0.613-0.613 0.748-0.359 1.092 0.135 0.179 0.15 0.179 0.075-0.045-0.045-0.149 0.015-0.419 0.135-0.598 0.194-0.284 0.224-0.284 0.314-0.030 0.060 0.15 0.030 0.479-0.060 0.718-0.209 0.553-0.12 0.718 0.12 0.239 0.105-0.179 0.15-0.553 0.090-0.852-0.060-0.374 0-0.628 0.209-0.927 0.179-0.269 0.239-0.464 0.135-0.613-0.105-0.164-0.135-0.135-0.135 0.12z"></path>
<path d="M21.196 15.303c-0.164 0.733-0.135 0.882 0.075 0.329 0.12-0.299 0.239-0.344 0.763-0.329 0.464 0.015 0.598-0.030 0.523-0.194-0.045-0.105-0.075-0.284-0.090-0.374 0-0.105-0.075-0.015-0.165 0.194l-0.164 0.374-0.105-0.374-0.090-0.374-0.239 0.718-0.179-0.314c-0.165-0.299-0.179-0.269-0.329 0.344z"></path>
<path d="M24.485 14.825c0.045 0.149 0.090 0.329 0.090 0.374 0 0.060 0.075 0 0.15-0.12 0.135-0.194 0.164-0.194 0.299 0 0.075 0.12 0.149 0.149 0.149 0.075 0-0.090-0.060-0.239-0.135-0.359-0.090-0.15-0.15-0.15-0.239-0.015s-0.15 0.135-0.254-0.015c-0.105-0.165-0.12-0.135-0.060 0.060z"></path>
<path d="M6.96 14.78c-0.105 0.179-0.12 0.314-0.030 0.374 0.194 0.12 0.449-0.045 0.449-0.299 0-0.344-0.224-0.374-0.419-0.075z"></path>
<path d="M15.154 25.143c0 0.224 0.464 1.032 0.553 0.942 0.045-0.045-0.060-0.299-0.239-0.568-0.164-0.269-0.314-0.434-0.314-0.374z"></path>
<path d="M0.022 16.873c-0.090 0.493 0.12 1.944 0.284 1.944 0.030 0 0.015-0.374-0.030-0.822-0.135-1.002 0.105-1.181 0.852-0.658l0.493 0.344-0.299-0.374c-0.419-0.508-0.568-0.598-0.852-0.523-0.15 0.030-0.269-0.045-0.314-0.194-0.030-0.135-0.090 0-0.135 0.284z"></path>
<path d="M2.833 17.427c0.090 0.538-0.030 0.598-0.583 0.329-0.314-0.149-0.314-0.149-0.045 0.075 0.643 0.523 1.032 0.179 0.673-0.583-0.105-0.224-0.12-0.179-0.045 0.179z"></path>
<path d="M30.392 24.455c0 0.075-0.030 0.239-0.060 0.374-0.030 0.15 0.015 0.269 0.090 0.269s0.135-0.165 0.135-0.374c0-0.329-0.135-0.553-0.165-0.269z"></path>
<path d="M7.558 27.386c-0.538 0.688-0.583 0.808-0.404 1.002 0.194 0.194 0.254 0.179 0.464-0.12 0.224-0.329 0.254-0.329 0.523-0.090 0.224 0.194 0.329 0.224 0.464 0.090s0.105-0.239-0.075-0.449c-0.374-0.419-0.299-0.553 0.135-0.254 0.673 0.434 0.748 0.030 0.090-0.508l-0.598-0.464-0.598 0.793z"></path>
<path d="M4.388 26.892c0 0.090 0.12 0.284 0.269 0.449 0.254 0.269 0.254 0.269 0.254-0.075 0-0.224-0.060-0.314-0.209-0.254-0.135 0.045-0.179 0.015-0.105-0.090 0.060-0.105 0.030-0.179-0.045-0.179-0.090 0-0.165 0.075-0.165 0.149z"></path>
<path d="M24.53 27.565l-0.568 0.389 0.553 0.778c0.314 0.434 0.583 0.808 0.598 0.837 0.075 0.105 0.957-0.613 1.107-0.882 0.12-0.224 0.090-0.359-0.105-0.568-0.149-0.149-0.344-0.404-0.434-0.568-0.239-0.419-0.508-0.419-1.151 0.015zM25.143 27.954c-0.030 0.090-0.12 0.149-0.194 0.149s-0.164-0.060-0.194-0.149c-0.030-0.090 0.060-0.165 0.194-0.165s0.224 0.075 0.194 0.165zM25.771 28.537c0 0.179-0.419 0.374-0.538 0.254-0.135-0.135 0.090-0.404 0.329-0.404 0.12 0 0.209 0.075 0.209 0.15z"></path>
<path d="M8.949 28.433c-0.598 0.882-0.613 0.942-0.299 1.062 0.15 0.045 0.389-0.165 0.748-0.703 0.598-0.882 0.613-0.942 0.299-1.062-0.149-0.045-0.389 0.165-0.748 0.703z"></path>
<path d="M23.528 28.238c-0.179 0.12-0.165 0.224 0.105 0.808 0.284 0.568 0.299 0.688 0.12 0.837s-0.269 0.090-0.478-0.299c-0.493-0.867-0.613-0.987-0.793-0.808-0.135 0.135-0.075 0.359 0.209 0.942 0.449 0.867 0.793 0.972 1.48 0.419l0.419-0.329-0.374-0.867c-0.209-0.464-0.404-0.852-0.419-0.852-0.030 0-0.149 0.075-0.269 0.149z"></path>
<path d="M10.1 28.418c-0.090 0.105-0.179 0.389-0.209 0.643-0.030 0.314-0.12 0.449-0.299 0.434-0.165-0.015-0.269 0.075-0.269 0.254 0 0.209 0.105 0.284 0.449 0.284 0.493 0 0.778-0.374 0.643-0.867-0.060-0.224-0.015-0.329 0.15-0.329 0.314 0 0.434-0.404 0.165-0.508-0.344-0.135-0.449-0.105-0.628 0.090z"></path>
<path d="M10.848 29.614c-0.254 0.718-0.284 0.957-0.149 1.047 0.299 0.179 0.374 0.149 0.478-0.269 0.075-0.299 0.165-0.359 0.434-0.269 0.434 0.135 0.434 0.12 0.269 0.568-0.15 0.374-0.135 0.404 0.299 0.449 0.105 0.015 0.867-1.54 0.882-1.794 0-0.015-0.135-0.060-0.299-0.105-0.194-0.045-0.314 0.015-0.389 0.224-0.060 0.194-0.194 0.269-0.404 0.239-0.254-0.030-0.329-0.149-0.329-0.493 0-0.269-0.090-0.464-0.224-0.479-0.149-0.045-0.329 0.239-0.568 0.882z"></path>
<path d="M20.837 29.404c0 0.209 0.479 1.585 0.598 1.72s1.346-0.179 1.346-0.329c-0.015-0.269-0.254-0.434-0.449-0.314-0.404 0.254-0.553 0.149-0.748-0.523-0.135-0.493-0.269-0.673-0.464-0.673-0.164 0-0.284 0.060-0.284 0.12z"></path>
<path d="M13.031 30.362c-0.224 0.897-0.179 1.151 0.194 1.166 0.135 0 0.598-1.794 0.508-1.959-0.224-0.344-0.479-0.060-0.703 0.793z"></path>
<path d="M19.431 29.823c-0.553 0.538-0.090 1.854 0.643 1.854 0.434 0 1.032-0.538 0.822-0.748-0.12-0.12-0.209-0.135-0.269-0.015-0.15 0.239-0.628 0.194-0.852-0.075-0.254-0.314 0-0.733 0.479-0.733 0.224 0 0.374-0.105 0.404-0.269 0.045-0.194-0.060-0.254-0.479-0.254-0.284 0-0.628 0.105-0.748 0.239z"></path>
<path d="M14.048 30.137c-0.284 1.48-0.284 1.54 0.045 1.54 0.254 0 0.314-0.090 0.314-0.449 0-0.583 0.209-0.568 0.449 0 0.194 0.464 0.673 0.837 0.807 0.628 0.030-0.060 0.12-0.538 0.179-1.047 0.075-0.763 0.060-0.927-0.12-0.927-0.12 0-0.299 0.224-0.374 0.479l-0.149 0.493-0.269-0.568c-0.329-0.673-0.763-0.733-0.882-0.15z"></path>
<path d="M16.53 30.122c-0.434 0.299-0.449 1.136-0.030 1.555 0.239 0.239 0.464 0.299 0.987 0.269 0.673-0.045 0.673-0.045 0.628-0.553-0.030-0.359-0.12-0.523-0.299-0.553-0.179-0.015-0.269 0.060-0.269 0.254 0 0.359-0.673 0.404-0.807 0.045-0.12-0.314-0.12-0.299 0.149-0.568 0.179-0.179 0.299-0.194 0.523-0.090 0.224 0.135 0.314 0.105 0.389-0.090 0.179-0.493-0.688-0.688-1.271-0.269z"></path>
</symbol>
</defs>
</svg>
