<svg width="210" height="237" viewBox="0 0 210 237"  xmlns="http://www.w3.org/2000/svg">
<mask id="path-1-inside-1_1_17" >
<path fill-rule="evenodd" clip-rule="evenodd" d="M173.329 0.530792C169.875 1.40079 161.467 6.04479 160.493 7.62079C160.159 8.16079 155.524 11.7018 150.192 15.4898C131.037 29.0958 125.561 37.1308 119.56 60.4318C114.878 78.6118 114.032 79.6148 103.378 79.6148C96.733 79.6148 95.971 79.3978 94.048 76.9528C92.896 75.4878 91.777 73.3508 91.561 72.2028C88.682 56.9018 86.639 52.1548 74.874 33.4198C64.224 16.4618 59.608 11.4698 50.632 7.21079C33.704 -0.822208 27.42 -0.822208 20.016 7.21079C11.409 16.5478 0.00400087 49.8268 8.69527e-07 65.6148C-0.00199913 75.2858 3.446 82.9238 11.935 92.0478C16.518 96.9748 17.997 99.2868 17.997 101.525C17.997 108.538 21.622 113.358 30.145 117.678C40.647 123.001 41.851 126.992 37.494 142.027C33.823 154.698 28.694 161.756 20.747 165.075C18.685 165.937 16.997 166.849 16.997 167.103C16.997 167.356 18.347 168.262 19.997 169.115C23.706 171.033 23.772 171.957 20.285 173.183L17.573 174.137L24.066 178.77C31.16 183.833 35.778 189.804 43.597 204.029C49.344 214.483 56.134 221.903 62.554 224.743C65.079 225.86 73.075 228.847 80.321 231.381C92.512 235.643 94.245 235.99 103.497 236.033C111.763 236.071 114.885 235.614 121.497 233.401C125.897 231.929 131.522 230.207 133.997 229.576C136.472 228.945 140.566 227.544 143.095 226.464C148.158 224.301 152.493 219.106 164.247 201.115C172.432 188.587 177.93 182.325 183.724 178.929C187.884 176.491 188.106 176.168 186.448 174.955C184.513 173.54 184.547 173.42 187.305 171.94C188.859 171.107 188.247 170.436 182.939 167.16C175.394 162.503 173.217 158.31 169.926 142.094C166.935 127.359 167.441 124.828 174.404 119.684C181.268 114.613 186.376 108.601 187.837 103.873C188.476 101.806 191.392 96.8998 194.318 92.9708C205.566 77.8658 210.833 63.1988 209.594 50.4358C209.019 44.5118 199.019 17.8538 194.367 9.84279C190.026 2.36579 181.33 -1.48321 173.329 0.530792ZM187.238 9.32179C189.746 11.5778 196.192 25.3328 200.263 37.1148C206.205 54.3148 203.614 70.4888 192.414 86.0978C189.336 90.3868 185.886 95.7458 184.747 98.0058C180.504 106.427 174.924 110.615 167.948 110.615C161.608 110.615 157.768 108.194 149.281 98.8448C145 94.1288 139.17 88.7818 136.326 86.9628C131.982 84.1838 130.825 82.7718 129.09 78.1338C123.708 63.7488 124.922 53.7838 133.782 39.6148C137.736 33.2908 139.834 31.3358 149.497 24.9698C153.347 22.4338 159.197 18.2308 162.497 15.6308C171.677 8.39779 176.192 6.41279 181.871 7.11279C183.727 7.34179 186.142 8.33579 187.238 9.32179ZM45.912 11.0718C51.092 13.6968 60.796 24.8788 70.683 39.6148C79.618 52.9328 81.43 57.2168 81.465 65.1148C81.508 74.5808 77.799 81.3838 69.47 87.1148C63.33 91.3398 55.959 98.2188 49.772 105.497L46.047 109.879L40.772 109.212C37.871 108.844 33.027 107.322 30.009 105.829C25.089 103.396 24.374 102.631 23.108 98.4448C22.249 95.6038 19.215 90.7238 15.361 85.9868C6.853 75.5258 5.586 72.6658 5.667 64.1148C5.776 52.7558 15.015 24.6448 21.344 16.4178C27.542 8.35979 36.65 6.37779 45.912 11.0718ZM32.997 14.3448C29.166 15.0358 24.467 19.0798 21.661 24.1008C14.943 36.1208 10.997 50.4308 10.997 62.7758C10.997 72.4608 11.686 74.0618 21.255 86.6148C29.588 97.5468 34.788 101.078 41.345 100.259C49.958 99.1838 52.867 90.9528 46.997 84.2678C43.382 80.1498 43.307 79.6148 46.348 79.6148C49.153 79.6148 54.998 77.6898 54.995 76.7668C54.993 76.4078 52.571 74.8498 49.611 73.3028C46.651 71.7568 43.275 69.4748 42.107 68.2318L39.985 65.9728L48.491 66.4188C57.429 66.8878 58.932 66.1128 54.594 63.2698C53.272 62.4038 51.201 60.3058 49.992 58.6068L47.792 55.5188L52.888 56.1948C59.381 57.0558 60.997 55.8298 60.997 50.0418C60.997 40.3908 56.31 26.6478 51.193 21.2948C45.901 15.7588 39.247 13.2168 32.997 14.3448ZM170.843 22.9488C164.848 26.5588 153.22 35.6018 148.654 40.2068C144.4 44.4958 142.701 48.3998 143.349 52.3938C144.114 57.1088 146.391 59.3328 151.336 60.1938L155.497 60.9188L152.018 62.3628C148.69 63.7448 148.624 63.8688 150.492 65.2348C151.566 66.0198 154.154 66.9358 156.243 67.2698C160.962 68.0248 161.835 69.1928 158.231 69.9308C156.727 70.2388 154.614 71.1448 153.535 71.9448C151.902 73.1538 151.788 73.6578 152.854 74.9428C153.559 75.7918 155.448 76.7748 157.052 77.1268C159.911 77.7548 159.94 77.8248 158.483 80.6418C156.698 84.0928 156.558 91.4178 158.173 96.8078C159.431 101.006 164.011 105.615 166.926 105.615C170.911 105.615 175.462 101.04 179.971 92.4998C182.461 87.7858 185.762 82.2768 187.309 80.2578C188.856 78.2378 191.31 74.0048 192.763 70.8498C196.283 63.2098 196.417 51.0318 193.116 38.6858C187.968 19.4278 182.779 15.7608 170.843 22.9488ZM98.204 88.6208C102.368 89.8468 103.534 89.8108 108.292 88.3108C120.219 84.5508 130.115 86.8098 140.742 95.7178C148.431 102.164 153.175 109.113 158.501 121.73C162.485 131.167 163.322 134.28 163.758 141.263C164.216 148.614 164.069 149.65 162.481 150.26C159.999 151.212 157.627 148.017 155.038 140.239C152.304 132.022 147.886 125.126 144.104 123.17C142.45 122.315 138.641 121.615 135.64 121.615C130.743 121.615 129.423 122.129 122.743 126.642C114.783 132.019 112.572 132.257 110.92 127.914C109.261 123.548 109.848 110.99 111.997 104.875C114.899 96.6178 114.672 94.7948 110.529 93.0638C106.578 91.4128 98.336 91.1548 94.623 92.5668C90.094 94.2888 89.518 97.0848 92.595 102.411C94.894 106.392 95.381 108.585 95.763 116.683C96.19 125.713 96.078 126.409 93.773 129.089C91.408 131.839 91.239 131.879 88.414 130.358C75.372 123.339 73.538 122.615 68.806 122.615C60.257 122.615 55.807 126.252 48.779 138.986C46.389 143.315 43.998 146.783 43.466 146.693C40.054 146.118 46.339 122.752 52.738 112.217C57.954 103.631 69.45 92.2508 76.072 89.1188C82.157 86.2408 89.555 86.0738 98.204 88.6208ZM71.997 133.115C71.997 133.39 71.097 134.515 69.997 135.615C65.617 139.995 68.983 147.015 75.463 147.015C78.169 147.015 79.656 146.392 80.905 144.737C82.446 142.694 82.758 142.622 83.932 144.037C87.027 147.766 78.457 150.261 71.563 147.64C65.93 145.498 62.823 135.424 67.247 133.646C69.801 132.62 71.997 132.374 71.997 133.115ZM140.82 135.388C140.997 136.638 140.013 139.681 138.633 142.15C136.231 146.447 136.217 146.575 138.283 145.127C141.379 142.959 145.982 143.252 148.683 145.789C149.955 146.985 150.997 148.448 150.998 149.039C150.999 151.021 159.6 161.083 163.736 163.942C165.986 165.497 170.393 167.812 173.53 169.087C178.45 171.087 178.927 171.502 177.004 172.113C175.003 172.748 174.931 172.978 176.303 174.349C177.674 175.721 177.212 176.291 171.808 179.9C165.089 184.387 159.607 190.869 152.675 202.522C145.103 215.252 142.997 215.625 142.997 204.237C142.997 189.024 136.051 177.61 126.797 177.617C124.848 177.618 125.028 177.885 127.981 179.367C130.431 180.596 132.301 182.76 134.281 186.654C139.732 197.374 138.89 209.868 132.328 215.629C129.256 218.327 128.279 218.61 122.212 218.561C113.098 218.487 107.171 216.104 104.02 211.248L101.542 207.43L100.744 210.51C99.772 214.263 96.262 216.246 87.257 218.13C78.998 219.858 75.637 219.188 71.423 214.974C67.281 210.833 65.623 205.021 66.267 196.911C66.861 189.422 69.102 185.29 75.044 180.722L79.497 177.3L75.997 177.969C68.882 179.329 63.771 185.343 62.011 194.427C60.597 201.72 59.374 204.615 57.706 204.615C55.662 204.615 51.773 200.011 45.457 190.115C42.297 185.165 37.882 179.41 35.646 177.326C31.799 173.741 31.699 173.506 33.788 172.959C36.689 172.201 36.58 171.202 33.441 169.771C30.142 168.269 30.972 167.034 35.8 166.262C41.79 165.305 47.989 160.505 53.021 152.927C58.391 144.841 59.85 144.378 68.187 148.12C73.345 150.435 74.931 150.703 79.989 150.116C85.255 149.505 85.942 149.643 86.943 151.514C87.825 153.163 87.533 155.145 85.526 161.124C84.135 165.267 82.997 168.933 82.997 169.271C82.997 170.94 87.95 163.303 91.497 156.165L95.497 148.115L101.455 147.809C110.113 147.364 111.468 147.941 113.353 152.876C115.307 157.993 121.805 168.615 122.981 168.615C123.437 168.615 122.515 165.578 120.931 161.865C117.789 154.5 117.317 151.159 119.247 149.951C119.935 149.52 123.224 149.306 126.557 149.473C130.698 149.681 132.968 149.356 133.725 148.446C134.628 147.361 133.877 147.173 129.665 147.429C123.73 147.79 119.545 145.715 121.734 143.496C122.723 142.492 123.436 142.678 125.298 144.428C129.333 148.218 135.006 146.897 136.8 141.75C137.616 139.409 137.437 138.223 135.88 135.664L133.947 132.485L137.222 132.8C139.749 133.043 140.571 133.634 140.82 135.388ZM134.243 137.865C134.922 139.711 134.023 141.615 132.473 141.615C130.436 141.615 129.666 139.719 131.033 138.071C132.516 136.285 133.635 136.213 134.243 137.865ZM74.661 139.182C75.449 141.236 73.867 142.771 72.093 141.674C70.582 140.74 71.278 137.615 72.997 137.615C73.582 137.615 74.33 138.32 74.661 139.182ZM137.669 147.787C136.024 149.013 132.468 150.183 129.169 150.582C123.683 151.246 123.59 151.308 126.312 152.442C131.175 154.468 133.828 153.848 138.286 149.64C142.766 145.411 142.386 144.27 137.669 147.787ZM66.708 150.598C70.13 153.862 71.641 154.615 74.767 154.615C76.883 154.615 79.488 153.941 80.556 153.116C82.353 151.729 82.199 151.661 78.497 152.2C75.264 152.67 73.347 152.188 68.497 149.681L62.497 146.58L66.708 150.598ZM83.247 178.221C76.419 184.932 80.62 195.479 92.497 201.445C101.253 205.843 115.437 202.423 121.033 194.564C123.425 191.205 124.593 185.127 123.605 181.188C122.329 176.104 119.255 175.237 102.126 175.127L86.497 175.026L83.247 178.221ZM102.263 191.849L101.237 196.115L101.185 189.615C101.142 184.277 101.325 183.514 102.21 185.349C102.964 186.911 102.98 188.866 102.263 191.849ZM92.311 187.03C96.611 191.016 97.305 197.762 93.486 198.451C91.877 198.741 91.736 198.561 92.747 197.512C94.586 195.603 94.296 194.124 91.408 190.692C88.25 186.939 84.298 186.509 83.808 189.865C83.568 191.507 83.314 191.71 82.869 190.615C82.534 189.79 82.636 188.103 83.096 186.865C84.243 183.781 88.895 183.864 92.311 187.03ZM121.191 187.142C122.064 189.058 122.059 189.953 121.17 190.842C120.273 191.739 119.997 191.498 119.997 189.815C119.997 186.745 116.023 186.894 113.034 190.076C111.194 192.034 110.84 193.259 111.297 196.077C111.827 199.342 111.72 199.537 109.934 198.581C106.935 196.976 107.458 192.298 111.101 188.15C115.002 183.706 119.425 183.265 121.191 187.142ZM112.38 220.993L122.264 224.355L114.88 225.979C110.82 226.872 106.077 227.878 104.341 228.215C100.45 228.97 87.815 226.934 85.39 225.16C83.788 223.989 84.007 223.787 87.552 223.171C90.351 222.684 102.497 218.208 102.497 217.663C102.497 217.645 106.945 219.143 112.38 220.993Z"/>
</mask>
<path fill-rule="evenodd" clip-rule="evenodd" d="M173.329 0.530792C169.875 1.40079 161.467 6.04479 160.493 7.62079C160.159 8.16079 155.524 11.7018 150.192 15.4898C131.037 29.0958 125.561 37.1308 119.56 60.4318C114.878 78.6118 114.032 79.6148 103.378 79.6148C96.733 79.6148 95.971 79.3978 94.048 76.9528C92.896 75.4878 91.777 73.3508 91.561 72.2028C88.682 56.9018 86.639 52.1548 74.874 33.4198C64.224 16.4618 59.608 11.4698 50.632 7.21079C33.704 -0.822208 27.42 -0.822208 20.016 7.21079C11.409 16.5478 0.00400087 49.8268 8.69527e-07 65.6148C-0.00199913 75.2858 3.446 82.9238 11.935 92.0478C16.518 96.9748 17.997 99.2868 17.997 101.525C17.997 108.538 21.622 113.358 30.145 117.678C40.647 123.001 41.851 126.992 37.494 142.027C33.823 154.698 28.694 161.756 20.747 165.075C18.685 165.937 16.997 166.849 16.997 167.103C16.997 167.356 18.347 168.262 19.997 169.115C23.706 171.033 23.772 171.957 20.285 173.183L17.573 174.137L24.066 178.77C31.16 183.833 35.778 189.804 43.597 204.029C49.344 214.483 56.134 221.903 62.554 224.743C65.079 225.86 73.075 228.847 80.321 231.381C92.512 235.643 94.245 235.99 103.497 236.033C111.763 236.071 114.885 235.614 121.497 233.401C125.897 231.929 131.522 230.207 133.997 229.576C136.472 228.945 140.566 227.544 143.095 226.464C148.158 224.301 152.493 219.106 164.247 201.115C172.432 188.587 177.93 182.325 183.724 178.929C187.884 176.491 188.106 176.168 186.448 174.955C184.513 173.54 184.547 173.42 187.305 171.94C188.859 171.107 188.247 170.436 182.939 167.16C175.394 162.503 173.217 158.31 169.926 142.094C166.935 127.359 167.441 124.828 174.404 119.684C181.268 114.613 186.376 108.601 187.837 103.873C188.476 101.806 191.392 96.8998 194.318 92.9708C205.566 77.8658 210.833 63.1988 209.594 50.4358C209.019 44.5118 199.019 17.8538 194.367 9.84279C190.026 2.36579 181.33 -1.48321 173.329 0.530792ZM187.238 9.32179C189.746 11.5778 196.192 25.3328 200.263 37.1148C206.205 54.3148 203.614 70.4888 192.414 86.0978C189.336 90.3868 185.886 95.7458 184.747 98.0058C180.504 106.427 174.924 110.615 167.948 110.615C161.608 110.615 157.768 108.194 149.281 98.8448C145 94.1288 139.17 88.7818 136.326 86.9628C131.982 84.1838 130.825 82.7718 129.09 78.1338C123.708 63.7488 124.922 53.7838 133.782 39.6148C137.736 33.2908 139.834 31.3358 149.497 24.9698C153.347 22.4338 159.197 18.2308 162.497 15.6308C171.677 8.39779 176.192 6.41279 181.871 7.11279C183.727 7.34179 186.142 8.33579 187.238 9.32179ZM45.912 11.0718C51.092 13.6968 60.796 24.8788 70.683 39.6148C79.618 52.9328 81.43 57.2168 81.465 65.1148C81.508 74.5808 77.799 81.3838 69.47 87.1148C63.33 91.3398 55.959 98.2188 49.772 105.497L46.047 109.879L40.772 109.212C37.871 108.844 33.027 107.322 30.009 105.829C25.089 103.396 24.374 102.631 23.108 98.4448C22.249 95.6038 19.215 90.7238 15.361 85.9868C6.853 75.5258 5.586 72.6658 5.667 64.1148C5.776 52.7558 15.015 24.6448 21.344 16.4178C27.542 8.35979 36.65 6.37779 45.912 11.0718ZM32.997 14.3448C29.166 15.0358 24.467 19.0798 21.661 24.1008C14.943 36.1208 10.997 50.4308 10.997 62.7758C10.997 72.4608 11.686 74.0618 21.255 86.6148C29.588 97.5468 34.788 101.078 41.345 100.259C49.958 99.1838 52.867 90.9528 46.997 84.2678C43.382 80.1498 43.307 79.6148 46.348 79.6148C49.153 79.6148 54.998 77.6898 54.995 76.7668C54.993 76.4078 52.571 74.8498 49.611 73.3028C46.651 71.7568 43.275 69.4748 42.107 68.2318L39.985 65.9728L48.491 66.4188C57.429 66.8878 58.932 66.1128 54.594 63.2698C53.272 62.4038 51.201 60.3058 49.992 58.6068L47.792 55.5188L52.888 56.1948C59.381 57.0558 60.997 55.8298 60.997 50.0418C60.997 40.3908 56.31 26.6478 51.193 21.2948C45.901 15.7588 39.247 13.2168 32.997 14.3448ZM170.843 22.9488C164.848 26.5588 153.22 35.6018 148.654 40.2068C144.4 44.4958 142.701 48.3998 143.349 52.3938C144.114 57.1088 146.391 59.3328 151.336 60.1938L155.497 60.9188L152.018 62.3628C148.69 63.7448 148.624 63.8688 150.492 65.2348C151.566 66.0198 154.154 66.9358 156.243 67.2698C160.962 68.0248 161.835 69.1928 158.231 69.9308C156.727 70.2388 154.614 71.1448 153.535 71.9448C151.902 73.1538 151.788 73.6578 152.854 74.9428C153.559 75.7918 155.448 76.7748 157.052 77.1268C159.911 77.7548 159.94 77.8248 158.483 80.6418C156.698 84.0928 156.558 91.4178 158.173 96.8078C159.431 101.006 164.011 105.615 166.926 105.615C170.911 105.615 175.462 101.04 179.971 92.4998C182.461 87.7858 185.762 82.2768 187.309 80.2578C188.856 78.2378 191.31 74.0048 192.763 70.8498C196.283 63.2098 196.417 51.0318 193.116 38.6858C187.968 19.4278 182.779 15.7608 170.843 22.9488ZM98.204 88.6208C102.368 89.8468 103.534 89.8108 108.292 88.3108C120.219 84.5508 130.115 86.8098 140.742 95.7178C148.431 102.164 153.175 109.113 158.501 121.73C162.485 131.167 163.322 134.28 163.758 141.263C164.216 148.614 164.069 149.65 162.481 150.26C159.999 151.212 157.627 148.017 155.038 140.239C152.304 132.022 147.886 125.126 144.104 123.17C142.45 122.315 138.641 121.615 135.64 121.615C130.743 121.615 129.423 122.129 122.743 126.642C114.783 132.019 112.572 132.257 110.92 127.914C109.261 123.548 109.848 110.99 111.997 104.875C114.899 96.6178 114.672 94.7948 110.529 93.0638C106.578 91.4128 98.336 91.1548 94.623 92.5668C90.094 94.2888 89.518 97.0848 92.595 102.411C94.894 106.392 95.381 108.585 95.763 116.683C96.19 125.713 96.078 126.409 93.773 129.089C91.408 131.839 91.239 131.879 88.414 130.358C75.372 123.339 73.538 122.615 68.806 122.615C60.257 122.615 55.807 126.252 48.779 138.986C46.389 143.315 43.998 146.783 43.466 146.693C40.054 146.118 46.339 122.752 52.738 112.217C57.954 103.631 69.45 92.2508 76.072 89.1188C82.157 86.2408 89.555 86.0738 98.204 88.6208ZM71.997 133.115C71.997 133.39 71.097 134.515 69.997 135.615C65.617 139.995 68.983 147.015 75.463 147.015C78.169 147.015 79.656 146.392 80.905 144.737C82.446 142.694 82.758 142.622 83.932 144.037C87.027 147.766 78.457 150.261 71.563 147.64C65.93 145.498 62.823 135.424 67.247 133.646C69.801 132.62 71.997 132.374 71.997 133.115ZM140.82 135.388C140.997 136.638 140.013 139.681 138.633 142.15C136.231 146.447 136.217 146.575 138.283 145.127C141.379 142.959 145.982 143.252 148.683 145.789C149.955 146.985 150.997 148.448 150.998 149.039C150.999 151.021 159.6 161.083 163.736 163.942C165.986 165.497 170.393 167.812 173.53 169.087C178.45 171.087 178.927 171.502 177.004 172.113C175.003 172.748 174.931 172.978 176.303 174.349C177.674 175.721 177.212 176.291 171.808 179.9C165.089 184.387 159.607 190.869 152.675 202.522C145.103 215.252 142.997 215.625 142.997 204.237C142.997 189.024 136.051 177.61 126.797 177.617C124.848 177.618 125.028 177.885 127.981 179.367C130.431 180.596 132.301 182.76 134.281 186.654C139.732 197.374 138.89 209.868 132.328 215.629C129.256 218.327 128.279 218.61 122.212 218.561C113.098 218.487 107.171 216.104 104.02 211.248L101.542 207.43L100.744 210.51C99.772 214.263 96.262 216.246 87.257 218.13C78.998 219.858 75.637 219.188 71.423 214.974C67.281 210.833 65.623 205.021 66.267 196.911C66.861 189.422 69.102 185.29 75.044 180.722L79.497 177.3L75.997 177.969C68.882 179.329 63.771 185.343 62.011 194.427C60.597 201.72 59.374 204.615 57.706 204.615C55.662 204.615 51.773 200.011 45.457 190.115C42.297 185.165 37.882 179.41 35.646 177.326C31.799 173.741 31.699 173.506 33.788 172.959C36.689 172.201 36.58 171.202 33.441 169.771C30.142 168.269 30.972 167.034 35.8 166.262C41.79 165.305 47.989 160.505 53.021 152.927C58.391 144.841 59.85 144.378 68.187 148.12C73.345 150.435 74.931 150.703 79.989 150.116C85.255 149.505 85.942 149.643 86.943 151.514C87.825 153.163 87.533 155.145 85.526 161.124C84.135 165.267 82.997 168.933 82.997 169.271C82.997 170.94 87.95 163.303 91.497 156.165L95.497 148.115L101.455 147.809C110.113 147.364 111.468 147.941 113.353 152.876C115.307 157.993 121.805 168.615 122.981 168.615C123.437 168.615 122.515 165.578 120.931 161.865C117.789 154.5 117.317 151.159 119.247 149.951C119.935 149.52 123.224 149.306 126.557 149.473C130.698 149.681 132.968 149.356 133.725 148.446C134.628 147.361 133.877 147.173 129.665 147.429C123.73 147.79 119.545 145.715 121.734 143.496C122.723 142.492 123.436 142.678 125.298 144.428C129.333 148.218 135.006 146.897 136.8 141.75C137.616 139.409 137.437 138.223 135.88 135.664L133.947 132.485L137.222 132.8C139.749 133.043 140.571 133.634 140.82 135.388ZM134.243 137.865C134.922 139.711 134.023 141.615 132.473 141.615C130.436 141.615 129.666 139.719 131.033 138.071C132.516 136.285 133.635 136.213 134.243 137.865ZM74.661 139.182C75.449 141.236 73.867 142.771 72.093 141.674C70.582 140.74 71.278 137.615 72.997 137.615C73.582 137.615 74.33 138.32 74.661 139.182ZM137.669 147.787C136.024 149.013 132.468 150.183 129.169 150.582C123.683 151.246 123.59 151.308 126.312 152.442C131.175 154.468 133.828 153.848 138.286 149.64C142.766 145.411 142.386 144.27 137.669 147.787ZM66.708 150.598C70.13 153.862 71.641 154.615 74.767 154.615C76.883 154.615 79.488 153.941 80.556 153.116C82.353 151.729 82.199 151.661 78.497 152.2C75.264 152.67 73.347 152.188 68.497 149.681L62.497 146.58L66.708 150.598ZM83.247 178.221C76.419 184.932 80.62 195.479 92.497 201.445C101.253 205.843 115.437 202.423 121.033 194.564C123.425 191.205 124.593 185.127 123.605 181.188C122.329 176.104 119.255 175.237 102.126 175.127L86.497 175.026L83.247 178.221ZM102.263 191.849L101.237 196.115L101.185 189.615C101.142 184.277 101.325 183.514 102.21 185.349C102.964 186.911 102.98 188.866 102.263 191.849ZM92.311 187.03C96.611 191.016 97.305 197.762 93.486 198.451C91.877 198.741 91.736 198.561 92.747 197.512C94.586 195.603 94.296 194.124 91.408 190.692C88.25 186.939 84.298 186.509 83.808 189.865C83.568 191.507 83.314 191.71 82.869 190.615C82.534 189.79 82.636 188.103 83.096 186.865C84.243 183.781 88.895 183.864 92.311 187.03ZM121.191 187.142C122.064 189.058 122.059 189.953 121.17 190.842C120.273 191.739 119.997 191.498 119.997 189.815C119.997 186.745 116.023 186.894 113.034 190.076C111.194 192.034 110.84 193.259 111.297 196.077C111.827 199.342 111.72 199.537 109.934 198.581C106.935 196.976 107.458 192.298 111.101 188.15C115.002 183.706 119.425 183.265 121.191 187.142ZM112.38 220.993L122.264 224.355L114.88 225.979C110.82 226.872 106.077 227.878 104.341 228.215C100.45 228.97 87.815 226.934 85.39 225.16C83.788 223.989 84.007 223.787 87.552 223.171C90.351 222.684 102.497 218.208 102.497 217.663C102.497 217.645 106.945 219.143 112.38 220.993Z"  mask="url(#path-1-inside-1_1_17)"/>
</svg>
