<svg width="28" height="28" fill="none" xmlns="http://www.w3.org/2000/svg"><g clip-path="url(#a)" filter="url(#b)" fill="#AFB1B8"><path d="M23.995 20v-.0008H24v-7.335c0-3.5883-.7725-6.3525-4.9675-6.3525-2.0167 0-3.37 1.1067-3.9225 2.1558h-.0583V6.6467h-3.9775v13.3525h4.1416v-6.6117c0-1.7408.33-3.4241 2.4859-3.4241 2.1241 0 2.1558 1.9866 2.1558 3.5358V20h4.1375ZM4.33 6.6475h4.1466V20H4.33V6.6475ZM6.4017 0C5.0758 0 4 1.0758 4 2.4017c0 1.3258 1.0758 2.4241 2.4017 2.4241 1.3258 0 2.4016-1.0983 2.4016-2.4241C8.8025 1.0758 7.7267 0 6.4017 0Z"/></g><defs><clipPath id="a"><path fill="#fff" transform="translate(4)" d="M0 0h20v20H0z"/></clipPath><filter id="b" x="0" y="0" width="28" height="28" filterUnits="userSpaceOnUse" color-interpolation-filters="sRGB"><feFlood flood-opacity="0" result="BackgroundImageFix"/><feColorMatrix in="SourceAlpha" values="0 0 0 0 0 0 0 0 0 0 0 0 0 0 0 0 0 0 127 0" result="hardAlpha"/><feOffset dy="4"/><feGaussianBlur stdDeviation="2"/><feComposite in2="hardAlpha" operator="out"/><feColorMatrix values="0 0 0 0 0 0 0 0 0 0 0 0 0 0 0 0 0 0 0.25 0"/><feBlend in2="BackgroundImageFix" result="effect1_dropShadow_1_732"/><feBlend in="SourceGraphic" in2="effect1_dropShadow_1_732" result="shape"/></filter></defs></svg>