<svg width="299" height="261" fill="none" xmlns="http://www.w3.org/2000/svg"><path fill-rule="evenodd" clip-rule="evenodd" d="M47.1455.496C30.2332 3.1381 21.717 9.2001 13.0108 24.7973 6.6236 36.2419 0 56.6408 0 64.8679c0 12.2305 10.5975 37.8361 19.9419 48.1801 6.1863 6.849 14.846 10.268 23.1272 9.133 8.3017-1.138 13.8498-4.208 16.352-9.048 2.9858-5.777 2.6948-19.4533-.5466-25.7285C56.2589 82.3444 44.3004 69.6669 43.2126 70.8c-.3157.3294-.0082 3.9816.6833 8.1163.6928 4.1348.9032 9.5543.4687 12.0447-1.8913 10.827-12.3795-.6492-13.8786-15.1871-.8212-7.9523 1.0509-12.9085 8.9918-23.8036 5.5154-7.5683 11.2289-10.4059 20.7782-10.3184 7.4449.067 16.0937 3.152 16.4408 5.8624.4592 3.5784.4537 9.5324-.0096 9.5324-1.7163 0-10.126-6.2273-12.5202-9.2713-2.3395-2.9743-3.0596-3.2572-4.1009-1.6102-4.1379 6.5418.5493 23.5249 8.8961 32.2386 3.1512 3.2886 4.9113 5.9799 3.9138 5.9799-.999 0-1.8162.4279-1.8162.95 0 2.0147 7.4641 8.618 9.7407 8.618 3.3508 0 3.7211 1.1782 2.5759 8.2013l-1.0016 6.151-1.0413-4.421c-1.2983-5.515-2.9217-4.6361-4.8813 2.645-1.95 7.243-.7079 13.622 3.6664 18.822 1.9159 2.277 2.7727 4.14 1.905 4.14-3.0064 0-6.8218-2.82-8.8333-6.527l-2.0211-3.725-.0547 5.71c-.0437 4.621.6614 6.287 3.7033 8.734l3.758 3.022-3.7211-.89c-6.1467-1.47-3.0911 2.935 3.3795 4.874 4.3168 1.293 6.3038 2.99 9.0833 7.749 1.9569 3.35 5.3117 8.147 7.4572 10.657 3.0897 3.618 3.4259 4.567 1.618 4.567-1.2545 0-3.4574-.629-4.8936-1.398-2.1249-1.137-2.4597-1.001-1.7942.735.4509 1.174 3.0501 3.365 5.7777 4.869l4.9574 2.734-4.4409-.499c-2.442-.275-4.4412-.091-4.4412.411 0 1.524 6.7274 4.083 10.7351 4.083 6.694 0 8.178 2.393 8.901 14.352 1.131 18.681 3.04 29.842 6.137 35.88 1.638 3.195 3.199 5.809 3.467 5.809.269 0 .248-2.921-.044-6.493l-.532-6.492 2.071 5.343c2 5.165 4.288 8.474 12.811 18.534l4.019 4.743-.75-3.92c-.524-2.739-.278-3.629.815-2.954.861.533 1.614 2.316 1.673 3.963.059 1.647.418 2.226.797 1.286 1.37-3.397 3.195-1.602 3.195 3.144 0 2.668.971 6.731 2.16 9.031l2.161 4.178 2.123-3.034c1.169-1.668 2.43-5.74 2.803-9.049.552-4.896 1.026-5.726 2.549-4.463 1.478 1.229 1.869.964 1.869-1.268 0-1.55.64-3.215 1.421-3.699.924-.571 1.126.476.576 2.995-.846 3.872-.845 3.872 1.653 1.003 8.496-9.754 14.118-17.496 14.136-19.464.012-1.248.677-3.191 1.48-4.319 1.075-1.513 1.249-.258.658 4.784l-.798 6.834 2.748-4.1c3.551-5.294 5.644-13.033 5.272-19.486-.162-2.815.466-6.534 1.397-8.263.998-1.855 1.528-6.814 1.29-12.088-.448-9.991 1.439-12.787 8.627-12.787 4.008 0 10.735-2.559 10.735-4.083 0-.502-1.997-.66-4.441-.353l-4.441.56 4.1-2.625c2.254-1.443 5.022-3.761 6.149-5.151 1.886-2.326 1.831-2.44-.683-1.434-7.605 3.045-7.908 2.695-3.216-3.717 2.52-3.443 5.823-8.298 7.34-10.79 1.562-2.565 4.581-5.121 6.966-5.896 4.894-1.593 8.724-4.485 8.724-6.59 0-.959-.571-.902-1.639.167-.902.902-2.53 1.64-3.616 1.64-1.278 0-.699-1.184 1.64-3.351 2.648-2.457 3.615-4.698 3.615-8.386v-5.034l-3.028 3.943c-3.572 4.653-5.221 5.945-7.632 5.973-1.086.013-.32-1.891 1.971-4.896 4.382-5.746 5.065-15.083 1.585-21.657l-2.129-4.0218-.958 4.3628c-1.406 6.405-2.756 5.304-3.037-2.482-.228-6.3135-.008-6.8233 2.953-6.8233 4.073 0 11.929-8.6385 8.473-9.3178-1.703-.3349-1.129-1.509 2.523-5.1613 7.279-7.2825 10.62-14.9451 10.768-24.6976.152-10.0409-1.2-12.0078-4.827-7.027-2.483 3.4103-10.534 9.2987-12.713 9.2987-.52 0-.755-2.2758-.522-5.0587.339-4.0527 1.311-5.5754 4.884-7.6543 5.633-3.2791 18.682-3.4978 24.645-.4142 5.094 2.6339 14.753 15.742 16.912 22.9481 2.868 9.5775-3.605 28.451-9.757 28.451-3.762 0-4.834-5.2611-3.242-15.9129.715-4.7799 1.089-8.6905.832-8.6905-1.963 0-8.017 5.5276-12.003 10.9581-9.373 12.7732-9.131 29.9517.515 36.4537 2.467 1.664 7.269 3.442 10.671 3.952 13.797 2.069 24.474-5.595 33.523-24.0664 8.034-16.3981 11.048-26.8272 10.261-35.4985-1.868-20.5834-20.16-56.0408-28.91-56.0408-1.719 0-4.886-1.3833-7.037-3.0755-3.749-2.9483-4.985-3.074-29.906-3.033-30.346.0492-37.322 1.5309-48.269 10.2486-7.849 6.252-18.049 18.6589-24.968 30.3728-2.554 4.322-4.971 7.8594-5.373 7.8594-.402 0-1.747-1.6744-2.989-3.7205l-2.256-3.722-1.696 3.722c-.932 2.0461-2.166 3.7205-2.741 3.7205-.575 0-3.013-3.4376-5.416-7.6379-10.541-18.4279-26.975-34.6046-38.878-38.2705C93.6282.8391 55.987-.8845 47.1455.496Zm18.4482 3.6386c0 .216-1.2299 2.8061-2.7331 5.7558-1.5032 2.9496-2.6893 6.6155-2.636 8.1478.0615 1.8001 1.0591.6151 2.8137-3.3461 3.9411-8.8913 6.2615-10.9526 12.333-10.9526 5.9868 0 6.3803.9336 2.4843 5.887-3.076 3.912-7.2795 13.2216-6.3762 14.1237.3184.3185 1.3132-1.1932 2.211-3.3597.8965-2.1664 4.2882-6.5472 7.5365-9.7361l5.9075-5.7981 6.6523 1.9177 6.6533 1.919-4.0992 2.1856c-5.8734 3.1301-11.14 9.0991-13.6025 15.414-2.043 5.2378-2.0348 5.3239.1981 2.0503 4.157-6.0948 15.282-16.3066 18.6996-17.1649 3.154-.7914 10.42 2.5177 10.42 4.7457 0 .5139-1.999 1.6593-4.441 2.545-5.924 2.1487-13.3992 8.5114-16.6406 14.1647l-2.6333 4.594 6.4322-5.8761c5.8197-5.3157 16.5377-11.2095 20.3817-11.2095 1.726 0 7.833 5.4291 7.833 6.9641 0 .5604-1.999 1.4516-4.441 1.9792-6.942 1.498-13.579 5.3908-18.7899 11.0195-3.5202 3.8026-3.881 4.5434-1.3665 2.8075 6.5994-4.5584 18.2144-9.4886 23.7694-10.0887 4.634-.5003 5.916-.1011 7.366 2.2963 2.129 3.521 1.124 5.5248-2.77 5.5248-4.678 0-13.761 5.0396-18.858 10.4633l-4.725 5.0245 4.636-3.1916c6.267-4.3138 19.119-9.49 23.665-9.5297 3.148-.0273 3.95.7887 5.344 5.4428 1.959 6.5404 1.421 7.3605-3.581 5.4592-4.263-1.6211-6.112-.7832-3.666 1.6635 2.734 2.7351 1.88 3.1383-5.557 2.6243l-7.175-.4961 3.416 2.7815 3.416 2.7802-8.882-.7846c-4.885-.4319-10.112-1.5418-11.616-2.4644-1.503-.9226-4.4558-2.079-6.5603-2.5683-2.2193-.5153-7.9642-5.1189-13.6654-10.9471C71.7896 35.4942 64.4964 32.0088 46.193 29.3407c-9.0998-1.3272-11.2329-1.2329-15.2259.6725-9.3553 4.4627-20.3819 22.2714-22.6408 36.57-1.4267 9.0281-2.3368 9.6979-3.3794 2.4863-1.0618-7.355 1.4335-16.9079 8.1623-31.2516 3.6555-7.7911 5.7025-10.7325 7.0991-10.1967 1.3748.5276 1.7055.0888 1.1083-1.4667-.4728-1.2342.4919-4.393 2.1714-7.1117l3.0228-4.8919 1.715 4.0199 1.715 4.0212.0615-5.7612c.0451-4.2564.7516-6.1304 2.7044-7.176 4.9687-2.6599 6.4022-1.7673 5.9622 3.711l-.4114 5.1257 2.0772-5.4018c2.3026-5.991 4.0148-7.5314 8.4083-7.5628 2.7494-.0191 2.8656.339 1.5988 4.9275-.9484 3.4363-.9142 5.3991.1107 6.4242 1.0563 1.0566 1.4759.8037 1.4759-.8912 0-1.3026.8909-4.501 1.9801-7.1076 1.7327-4.147 2.5868-4.7402 6.8326-4.7402 2.6689 0 4.8526.1776 4.8526.395ZM232.351 7.896c1.629 2.2868 3.462 5.8242 4.076 7.8594l1.115 3.7028.118-4.1812c.064-2.299-.786-5.3744-1.889-6.8342-2.887-3.8176-2.572-4.706 1.665-4.6828 5.288.03 6.564 1.1905 9 8.1806l2.144 6.1508.064-6.3641c.06-5.8925.294-6.3107 3.14-5.6355 4.502 1.0689 6.488 4.2878 6.512 10.5521.016 4.0855.37 5.0081 1.346 3.4978.728-1.1277 1.333-4.3562 1.346-7.176.023-5.6902.745-6.1071 5.186-2.9961 2.585 1.811 2.923 2.9893 2.26 7.8594-.731 5.3703-.645 5.563 1.364 3.0767 1.178-1.4598 2.156-3.305 2.173-4.1005.06-2.8362 5.376 5.4441 5.406 8.4198.019 1.9573.675 2.7843 1.85 2.3332 1.83-.7026 7.952 11.0059 12.474 23.8515 2.347 6.6716 2.875 23.406.738 23.406-.752 0-1.367-2.0339-1.367-4.5188 0-12.5778-12.944-35.5983-22.609-40.2087-4.183-1.9956-6.181-2.0899-15.502-.7299-20.311 2.9606-30.504 8.1-39.781 20.0558-2.947 3.7958-6.62 6.7673-9.566 7.7337-2.631.8638-6.013 2.3305-7.516 3.2586-1.503.9294-6.622 2.0366-11.377 2.4617-8.611.7695-8.635.7626-6.149-1.9998 2.475-2.7501 2.443-2.7678-3.997-2.2621-6.646.5221-8.041-.7094-4.783-4.2208 1.398-1.5077 1.25-1.6799-.81-.9514-1.385.4894-3.977 1.2562-5.76 1.7045-3.223.8092-3.232.7777-1.529-5.1312 1.38-4.7921 2.386-6.025 5.184-6.3558 5.006-.5905 18.417 4.7908 23.867 9.5762 5.948 5.2241 6.142 3.0207.229-2.5998-5.105-4.8523-14.693-9.9835-18.654-9.9835-3.689 0-4.675-2.0653-2.586-5.4113 1.059-1.699 3.197-2.7898 5.461-2.7898 5.375 0 18.217 5.1079 23.033 9.1606 6.167 5.1913 6.137 3.0618-.042-2.9742-3.567-3.4841-8.375-6.2616-14.273-8.2462l-8.893-2.9934 3.781-3.6249c2.08-1.9929 4.537-3.6235 5.461-3.6235 3.215 0 15.39 6.9654 20.989 12.0077 4.084 3.6796 5.188 4.2332 4.008 2.012-2.621-4.9302-12.683-13.9172-17.554-15.6791-2.469-.8925-4.489-2.0803-4.489-2.638 0-1.453 5.733-5.2706 7.915-5.2706 3.369 0 13.988 8.3173 17.611 13.7929 4.534 6.852 5.626 5.9991 1.835-1.4338-1.603-3.1424-5.618-7.5943-8.997-9.9767-6.535-4.6076-6.26-5.4851 2.19-6.9996 4.328-.775 5.359-.324 9.757 4.2673 2.705 2.8239 5.924 7.1322 7.153 9.5762 1.23 2.4439 2.484 4.4422 2.789 4.4422 1.614 0-2.502-9.408-6.047-13.8202-4.425-5.5084-3.941-6.3873 3.623-6.5746 3.352-.0833 5.026.8447 7.307 4.0486Zm-80.686 46.9104c.018 2.2594.331 2.1828 2.79-.6835l2.772-3.2271-.908 6.8343c-.892 6.7194-.862 6.7932 1.778 4.4422 3.564-3.1738 4.959-3.0317 3.165.3226-1.339 2.5027-1.176 2.6093 2.091 1.3669 7.051-2.6818 8.267-1.6239 3.632 3.1601-2.402 2.4781-4.367 4.8551-4.367 5.2815 0 .4251 2.871-.6807 6.38-2.4576 6.118-3.0973 14.144-4.3548 14.095-2.2061-.014.5632-2.012 2.4699-4.442 4.2345l-4.418 3.2094 9.207-.6588c5.064-.3622 8.885-.1381 8.491.4989-1.159 1.8767-10.355 3.9761-17.446 3.9843-8.41.011-11.379 1.6621-13.92 7.7419-2.893 6.9258-2.555 7.3167 1.353 1.565 3.882-5.7161 4.687-6.0414 17.963-7.273 10.803-1.0019 17.443-4.1894 19.883-9.5461 2.128-4.6719.848-5.4141-4.564-2.6448-4.541 2.3236-4.553 2.3223-2.136-.3937 1.337-1.5021 5.026-3.8012 8.199-5.1079 4.793-1.9765 11.116-4.8004 16.369-7.3099.57-.272.415 1.1358-.342 3.1287s-1.377 3.8614-1.377 4.1525c0 1.5281 13.117-3.7233 16.067-6.431l3.441-3.1602-.76 5.9472c-1.145 8.9556-7.346 17.9057-16.004 23.0984l-7.407 4.4422 5.406.0438c5.146.041 5.275.1449 2.673 2.1542-2.657 2.0516-7.034 2.001-15.715-.1805-3.402-.8543-3.404-.8474-.641 1.6375 5.571 5.0109 7.475 9.1429 7.426 16.1276-.028 3.779-.928 8.409-2.002 10.288-3.146 5.504-2.418 5.906 4.099 2.264 3.382-1.891 6.147-3.02 6.144-2.51-.012 2.208-5.611 9.85-8.696 11.873-5.702 3.735-5.592 6.066.241 5.166l5.044-.779-3.38 3.684c-1.86 2.027-5.242 7.15-7.516 11.387-4.827 8.991-8.454 11.356-7.11 4.636 1.131-5.657.217-5.407-3.082.842l-2.706 5.126-.171-4.784-.17-4.784-1.878 4.101c-1.033 2.255-1.905 5.828-1.939 7.94-.04 2.487-.604 3.504-1.6 2.888-.99-.611-1.285-3.688-.828-8.624.675-7.3.62-7.473-1.133-3.571-2.006 4.463-2.4 21.535-.763 33.012.554 3.874.448 8.487-.234 10.251l-1.238 3.21-1.188-3.076c-1.699-4.395-3.021-3.801-1.989.896.5 2.277.256 4.352-.574 4.864-.796.492-1.447-.028-1.447-1.156s-.512-2.367-1.138-2.754c-.627-.387-1.14 1.988-1.14 5.278 0 7.299-3.113 12.39-9.417 15.397-3.535 1.686-5.675 1.924-8.474.944-3.346-1.17-3.789-2.065-4.157-8.394-.49-8.467 2.393-15.023 6.888-15.661 2.793-.396 3.106-1.226 3.266-8.64.097-4.51-.105-6.439-.448-4.285-.823 5.168-6.845 10.35-12.027 10.35-5.467 0-11.59-5.463-11.702-10.442-.077-3.341-.228-3.477-1.204-1.07-.615 1.515-.721 5.205-.236 8.201.69 4.276 1.54 5.542 3.95 5.886 4.059.58 7.142 6.81 7.142 14.431 0 7.962-2.833 10.98-9.316 9.928-8.763-1.422-15.129-11.139-13.415-20.479l.792-4.319-2.056 3.759c-2.836 5.182-3.843 4.703-2.881-1.367l.813-5.125-2.479 3.249-2.479 3.249-.848-3.244c-.466-1.785-.181-7.552.637-12.816 1.731-11.16.981-27.673-1.431-31.508-1.436-2.284-1.587-1.781-1.041 3.481.349 3.383.125 7.381-.499 8.885-1.062 2.558-1.141 2.568-1.231.158-.052-1.416-.864-5.106-1.804-8.201l-1.708-5.626-.732 4.784-.731 4.784-3.065-5.467-3.065-5.468.83 4.443c1.549 8.287-2.9754 4.748-8.846-6.921-1.8216-3.618-4.8252-7.77-6.6755-9.226l-3.3658-2.648h4.0108c2.2056 0 4.7487.738 5.6506 1.641.9019.902 1.6399 1.077 1.6399.388 0-.688-2.7017-4.041-6.0046-7.45-6.3517-6.555-10.5743-15.064-5.4511-10.981 2.8014 2.232 8.3099 5.468 9.3102 5.468.3444 0-.63-2.838-2.1632-6.306-3.9042-8.827-2.6156-16.7491 3.762-23.1268 4.8758-4.8769 3.7935-6.1604-2.7002-3.1998-3.6897 1.6812-13.1516.529-13.1516-1.6006 0-.7176 2.2794-1.3054 5.0644-1.3054h5.0644l-7.4025-4.4422c-8.8634-5.3184-14.5823-13.0357-16.2099-21.8696-.6573-3.5702-.8527-6.4926-.4345-6.4926.4181 0 2.1099 1.2685 3.7593 2.8185 1.6494 1.55 5.9021 3.6918 9.4482 4.7594 6.0087 1.8083 6.3831 1.7796 5.4757-.4265-2.8998-7.0393-2.5991-7.4534 2.7604-3.8163 2.8356 1.9246 6.0155 3.4992 7.0678 3.4992 2.6592 0 11.8802 4.8386 13.9322 7.3099 1.428 1.7222 1.249 1.9259-1.137 1.3026-1.558-.4073-3.168-1.2821-3.577-1.9437-1.287-2.0844-3.3134-1.3039-3.3134 1.2767 0 1.3627 1.8024 4.2044 4.0054 6.3162 3.439 3.2955 5.901 4.0924 17.423 5.6396 7.379.991 13.511 1.8398 13.626 1.8849.113.0465 1.487 2.0831 3.051 4.5257 3.245 5.0682 3.907 2.8553.891-2.977-2.412-4.6651-4.475-5.5631-12.803-5.5741-6.722-.0068-16.088-2.1145-17.167-3.86-.352-.5686 3.469-.8023 8.491-.5193l9.13.5153-5.466-3.8737-5.466-3.8723 4.594-.4401c2.862-.2734 7.116.8078 11.274 2.8663 3.675 1.8192 6.68 3.115 6.68 2.8799 0-.2351-1.997-2.7022-4.438-5.4824-4.374-4.9822-4.389-5.0451-1.024-4.3234 1.876.4019 4.564 1.2124 5.973 1.8016 2.504 1.047 2.504.9827 0-2.8991l-2.561-3.9707 3.71 2.3919c2.04 1.3163 3.956 2.392 4.258 2.392.301 0 .097-2.4603-.452-5.4674-1.122-6.1344-.014-6.9682 3.178-2.392l2.144 3.0755.073-3.5306c.038-1.9423.49-3.9502 1.003-4.4628 1.22-1.2219 3.12 1.8398 3.147 5.0697Zm-4.079 25.7145v5.7066l-3.635-3.3146c-3.224-2.9373-3.516-3.003-2.586-.5795 3.04 7.9099 3.612 12.0283 2.226 16.0031-1.288 3.6984-1.018 4.6554 2.418 8.5684l3.867 4.407 3.995-4.239c3.915-4.153 3.956-4.347 2.041-9.8422-1.723-4.9453-1.694-6.3914.235-12.3017l2.188-6.6962-3.184 3.6714c-3.728 4.2987-4.832 3.7205-4.832-2.5328 0-2.5054-.615-4.5557-1.367-4.5557-.751 0-1.366 2.5669-1.366 5.7052ZM55.9883 95.3186c1.6795 6.1824-.3006 14.9954-4.0517 18.0354-3.4956 2.834-13.6558 4.511-18.7803 3.1-3.6569-1.006-3.5749-1.099 2.5663-2.924 11.6798-3.47 16.1497-11.212 14.324-24.8079l-.8568-6.3886 2.7481 4.1005c1.5128 2.2553 3.3344 6.2534 4.0504 8.8846ZM248.995 90.92c-.988 13.666 3.55 20.161 15.953 22.835 5.459 1.176 3.348 3.383-3.256 3.404-16.821.055-23.741-10.969-16.633-26.4973 1.925-4.2044 3.726-7.6448 4.003-7.6448.279 0 .247 3.5565-.067 7.9031Zm-134.365.4251c-1.357.8598-.851 1.2042 1.787 1.2193 5.974.0341 5.626 2.3373-.477 3.156-3.096.4155-6.619 1.7605-7.831 2.9893-2.034 2.0643-1.909 2.1243 1.644.7887 2.116-.7955 7.217-1.4461 11.337-1.4461 7.856 0 10.427 1.5554 15.81 9.5677l2.295 3.417-.246-6.483c-.192-5.0788-.747-6.4853-2.559-6.4922-1.272-.0054-4.441-1.2657-7.043-2.8007-6.393-3.7725-12.414-5.3744-14.717-3.916Zm62.626.5399c-2.777.9555-6.569 2.7337-8.429 3.9516-1.858 1.2192-4.478 2.2184-5.82 2.2225-1.939.0055-2.516 1.3163-2.812 6.3979l-.372 6.393 4.118-5.686c2.265-3.127 5.694-6.0825 7.621-6.5664 3.872-.9718 14.809-.0929 19.07 1.5334 2.525.964 2.567.865.55-1.2846-1.199-1.2807-5.197-2.8061-8.882-3.3912-7.142-1.1331-7.252-.9978 2.796-3.4226.715-.1722.377-.6656-.748-1.0975-1.124-.432-4.317-.0041-7.092.9499Zm-73.189 24.961c-.13 4.322.406 8.782 1.193 9.91 1.054 1.509 1.215.606.612-3.417l-.82-5.467 2.684 5.658c2.982 6.286 9.427 9.522 15.785 7.925 2.607-.654 3.773-.285 4.418 1.399 1.196 3.115-1.215 5.191-6.233 5.371-2.384.085-4.178.894-4.181 1.884-.002 1.21-1.14 1.449-3.757.793l-3.755-.943 4.438 4.438c2.441 2.442 4.438 5.006 4.438 5.701 0 .694.681 1.261 1.514 1.261.948 0 1.195-1.406.662-3.758-.808-3.571-.748-3.627 1.219-1.106 1.139 1.46 2.08 5.15 2.091 8.201.017 4.085.371 5.008 1.346 3.498 2.217-3.43 1.665 4.844-.701 10.505-2.712 6.493-1.558 7.428 1.989 1.609 3.278-5.377 3.706-3.232.762 3.815-3.009 7.202-2.535 7.884 2.01 2.887 3.594-3.953 4.092-4.151 4.339-1.731.153 1.504.633-4.472 1.065-13.28.62-12.649 1.284-16.513 3.156-18.383 2.25-2.247 2.588-2.209 6.607.763 3.972 2.937 4.144 2.959 2.746.348-.819-1.53-2.101-3.161-2.848-3.623-2.046-1.266-1.652-2.572 1.335-4.44 2.066-1.29 3.502-1.314 6.149-.109 3.983 1.815 4.264 2.864 1.405 5.236-3.549 2.947-2.224 4.075 1.961 1.671 2.207-1.266 4.413-1.902 4.903-1.411 1.852 1.852 3.327 11.789 3.511 23.66.105 6.766.473 11.226.816 9.91.887-3.392 2.041-2.965 5.549 2.054 3.533 5.054 4.015 3.184 1.025-3.973-2.928-7.009-2.491-8.751.878-3.491 3.738 5.842 4.454 4.921 1.87-2.408-2.276-6.453-2.882-15.375-.698-10.293.921 2.145 1.196 1.537 1.271-2.814.052-3.051 1.06-6.741 2.238-8.201 2.051-2.54 2.109-2.492 1.341 1.106-1.072 5.019.393 4.581 5.819-1.735l4.519-5.262-3.836.05c-4.124.056-13.388-3.462-14.697-5.582-1.27-2.056 2.181-3.506 8.47-3.559 6.629-.056 10.954-3.436 13.561-10.602 1.268-3.482 1.626-3.78 1.708-1.42.058 1.643-.51 4.6-1.258 6.571-.842 2.215-.861 3.275-.051 2.773 2.288-1.415 3.996-10.136 2.801-14.304-.625-2.184-.784-4.325-.352-4.758.432-.432-.566-.786-2.218-.786-4.814 0-12.906 3.934-16.31 7.929l-3.141 3.689.816-3.417c.75-3.141.687-3.196-.777-.683-4.651 7.981-8.554 12.752-11.552 14.118-6.724 3.064-9.562-1.115-8.638-12.72.27-3.399.352-6.182.183-6.182-.17 0-1.2 1.691-2.292 3.759l-1.984 3.758-1.442-3.758c-.794-2.068-1.65-3.759-1.905-3.759-.254 0-.206 3.539.106 7.862.487 6.736.147 8.245-2.373 10.526-2.748 2.488-3.186 2.519-6.632.487-2.027-1.198-5.753-5.473-8.277-9.501-3.773-6.023-4.431-6.595-3.706-3.223l.883 4.1-3.696-4.608c-3.721-4.636-10.539-8.377-15.271-8.377-2.169 0-2.589 1.181-2.791 7.859Zm11.405 1.959c0 4.343 1.353 5.901 5.127 5.901 1.557 0 3.09.769 3.407 1.708.835 2.477-6.577 2.175-10.279-.419-3.937-2.757-4.467-12.023-.646-11.27 1.554.308 2.391 1.735 2.391 4.08Zm73.11-.25c0 2.279-1.215 5.316-2.733 6.834-3.053 3.054-11.567 3.881-10.554 1.025.334-.939 1.861-1.573 3.396-1.406 3.739.405 6.655-3.081 4.624-5.529-1.096-1.32-1.067-2.243.107-3.417 2.886-2.887 5.16-1.788 5.16 2.493Zm9.566 4.088c0 3.849-3.525 10.476-6.491 12.205-2.013 1.173-2.05 1.4-.238 1.435 5.063.097 12.09-13.209 8.233-15.593-.913-.564-1.504.204-1.504 1.953Zm-99.7574 1.877c0 3.461 5.9664 11.804 8.4424 11.804.752 0-.225-1.893-2.171-4.206-1.946-2.312-3.538-5.351-3.538-6.753 0-1.401-.615-2.928-1.3669-3.393-.7707-.477-1.3665.634-1.3665 2.548Z" /></svg>