<svg aria-hidden="true" style="position: absolute; width: 0; height: 0; overflow: hidden;" version="1.1" xmlns="http://www.w3.org/2000/svg" xmlns:xlink="http://www.w3.org/1999/xlink">
<defs>
<symbol id="screwdriver" viewBox="0 0 32 32">
<path d="M5.143 9.259l1.235 1.235-1.572 1.572c1.6 1.033 3.755 0.85 5.156-0.551l-5.841-5.84c-1.401 1.401-1.583 3.557-0.551 5.156l1.572-1.573z"></path>
<path d="M14.084 4.477l0.284-0.998-2.185-2.185-0.998 0.284-4.525 4.525 2.899 2.899z"></path>
<path d="M20.888 12.967l7.717-8.319c0.016-0.016 0.034-0.029 0.051-0.045l1.202-0.168 2.142-3.176-1.248-1.248-3.219 2.139-0.125 1.204c-0.016 0.016-0.029 0.034-0.045 0.051l-8.319 7.717c0.699 0.709 1.129 1.139 1.845 1.844z"></path>
<path d="M24.054 19.526l-3.642 3.642 1.333 4.976 4.976 1.333 3.642-3.642-1.333-4.976-4.976-1.333zM26.957 26.071c-0.867 0.867-2.272 0.867-3.139 0s-0.867-2.272 0-3.139c0.867-0.867 2.272-0.867 3.139 0s0.867 2.272 0 3.139z"></path>
<path d="M19.932 14.215c-0.87-0.856-1.302-1.288-2.159-2.158-0.617-0.626-1.624-0.643-2.255-0.031-0.032 0.031-0.065 0.063-0.098 0.095 0.609 0.629 0.605 1.631-0.016 2.252-0.628 0.628-1.645 0.628-2.272 0-0.006-0.006-0.010-0.013-0.016-0.020-4.223 4.093-8.447 8.186-12.67 12.28-0.631 0.612-0.587 1.682 0.105 2.385 0.961 0.976 1.445 1.46 2.421 2.421 0.703 0.692 1.773 0.736 2.385 0.105 0.255-0.263 0.509-0.526 0.764-0.788l-4.886-4.886c0.47-0.456 0.941-0.912 1.411-1.368l4.843 4.843c3.383-3.491 6.766-6.982 10.149-10.473-0.012-0.012-0.026-0.020-0.038-0.032-0.628-0.628-0.628-1.645 0-2.272s1.644-0.627 2.271-0c0.031-0.032 0.062-0.064 0.093-0.096 0.612-0.631 0.596-1.639-0.031-2.255z"></path>
<path d="M6.742 30.113c-0.207 0.214-0.415 0.428-0.622 0.642v0c0.207-0.214 0.415-0.428 0.622-0.642z"></path>
</symbol>
<symbol id="crowbar" viewBox="0 0 32 32">
<path d="M27.946 2.987c-0.208-0.214-0.435-0.41-0.671-0.59-2.589-1.996-6.335-1.8-8.74 0.586-1.791 1.772-2.384 4.301-1.753 6.552 0.214 0.782 0.577 1.529 1.085 2.201l0.012 0.012c0.047 0.047 0.085 0.097 0.116 0.148 0.211 0.331 0.177 0.75-0.12 1.041l-0.494 0.52 2.34 2.34 1.049-1.049c1.312-1.299 1.328-3.402 0.044-4.698l0.003-0.003c-1.29-1.302-1.264-3.408 0.047-4.708 1.23-1.217 3.143-1.296 4.44-0.24l6.221 2.419c0 0 0.303-0.309 0.476-0.476l-4.055-4.055z"></path>
<path d="M3.188 27.663c-0.864 0.864-2.087 1.148-3.188 0.854 0.142 0.545 0.426 1.056 0.851 1.482 1.286 1.286 3.37 1.29 4.663 0.009l0.009-0.009 0.864-0.87-2.334-2.334-0.865 0.868z"></path>
<path d="M16.755 14.082c-0.010 0.004-0.023 0.007-0.033 0.011l-12.038 12.070 2.327 2.327c0.010-0.004 0.022-0.006 0.032-0.010l12.047-12.052-2.34-2.339 0.005-0.006z"></path>
</symbol>
<symbol id="chainsaw" viewBox="0 0 32 32">
<path d="M8.62 29.169c-0.581-0.581-0.728-1.432-0.441-2.15l-1.285-1.285c-0.936 1.446-0.772 3.398 0.496 4.666s3.219 1.432 4.665 0.496l-1.285-1.285c-0.718 0.287-1.569 0.141-2.15-0.441z"></path>
<path d="M14.179 10.787c-0.833-0.833-2.184-0.833-3.017 0l-0.467 0.467 4.375 4.375c0.5 0.5 0.5 1.31 0 1.81l-0.589 0.589c0.5-0.5 0.5-1.31 0-1.81l-8.75-8.75c-0.188-0.188-0.419-0.304-0.66-0.351-0.403-0.078-0.837 0.039-1.15 0.351l-3.545 3.545c-0.5 0.5-0.5 1.31 0 1.81l3.59 3.59 1.81-1.81-2.679-2.679 1.735-1.735 3.464 3.464-4.676 4.677c-0.833 0.833-0.833 2.184 0 3.017l9.052 9.052 9.052-9.052c0.833-0.833 0.833-2.184 0-3.017l-7.543-7.543zM14.48 18.029l-0.006 0.006-0.001-0.001c0.002-0.002 0.005-0.003 0.006-0.005zM8.404 21.883c-0.395 0.395-1.035 0.395-1.43 0s-0.395-1.035 0-1.43c0.395-0.395 1.035-0.395 1.43 0s0.395 1.035 0 1.43zM8.846 18.58c0.395-0.395 1.035-0.395 1.43 0s0.395 1.035 0 1.43c-0.395 0.395-1.035 0.395-1.43 0s-0.395-1.035 0-1.43zM12.101 27.010l-2.598-2.598 7.844-7.844 2.598 2.598-7.844 7.844z"></path>
<path d="M31.105 5.795l0.895-0.353-0.852-0.447 0.801-0.534-0.926-0.259 0.671-0.687-0.958-0.063 0.514-0.813-0.954 0.141 0.334-0.903-0.899 0.334 0.137-0.95-0.813 0.514-0.063-0.962-0.687 0.671-0.259-0.926-0.534 0.801-0.447-0.852-0.353 0.895-0.616-0.742-0.161 0.95-0.754-0.597 0.039 0.961-0.863-0.428 0.239 0.933-0.945-0.224 0.243 0.904-0.93-0.22 0.243 0.903-0.926-0.22 0.243 0.903-0.926-0.22 0.243 0.903-0.926-0.22 0.243 0.903-0.926-0.216 0.243 0.899-0.926-0.216 0.243 0.899-0.926-0.216 0.243 0.903-0.93-0.22 0.243 0.903-0.926-0.22 0.243 0.903-0.926-0.22 0.243 0.903-0.926-0.22 0.243 0.903-0.926-0.216 0.179 0.661 0.163 0.163 0.604-0.604 0.671-0.667 2.748-2.748 0.683-0.687 0.683-0.683 0.671-0.667 2.74-2.74c0.004-0.004 0.004-0.004 0.007-0.007l0 0c0.192-0.192 0.404-0.361 0.624-0.506v0c1.488-0.958 3.494-0.789 4.797 0.514 1.495 1.495 1.499 3.918 0.008 5.417l0.004 0.004 0.93 0.239-0.428-0.864 0.962 0.039-0.597-0.754 0.95-0.161-0.742-0.617z"></path>
<path d="M30.028 7.913l-1.369 1.369-0.016 0.012-0.667 0.671-6.755 6.755 0.162 0.162 0.666 0.179-0.22-0.926 0.903 0.243-0.22-0.926 0.903 0.243-0.216-0.926 0.899 0.243-0.216-0.926 0.899 0.243-0.216-0.926 0.899 0.243-0.216-0.926 0.903 0.243-0.22-0.93 0.903 0.243-0.22-0.926 0.903 0.243-0.22-0.926 0.903 0.243-0.22-0.926 0.903 0.243-0.216-0.926 0.899 0.243-0.216-0.926 0.899 0.243z"></path>
<path d="M29.272 7.154c1.075-1.079 1.072-2.83-0.008-3.91-1.075-1.075-2.834-1.079-3.914-0.008-0.004 0.004-0.004 0.004-0.008 0.008l-8.798 8.798 3.921 3.921 8.798-8.798c0.004-0.004 0.008-0.008 0.008-0.012z"></path>
</symbol>
<symbol id="hook" viewBox="0 0 32 32">
<path d="M16 10.228c0.379 0 0.688-0.309 0.688-0.688s-0.309-0.689-0.688-0.689-0.688 0.309-0.688 0.689c0 0.379 0.309 0.688 0.688 0.688z"></path>
<path d="M19.234 21.697c-0.619-0.434-1.329-0.747-2.095-0.906v-0.24c-0.364 0.099-0.744 0.157-1.139 0.157s-0.776-0.058-1.14-0.157v0.24c0 1.087 0.761 1.996 1.777 2.226 0.034 0.006 0.071 0.014 0.105 0.023 1.508 0.338 2.64 1.689 2.64 3.299 0 1.865-1.519 3.381-3.381 3.381-1.865 0-3.381-1.516-3.381-3.381 0-0.63-0.511-1.141-1.141-1.141s-1.139 0.511-1.139 1.141c0 3.123 2.538 5.661 5.661 5.661 3.12 0 5.661-2.538 5.661-5.661 0.001-1.919-0.959-3.619-2.427-4.642z"></path>
<path d="M16 17.252c0.379 0 0.688-0.309 0.688-0.688s-0.309-0.688-0.688-0.688-0.688 0.309-0.688 0.688c0 0.379 0.309 0.688 0.688 0.688z"></path>
<path d="M16 19.857c1.921 0 3.478-1.557 3.478-3.478v-6.74c0-1.921-1.557-3.478-3.478-3.478s-3.478 1.557-3.478 3.478v6.74c0 1.921 1.557 3.478 3.478 3.478zM16 8.283c0.694 0 1.256 0.562 1.256 1.256s-0.563 1.256-1.256 1.256-1.256-0.562-1.256-1.256c0-0.694 0.563-1.256 1.256-1.256zM16 15.307c0.694 0 1.256 0.562 1.256 1.256s-0.563 1.256-1.256 1.256-1.256-0.563-1.256-1.256c0-0.694 0.563-1.256 1.256-1.256z"></path>
<path d="M22.103 3.523l-6.103-3.523-7.347 4.242v9.336l3.168 1.829v-1.601l-0.501 0.501-1.427-0.824 1.928-1.928v-1.916c0-0.033 0.004-0.064 0.005-0.097l-2.47 2.47v-2.251l8.107-8.107 1.427 0.824-2.985 2.985c0.032-0.001 0.064-0.005 0.097-0.005 0.566 0 1.105 0.114 1.597 0.319l2.564-2.564 1.427 0.824-2.641 2.641c0.341 0.34 0.62 0.739 0.828 1.179l2.869-2.869v2.251l-2.465 2.465v2.007l2.465-2.465v2.251l-2.465 2.465v1.443l3.168-1.829v-9.335l-1.245-0.719zM9.355 7.754v-2.251l2.024-2.024 4.622-2.668 0.189 0.109-6.834 6.834z"></path>
</symbol>
<symbol id="paint-roller" viewBox="0 0 32 32">
<path d="M7.092 24.186l17.094-17.094c0.688-0.688 0.688-1.803 0-2.491l-4.085-4.085c-0.688-0.688-1.803-0.688-2.491 0l-17.094 17.094c-0.688 0.688-0.688 1.803 0 2.491l4.085 4.085c0.688 0.688 1.803 0.688 2.491 0z"></path>
<path d="M22.813 0.893l0.996 0.996-0.634 0.634-0.996-0.996 0.634-0.634z"></path>
<path d="M31.293 27.879l-8.191-8.191-3.414 3.414 8.191 8.191c0.943 0.943 2.471 0.943 3.414 0s0.943-2.471 0-3.414z"></path>
<path d="M20.876 19.879l-1.414-1.414c-1.055-1.055-3.030-0.795-4.404 0.578l-8.007 8.007c-0.824 0.824-2.165 0.824-2.989 0l-1.212-1.212c-0.712-0.712-0.806-1.808-0.288-2.624l-1.011-1.011c-1.059 1.38-0.96 3.369 0.302 4.632l1.212 1.212c1.373 1.373 3.608 1.373 4.982 0l8.007-8.007c0.881-0.881 1.977-1.012 2.411-0.578l1.414 1.414 0.996-0.997z"></path>
</symbol>
<symbol id="cutter" viewBox="0 0 32 32">
<path d="M5.759 28.545c-0.709-0.709-0.709-1.86 0-2.569l-3.702-3.702c-2.225 2.225-2.225 5.832 0 8.057s5.832 2.225 8.057 0l-1.786-1.786c-0.71 0.709-1.86 0.709-2.569-0.001zM3.016 26.034c-0.202 0.202-0.53 0.202-0.732 0s-0.202-0.53 0-0.733c0.202-0.202 0.53-0.202 0.732 0s0.202 0.53 0 0.733z"></path>
<path d="M23.496 6.962l0.366-0.366 0.302 1.711 2.212 0.321-0.681-3.864-3.289 3.289 1.316 0.191z"></path>
<path d="M30.458 0l-2.199 2.199 1.153 6.538 2.199-2.199z"></path>
<path d="M27.917 2.542l-1.856 1.856 0.757 4.295 1.19 0.173 0.258 1.019 0.78-0.78-1.153-6.538z"></path>
<path d="M14.904 21.97c0.709-0.709 0.709-1.86 0-2.569s-1.86-0.71-2.569 0l10.454-10.454-3.052-0.443-2.377 2.371c0.364 0.465 0.34 1.135-0.088 1.564s-1.1 0.452-1.566 0.087l-1.231 1.228c0.367 0.465 0.344 1.138-0.085 1.567s-1.104 0.453-1.57 0.084l-1.23 1.227c0.37 0.466 0.348 1.141-0.082 1.571s-1.108 0.453-1.574 0.081l-1.229 1.226c0.373 0.466 0.352 1.143-0.080 1.575-0.463 0.463-1.215 0.463-1.678 0-0.026-0.026-0.047-0.055-0.068-0.084-1.258 0.686-2.718 0.866-4.082 0.534-0.003 0.003-0.005 0.004-0.008 0.007l3.702 3.702 2.953-2.953c-0.71 0.709-0.71 1.86 0 2.569s1.86 0.71 2.569 0l-2.953 2.953 1.786 1.786 2.314-2.314c-0.405-0.466-0.391-1.17 0.052-1.613s1.148-0.457 1.614-0.052l1.216-1.216c-0.406-0.466-0.391-1.17 0.052-1.614s1.148-0.457 1.614-0.052l1.216-1.216c-0.406-0.466-0.392-1.171 0.052-1.614s1.149-0.457 1.614-0.052l1.216-1.216c-0.406-0.466-0.392-1.171 0.052-1.615s1.149-0.458 1.615-0.051l4.525-4.523-0.723-2.854-12.373 12.371z"></path>
</symbol>
<symbol id="level" viewBox="0 0 32 32">
<path d="M23.467 16.597c-0.002 0.008-0.001 0.017-0.004 0.025 0.002-0.008 0.002-0.017 0.004-0.025z"></path>
<path d="M10.154 32l-3.717-3.717 0.542-0.542 3.717 3.717-0.542 0.542z"></path>
<path d="M22.319 0l-21.878 21.878 3.244 3.244 21.878-21.878-3.244-3.244zM23.015 1.883c0.158-0.158 0.414-0.156 0.574 0.004s0.161 0.417 0.004 0.574c-0.158 0.158-0.415 0.156-0.574-0.004s-0.161-0.416-0.004-0.574zM3.919 24.028l-0.792-0.792 0.264-0.264 0.792 0.792-0.264 0.264zM4.556 23.391l-0.396-0.396 0.264-0.264 0.396 0.396-0.264 0.264zM5.24 22.708l-0.792-0.792 0.264-0.264 0.792 0.792-0.264 0.264zM5.877 22.070l-0.396-0.396 0.264-0.264 0.396 0.396-0.264 0.264zM6.56 21.387l-0.792-0.792 0.264-0.264 0.792 0.792-0.264 0.264zM7.197 20.749l-0.396-0.396 0.264-0.264 0.396 0.396-0.264 0.264zM7.881 20.066l-0.792-0.792 0.264-0.264 0.792 0.792-0.264 0.264zM8.518 19.429l-0.396-0.396 0.264-0.264 0.396 0.396-0.264 0.264zM9.201 18.745l-0.792-0.792 0.264-0.264 0.792 0.792-0.264 0.264zM9.839 18.108l-0.396-0.396 0.264-0.264 0.396 0.396-0.264 0.264zM10.522 17.425l-0.792-0.792 0.264-0.264 0.792 0.792-0.264 0.264zM11.16 16.787l-0.396-0.396 0.264-0.264 0.396 0.396-0.264 0.264zM11.843 16.104l-0.792-0.792 0.264-0.264 0.792 0.792-0.264 0.264zM12.48 15.467l-0.396-0.396 0.264-0.264 0.396 0.396-0.264 0.264zM13.164 14.783l-0.792-0.792 0.264-0.264 0.792 0.792-0.264 0.264zM13.801 14.146l-0.396-0.396 0.264-0.264 0.396 0.396-0.264 0.264zM14.484 13.462l-0.792-0.792 0.264-0.264 0.792 0.792-0.264 0.264zM15.122 12.825l-0.396-0.396 0.264-0.264 0.396 0.396-0.264 0.264zM15.805 12.142l-0.792-0.792 0.264-0.264 0.792 0.792-0.264 0.264zM16.443 11.505l-0.397-0.396 0.264-0.264 0.396 0.396-0.264 0.264zM17.126 10.821l-0.792-0.792 0.264-0.264 0.792 0.792-0.264 0.264zM17.763 10.184l-0.396-0.396 0.264-0.264 0.396 0.396-0.264 0.264zM18.447 9.5l-0.792-0.792 0.264-0.264 0.792 0.792-0.264 0.264zM19.084 8.863l-0.396-0.396 0.264-0.264 0.396 0.396-0.264 0.264zM19.767 8.179l-0.792-0.792 0.264-0.264 0.792 0.792-0.264 0.264zM20.404 7.542l-0.396-0.396 0.264-0.264 0.396 0.396-0.264 0.264zM21.088 6.859l-0.792-0.792 0.264-0.264 0.792 0.792-0.264 0.264zM21.725 6.222l-0.396-0.396 0.264-0.264 0.396 0.396-0.264 0.264zM22.409 5.538l-0.792-0.792 0.264-0.264 0.792 0.792-0.264 0.264zM23.046 4.901l-0.396-0.396 0.264-0.264 0.396 0.396-0.264 0.264zM22.937 3.425l0.264-0.264 0.792 0.792-0.264 0.264-0.792-0.792z"></path>
<path d="M27.299 7.42l0.542-0.542 3.717 3.717-0.542 0.542-3.717-3.717z"></path>
<path d="M7.322 27.397l3.717 3.717 19.6-19.6-3.717-3.717-19.6 19.6zM12.118 28.86c-0.7 0.701-1.84 0.701-2.541 0s-0.7-1.84 0-2.541 1.84-0.701 2.541 0 0.7 1.84 0 2.541zM23.633 17.311l-6.797 6.797c-0.501 0.501-1.316 0.501-1.817 0l-0.691-0.691c-0.501-0.501-0.501-1.316 0-1.817l6.797-6.797c0.501-0.501 1.316-0.501 1.817 0l0.691 0.691c0.501 0.501 0.501 1.316 0 1.817zM28.385 10.051c0.701 0.7 0.701 1.84 0 2.541s-1.84 0.7-2.541 0-0.701-1.84 0-2.541 1.84-0.7 2.541 0z"></path>
<path d="M23.27 15.858l-0.691-0.691c-0.301-0.301-0.789-0.301-1.090 0l-6.797 6.797c-0.301 0.301-0.301 0.789 0 1.090l0.691 0.691c0.301 0.301 0.789 0.301 1.090 0l6.797-6.797c0.101-0.101 0.164-0.223 0.198-0.35 0.016-0.064 0.028-0.128 0.028-0.194v-0.001c0-0.066-0.012-0.131-0.028-0.194-0.033-0.128-0.097-0.25-0.198-0.35zM15.835 23.153l-0.561-0.561 6.9-6.9 0.561 0.561-6.9 6.9z"></path>
<path d="M23.467 16.208c-0.002-0.008-0.001-0.017-0.004-0.025 0.002 0.008 0.002 0.017 0.004 0.025z"></path>
<path d="M9.94 26.682c-0.501 0.501-0.501 1.313 0 1.814s1.313 0.501 1.814 0c0.501-0.501 0.501-1.313 0-1.814s-1.313-0.501-1.814 0zM11.188 28.491h-0.699v-1.806h0.699v1.806z"></path>
<path d="M26.207 12.229c0.501 0.501 1.313 0.501 1.814 0s0.501-1.313 0-1.814c-0.501-0.501-1.313-0.501-1.814 0s-0.501 1.313 0 1.814zM26.704 10.446l1.277 1.277-0.494 0.494-1.277-1.277 0.494-0.494z"></path>
</symbol>
<symbol id="shovel" viewBox="0 0 32 32">
<path d="M6.099 28.285c-0.641 0-1.244-0.25-1.697-0.703s-0.704-1.056-0.704-1.697 0.25-1.245 0.704-1.698l-2.328-2.328-2.073 2.073 8.051 8.051 2.073-2.073-2.328-2.328c-0.453 0.454-1.056 0.703-1.697 0.703z"></path>
<path d="M5.062 24.848c-0.572 0.572-0.572 1.5 0 2.073s1.5 0.572 2.073 0l8.421-8.421-2.073-2.073-8.421 8.422z"></path>
<path d="M30.718 1.299c-0.251-0.024-6.903-3.133-10.894 0.419l-0.004-0.004-8.179 8.179 3.808 3.808-1.873 1.873 2.832 2.832 1.873-1.873 3.843 3.843 8.175-8.183c3.551-3.992 0.443-10.643 0.419-10.894zM16.267 16.286c-0.157 0.157-0.413 0.157-0.57 0s-0.158-0.413 0-0.57c0.158-0.158 0.413-0.158 0.57 0s0.157 0.413 0 0.57zM17.608 14.945c-0.157 0.158-0.413 0.158-0.57 0s-0.157-0.413 0-0.57c0.157-0.158 0.413-0.158 0.57 0s0.157 0.413 0 0.57zM20.327 14.487l-0.648 0.648-0.379-0.379 0.585-0.585c0.572-0.572 0.572-1.5 0-2.073s-1.5-0.572-2.073 0l-0.585 0.585-0.379-0.379 0.648-0.648c0.782-0.782 2.050-0.782 2.832 0s0.782 2.050-0 2.832z"></path>
</symbol>
<symbol id="clamp" viewBox="0 0 32 32">
<path d="M19.651 25.976h-1.345v2.64h-0.448v3.384h2.242v-3.384h-0.448z"></path>
<path d="M24.311 0h2.242v3.384h-2.242v-3.384z"></path>
<path d="M28.047 20.698h-1.943v-6.649h-1.345v6.649h-5.108v-6.649h-1.345v6.649h-14.354c-0.168 0-0.304 0.136-0.304 0.304s0.141 0.264 0.304 0.304l12.047 2.979h12.047c0.181 0 0.304-0.136 0.304-0.304v-2.979c0-0.168-0.136-0.304-0.304-0.304zM16.89 22.94c-0.248 0-0.448-0.201-0.448-0.448s0.201-0.448 0.448-0.448 0.448 0.201 0.448 0.448c-0 0.248-0.201 0.448-0.448 0.448zM24.76 22.94c-0.248 0-0.448-0.201-0.448-0.448s0.201-0.448 0.448-0.448c0.248 0 0.448 0.201 0.448 0.448s-0.201 0.448-0.448 0.448z"></path>
<path d="M28.047 8.842h-1.943v-3.766h-1.345v3.766h-5.108v-2.642h-1.345v2.642h-2.307l-12.047 2.979c-0.163 0.040-0.304 0.136-0.304 0.304s0.136 0.304 0.304 0.304h24.094c0.168 0 0.304-0.136 0.304-0.304v-2.979c0-0.168-0.123-0.304-0.304-0.304zM16.89 11.084c-0.248 0-0.448-0.201-0.448-0.448s0.201-0.448 0.448-0.448 0.448 0.201 0.448 0.448c-0 0.248-0.201 0.448-0.448 0.448zM24.76 11.084c-0.248 0-0.448-0.201-0.448-0.448s0.201-0.448 0.448-0.448c0.248 0 0.448 0.201 0.448 0.448s-0.201 0.448-0.448 0.448z"></path>
</symbol>
<symbol id="stapler" viewBox="0 0 32 32">
<path d="M2.975 16.041h6.625v1.093h-6.625v-1.093z"></path>
<path d="M2.975 18.655h6.625v1.093h-6.625v-1.093z"></path>
<path d="M2.975 0h21.206v2.276h-21.206v-2.276z"></path>
<path d="M24.181 6.338v-3.235h-21.206v8.433h6.625v-0.463c0-1.398 1.133-2.531 2.531-2.531s2.531 1.133 2.531 2.531v0.932h3.207c0-1.743 1.413-3.156 3.156-3.156 1.534 0 3.156-1.033 3.156-2.511zM6.395 9.48c-0.617 0-1.118-0.501-1.118-1.118s0.5-1.118 1.118-1.118c0.617 0 1.118 0.5 1.118 1.118s-0.5 1.118-1.118 1.118zM20.342 6.089c0-0.617 0.5-1.118 1.118-1.118s1.118 0.5 1.118 1.118c0 0.617-0.5 1.118-1.118 1.118s-1.118-0.501-1.118-1.118z"></path>
<path d="M6.402 23.951c-0.308 0-0.558 0.25-0.558 0.558s0.25 0.558 0.558 0.558c0.308 0 0.558-0.25 0.558-0.558s-0.25-0.558-0.558-0.558z"></path>
<path d="M2.975 13.428h6.625v1.093h-6.625v-1.093z"></path>
<path d="M25.361 0h1.582v4.834h-1.582v-4.834z"></path>
<path d="M22.025 6.095c0-0.309-0.25-0.558-0.558-0.558s-0.558 0.25-0.558 0.558c0 0.308 0.25 0.558 0.558 0.558s0.558-0.25 0.558-0.559z"></path>
<path d="M14.662 26.262c0 1.398-1.133 2.531-2.531 2.531s-2.531-1.133-2.531-2.531v-4.622h-6.625v10.36h9.187c3.066 0 5.693-2.437 5.693-5.453l0-0.485h-3.194v0.2zM6.395 25.62c-0.617 0-1.118-0.5-1.118-1.118s0.5-1.118 1.118-1.118c0.617 0 1.118 0.5 1.118 1.118s-0.5 1.118-1.118 1.118z"></path>
<path d="M24.277 8.977c-0.596 0.735-1.653 1.162-2.665 1.25-0.372 0.032-0.525 0.075-0.814 0.075l3.716 14.080c0.509 1.982 2.529 3.176 4.511 2.667l-4.748-18.071z"></path>
<path d="M14.662 13.106h3.207v11.857h-3.207v-11.857z"></path>
<path d="M6.402 7.811c-0.308 0-0.558 0.25-0.558 0.558s0.25 0.558 0.558 0.558c0.308 0 0.558-0.25 0.558-0.558s-0.25-0.558-0.558-0.558z"></path>
</symbol>
<symbol id="measuring-tape" viewBox="0 0 32 32">
<path d="M16.838 23.764l-1.083 1.083-10.927-10.927 1.083-1.083 10.927 10.927z"></path>
<path d="M-0 14.526l3.836-3.836 1.418 1.418-3.836 3.836-1.418-1.418z"></path>
<path d="M6.763 2.578l0.424 0.424-2.352 2.352-0.424-0.424 2.352-2.352z"></path>
<path d="M2.111 16.637l1.083-1.083 10.927 10.927-1.083 1.083-10.927-10.927z"></path>
<path d="M6.162 5.895l0.772-0.772-0.422-0.422-1.165 1.165 7.784 7.767 1.151-1.161-0.451-0.451-0.771 0.771-0.284-0.284 0.771-0.771-0.451-0.451-0.771 0.772-0.284-0.284 0.771-0.772-0.451-0.451-0.772 0.771-0.284-0.284 0.772-0.771-0.451-0.451-0.771 0.771-0.284-0.284 0.771-0.771-0.451-0.451-0.772 0.772-0.284-0.284 0.772-0.772-0.451-0.451-0.771 0.771-0.284-0.284 0.771-0.771-0.451-0.451-0.771 0.772-0.284-0.284 0.771-0.772-0.451-0.451-0.772 0.771-0.284-0.284 0.772-0.771-0.451-0.451-0.771 0.771-0.284-0.284 0.771-0.771-0.451-0.451-0.772 0.772z"></path>
<path d="M23.384 14.277l0.11 0.365c0.067 0.036 0.148 0.089 0.245 0.158s0.178 0.138 0.246 0.206c0.378 0.378 0.424 0.709 0.139 0.993-0.299 0.299-0.631 0.266-0.995-0.099-0.121-0.121-0.232-0.266-0.333-0.436s-0.176-0.332-0.223-0.488l-0.516 0.516c0.092 0.295 0.294 0.6 0.609 0.914 0.362 0.362 0.725 0.555 1.090 0.58s0.705-0.121 1.020-0.437c0.267-0.267 0.396-0.557 0.388-0.873s-0.149-0.609-0.422-0.882c-0.116-0.116-0.222-0.204-0.319-0.265l-0.081-0.054 0.607-0.503 1.009 1.009 0.506-0.506-1.533-1.533-1.547 1.334z"></path>
<path d="M17.372 24.297l-3.8 3.8 1.752 0.453 2.501-2.501z"></path>
<path d="M28.081 11.3c-2.133-2.133-5.604-2.133-7.737 0s-2.133 5.604 0 7.737c2.133 2.133 5.604 2.133 7.737 0s2.133-5.604 0-7.737zM27.382 18.339c-1.748 1.748-4.593 1.748-6.341 0s-1.748-4.593 0-6.341 4.593-1.748 6.341 0 1.748 4.593 0 6.341z"></path>
<path d="M29.728 9.653c-3.030-3.030-7.942-3.030-10.972 0l-4.909 4.909c-0.351 0.351-0.351 0.921 0 1.272l9.7 9.7c0.351 0.351 0.921 0.351 1.272 0l4.909-4.909c3.030-3.030 3.030-7.942 0-10.972zM16.615 15.853c-0.354 0.354-0.927 0.354-1.281 0s-0.354-0.927 0-1.281c0.354-0.354 0.927-0.354 1.281 0s0.354 0.927 0 1.281zM24.809 24.047c-0.354 0.354-0.927 0.354-1.281 0s-0.354-0.927 0-1.281c0.354-0.354 0.927-0.354 1.281 0s0.354 0.927 0 1.281zM28.691 19.648c-2.474 2.474-6.485 2.474-8.959 0s-2.474-6.485 0-8.959 6.485-2.474 8.959 0c2.474 2.474 2.474 6.485 0 8.959z"></path>
<path d="M15.917 28.703l2.779 0.719-0.719-2.779z"></path>
</symbol>
<symbol id="shpatel" viewBox="0 0 32 32">
<path d="M18.213 0l-18.126 18.126 8.429 7.79 17.486-17.486z"></path>
<path d="M30.711 24.999c-0.22-0.22-0.461-0.408-0.715-0.568l0.002-0.002-5.823-3.65c-0.9-0.592-0.743-2.052 0.029-2.823l4.219-4.219c0.949-0.949 0.968-2.473 0.063-3.449-0.010-0.012-0.018-0.025-0.029-0.036l-0.973-0.973c-0.194-0.194-0.509-0.194-0.704 0l-17.412 17.412c-0.194 0.194-0.194 0.509 0 0.704l0.973 0.973c0.011 0.011 0.024 0.020 0.036 0.029 0.976 0.906 2.5 0.887 3.449-0.063l4.040-4.040c0.771-0.771 2.219-0.938 2.826-0.031l3.65 5.823 0.002-0.002c0.16 0.253 0.347 0.494 0.568 0.715 1.602 1.602 4.198 1.602 5.8 0s1.602-4.198 0-5.799zM24.323 14.143c0.179-0.179 0.469-0.179 0.648 0s0.179 0.469 0 0.648-0.469 0.179-0.648 0-0.179-0.469 0-0.648zM14.703 25.058c-0.179 0.179-0.469 0.179-0.648 0s-0.179-0.469 0-0.648c0.179-0.179 0.469-0.179 0.648 0s0.179 0.469 0 0.648zM28.776 28.864c-0.532 0.532-1.397 0.532-1.93 0-0.067-0.067-0.129-0.145-0.188-0.24l-0.965-1.53 0.001-0.001-1.17-1.851c-0.097-0.153-0.106-0.396 0.063-0.565s0.412-0.16 0.566-0.063l1.85 1.171 0.003-0.003 1.529 0.966c0.094 0.059 0.172 0.121 0.24 0.188 0.532 0.532 0.532 1.397 0 1.929z"></path>
</symbol>
<symbol id="scissors" viewBox="0 0 32 32">
<path d="M19.974 22.207c-0.564 0-1.098 0.166-1.577 0.46 1.070-1.264 1.777-3.445 1.777-5.924 0-2.367-0.533-4.362-1.436-5.626v-1.329c0-3.375-0.128-3.324-2.525-9.789l0.018 9.68c1.378 0.020 2.489 1.141 2.489 2.523 0 1.376-1.102 2.493-2.471 2.522v12.378c0 2.704 1.667 4.896 3.724 4.896s3.724-2.192 3.724-4.896c-0-2.704-1.668-4.896-3.724-4.896zM19.965 30.348c-0.978-0.008-2.064-1.338-2.064-3.244s1.086-3.236 2.064-3.244c0.978 0.008 2.064 1.338 2.064 3.244s-1.085 3.236-2.064 3.244z"></path>
<path d="M13.28 12.204c0-1.382 1.111-2.504 2.489-2.523l0.018-9.68c-2.398 6.465-2.525 6.414-2.525 9.789v1.329c-0.902 1.264-1.436 3.259-1.436 5.626 0 2.479 0.707 4.66 1.777 5.924-0.479-0.295-1.013-0.46-1.577-0.46-2.057 0-3.724 2.192-3.724 4.896s1.667 4.896 3.724 4.896c2.057 0 3.724-2.192 3.724-4.896v-12.378c-1.369-0.029-2.471-1.146-2.471-2.522zM12.035 30.348c-0.978-0.008-2.064-1.338-2.064-3.244s1.086-3.236 2.064-3.244c0.978 0.008 2.064 1.338 2.064 3.244s-1.086 3.236-2.064 3.244z"></path>
<path d="M17.335 12.204c0-0.722-0.585-1.308-1.308-1.308s-1.308 0.585-1.308 1.308 0.585 1.308 1.308 1.308c0.722 0 1.308-0.586 1.308-1.308z"></path>
</symbol>
<symbol id="trowel" viewBox="0 0 32 32">
<path d="M7.208 29.721l-2.729-2.729 0.556-0.556 2.729 2.729-0.556 0.556z"></path>
<path d="M8.193 28.737l-2.729-2.729 0.556-0.556 2.729 2.729-0.556 0.556z"></path>
<path d="M2.765 28.706c-0.754 0.754-0.754 1.976 0 2.729s1.976 0.754 2.729 0l0.302-0.302-2.729-2.729-0.302 0.302z"></path>
<path d="M6.225 30.705l-2.729-2.729 0.556-0.556 2.729 2.729-0.556 0.556z"></path>
<path d="M9.177 27.753l-2.729-2.729 0.556-0.556 2.729 2.729-0.556 0.556z"></path>
<path d="M8.973 22.498v0z"></path>
<path d="M28.873 0.188l-17.519 8.999c-0.836 0.429-0.976 1.325-0.312 1.99l2.699 2.699 1.146-1.146c0.291-0.292 0.679-0.452 1.092-0.452s0.8 0.161 1.092 0.452c0.291 0.291 0.452 0.678 0.452 1.091s-0.16 0.8-0.452 1.093l-1.146 1.146 2.699 2.699c0.665 0.665 1.56 0.525 1.99-0.312l8.999-17.519c0.43-0.836 0.097-1.169-0.739-0.739z"></path>
<path d="M10.161 26.768l-2.729-2.729 0.556-0.556 2.729 2.729-0.556 0.556z"></path>
<path d="M13.721 16.805l2.621-2.621c0.2-0.2 0.2-0.525 0-0.725s-0.525-0.2-0.725 0l-2.621 2.621c-0.866 0.866-0.909 2.234-0.095 3.048 0.414 0.414 0.372 1.131-0.095 1.597l-0.917 0.917 0.725 0.725 0.917-0.917c0.866-0.866 0.909-2.234 0.095-3.048-0.414-0.414-0.371-1.131 0.095-1.597z"></path>
<path d="M11.702 25.228l-0.556 0.556-2.729-2.729 0.556-0.556 2.729 2.729z"></path>
<path d="M12.13 24.8l-2.729-2.729 0.73-0.73 2.729 2.729-0.73 0.73z"></path>
</symbol>
<symbol id="grinder" viewBox="0 0 32 32">
<path d="M6.744 6.062c-1.915 1.915-1.915 5.020 0 6.935l-4.36 4.36c4.323 4.323 11.332 4.323 15.655 0s4.323-11.332 0-15.655l-4.36 4.36c-1.915-1.915-5.020-1.915-6.935 0zM11.966 11.283c-0.968 0.968-2.539 0.968-3.507 0s-0.968-2.539 0-3.507c0.968-0.968 2.539-0.968 3.507 0s0.968 2.539 0 3.507z"></path>
<path d="M1.643 11.826c0.131 0.49-0.012 0.984-0.329 1.334 0.013 0.032 0.028 0.063 0.041 0.095 0.471 0.025 0.921 0.272 1.174 0.711s0.243 0.95 0.030 1.37c0.021 0.028 0.044 0.056 0.065 0.084 0.113-0.024 0.228-0.033 0.342-0.031l1.373-1.373c-2.22-2.9-2.010-7.063 0.642-9.716s6.816-2.862 9.716-0.642l1.373-1.373c-0.003-0.115 0.007-0.229 0.031-0.343-0.028-0.022-0.056-0.044-0.084-0.065-0.42 0.213-0.932 0.224-1.37-0.030s-0.686-0.703-0.711-1.174c-0.032-0.013-0.063-0.028-0.095-0.041-0.351 0.317-0.844 0.46-1.334 0.329s-0.844-0.501-0.99-0.948c-0.035-0.005-0.070-0.008-0.105-0.012-0.257 0.394-0.695 0.659-1.201 0.659s-0.944-0.265-1.201-0.659c-0.035 0.004-0.070 0.008-0.105 0.012-0.146 0.448-0.501 0.818-0.99 0.948-0.49 0.131-0.984-0.012-1.334-0.329-0.032 0.013-0.063 0.028-0.095 0.041-0.025 0.471-0.272 0.921-0.711 1.174s-0.95 0.243-1.37 0.030c-0.028 0.021-0.056 0.043-0.084 0.065 0.097 0.461-0.026 0.957-0.384 1.315s-0.855 0.48-1.315 0.384c-0.022 0.028-0.044 0.056-0.065 0.084 0.213 0.42 0.224 0.932-0.030 1.37s-0.703 0.686-1.174 0.711c-0.013 0.032-0.028 0.063-0.041 0.095 0.317 0.351 0.46 0.844 0.329 1.334-0.131 0.489-0.501 0.844-0.948 0.99-0.005 0.035-0.008 0.070-0.012 0.105 0.394 0.257 0.659 0.695 0.659 1.201s-0.265 0.944-0.659 1.201c0.004 0.035 0.008 0.070 0.012 0.105 0.448 0.146 0.817 0.5 0.948 0.989z"></path>
<path d="M10.212 8.030c-0.4 0-0.777 0.156-1.060 0.439-0.584 0.585-0.584 1.536 0 2.12 0.283 0.284 0.66 0.439 1.060 0.439s0.777-0.156 1.060-0.439c0.283-0.284 0.439-0.66 0.439-1.060s-0.156-0.777-0.439-1.060c-0.283-0.283-0.66-0.438-1.060-0.438z"></path>
<path d="M10.213 21.58c-0.508 0-1.010-0.035-1.506-0.096l-7.366 7.366c-0.34 0.34 0.064 1.293 0.901 2.13s1.79 1.24 2.13 0.901l7.695-7.695c0.77-0.77 2.019-0.77 2.79 0l1.070 1.070 0.723-0.724-3.35-3.35c-0.995 0.261-2.029 0.399-3.085 0.399z"></path>
<path d="M31.175 23.558l-2.16-2.16-6.935 6.935 2.16 2.16c0.552 0.552 2.552-0.553 4.467-2.469s3.020-3.915 2.469-4.466z"></path>
<path d="M21.455 13.838c-0.586 1.536-1.487 2.977-2.722 4.212-1.215 1.215-2.645 2.135-4.203 2.732l6.857 6.857 6.935-6.935-6.867-6.867z"></path>
</symbol>
<symbol id="paint-brush" viewBox="0 0 32 32">
<path d="M9.933 0.374l0.002-0.002-1.241-0.372 0.372 1.241-1.241-0.372 0.372 1.241-1.241-0.372 0.372 1.241-1.241-0.372 0.372 1.241-1.241-0.372 0.372 1.241-1.241-0.372 0.372 1.241-1.241-0.372 0.372 1.241-1.241-0.372 0.372 1.241-1.241-0.371 0.372 1.241-1.241-0.372 0.371 1.241-1.241-0.372 0.372 1.241 4.516 4.516 9.561-9.561z"></path>
<path d="M20.642 12.157c-0.004-0.013-0.012-0.025-0.016-0.039 0.004 0.014 0.007 0.029 0.012 0.043l0.004-0.004z"></path>
<path d="M9.853 19.416v0z"></path>
<path d="M27.025 23.328c-1.829-1.829-4.069-3.488-5.54-4.438-0.942-0.608-1.472-0.841-2.101-1.47s-0.387-2.16 0.316-2.864l-0-0 0.443-0.443c0.53-0.53 0.688-1.279 0.496-1.952l-8.478 8.478c0.673 0.192 1.422 0.034 1.952-0.496l0.443-0.443 0 0c0.704-0.704 2.235-0.946 2.864-0.316s0.863 1.16 1.47 2.101c0.95 1.471 2.609 3.711 4.438 5.54 3.626 3.626 7.394 5.738 8.415 4.717s-1.091-4.788-4.718-8.415zM28.886 28.888c-0.346 0.346-0.906 0.346-1.252 0s-0.346-0.906 0-1.252 0.906-0.346 1.252 0c0.346 0.346 0.346 0.906 0 1.252z"></path>
<path d="M12.155 20.643l0.005-0.004c-0.014-0.004-0.029-0.007-0.043-0.012 0.013 0.004 0.025 0.012 0.038 0.016z"></path>
<path d="M20.193 11.351l0.359-0.359-2.221-2.221-9.561 9.561-0.428-0.428 9.561-9.561-2.392-2.392-9.561 9.561 3.476 3.476 9.561-9.561 0.428 0.428-9.561 9.561 1.137 1.137 0.359-0.359c0.010 0.008 0.019 0.015 0.029 0.024l8.839-8.839c-0.009-0.010-0.016-0.019-0.024-0.029z"></path>
</symbol>
<symbol id="pliers" viewBox="0 0 32 32">
<path d="M14.241 12.193c0.003-0.345 0.135-0.688 0.398-0.952 0.521-0.521 1.356-0.529 1.891-0.031 0.004-0.002 0.008-0.003 0.012-0.005 0.722 0.651 1.726 0.815 2.591 0.495l-1.393-4.882c-0.475 0.096-0.928 0.327-1.296 0.695-0.282 0.282-0.481 0.614-0.603 0.967-0.002 0.001-0.004 0.002-0.006 0.002-0.053 0.249-0.174 0.487-0.367 0.681-0.472 0.472-1.202 0.524-1.734 0.16-2.528 1.171-5.042 2.937-7.262 5.157-3.293 3.293-5.64 7.294-6.439 10.978-0.105 0.485 0.054 0.965 0.38 1.292 0.184 0.184 0.421 0.319 0.694 0.379 0.758 0.164 1.506-0.317 1.67-1.075 0.688-3.171 2.758-6.665 5.68-9.587 1.795-1.795 3.785-3.25 5.783-4.273z"></path>
<path d="M30.505 0l-5.9 3.283-3.758 3.758c-0.006 0.006-0.566 0.649-1.631 0.825l0.791 2.772c1.323-0.292 1.983-0.684 2.372-1.017-0.333 0.388-0.725 1.049-1.017 2.371l2.772 0.791c0.176-1.065 0.819-1.625 0.825-1.631l3.758-3.758 3.282-5.9-1.495-1.495zM25.525 9.295c-0.783 0.783-2.051 0.783-2.833 0s-0.783-2.051 0-2.833c0.783-0.783 2.050-0.783 2.833 0s0.783 2.050 0 2.833zM28.616 4.949c-0.432 0.432-1.133 0.432-1.565 0s-0.432-1.133 0-1.565 1.133-0.432 1.565 0c0.432 0.432 0.432 1.133 0 1.565z"></path>
<path d="M20.795 15.459c-0.002 0.004-0.003 0.008-0.005 0.012 0.497 0.535 0.489 1.37-0.031 1.891-0.263 0.263-0.607 0.395-0.952 0.398-1.023 1.999-2.478 3.988-4.273 5.783-2.922 2.922-6.416 4.992-9.587 5.68-0.758 0.164-1.239 0.912-1.075 1.67 0.059 0.273 0.195 0.51 0.379 0.694 0.326 0.326 0.807 0.486 1.292 0.38 3.684-0.799 7.685-3.146 10.978-6.439 2.22-2.22 3.986-4.734 5.157-7.262-0.364-0.531-0.312-1.262 0.16-1.734 0.194-0.194 0.431-0.315 0.681-0.367 0-0.002 0.002-0.004 0.002-0.006 0.353-0.122 0.685-0.321 0.967-0.603 0.368-0.368 0.599-0.821 0.695-1.296l-4.882-1.393c-0.321 0.865-0.157 1.869 0.494 2.591z"></path>
<path d="M24.111 6.901c-0.55 0-0.996 0.446-0.996 0.996s0.446 0.996 0.996 0.996c0.55 0 0.996-0.446 0.996-0.996s-0.446-0.996-0.996-0.996z"></path>
</symbol>
<symbol id="forceps" viewBox="0 0 32 32">
<path d="M31.992 6.834c-0.086-1.513-0.798-2.785-1.774-3.904-0.324 0.273-0.647 0.546-0.971 0.819 0.841 0.994 1.474 2.131 1.415 3.476-0.046 1.053-0.617 2.205-1.348 2.829-1.096 0.936-2.451 1.384-3.875 1.002-0.764-0.205-1.576-0.644-2.114-1.232-0.377-0.354-0.711-0.72-1.163-0.988-3.433-2.035-6.708 1.914-8.943 3.97l-13.22 12.159c0.441 0.479 0.882 0.959 1.323 1.438 2.318-2.195 4.635-4.391 6.953-6.587 2.674-2.534 5.349-5.068 8.024-7.602 0.965-0.915 1.906-1.941 3.257-2.245 1.427-0.322 2.181 0.484 3.159 1.319 2.191 1.904 5.515 1.731 7.575-0.246 1.133-1.087 1.791-2.638 1.701-4.212zM22.729 10.327c-0.218 0.217-0.571 0.217-0.788 0s-0.218-0.571 0-0.788c0.218-0.217 0.571-0.217 0.788 0s0.218 0.57 0 0.788z"></path>
<path d="M20.178 7.238c0.431 0 0.856 0.059 1.272 0.176-0.316-0.62-0.496-1.297-0.453-2.063 0.057-1.004 0.515-1.864 1.164-2.61 0.631-0.725 1.788-1.286 2.841-1.323 1.346-0.047 2.477 0.597 3.463 1.446 0.276-0.321 0.552-0.642 0.828-0.963-1.109-0.986-2.376-1.709-3.888-1.809-1.573-0.104-3.13 0.54-4.227 1.663-1.435 1.469-1.937 3.6-1.407 5.503 0.135-0.011 0.27-0.021 0.407-0.021z"></path>
<path d="M22.155 12.5c-0.317 1.348-1.351 2.28-2.275 3.237-2.558 2.651-5.116 5.303-7.674 7.955-2.217 2.298-4.433 4.595-6.65 6.893 0.137 0.128 1.424 1.339 1.429 1.333 0.471-0.503 0.943-1.007 1.414-1.51 2.469-2.636 4.938-5.272 7.406-7.907 1.365-1.457 2.729-2.916 4.094-4.373 1.296-1.382 2.896-2.733 3.58-4.546 0.059-0.162 0.108-0.33 0.151-0.499-0.513-0.23-0.994-0.526-1.433-0.883-0.013 0.099-0.019 0.194-0.044 0.3z"></path>
</symbol>
<symbol id="compass" viewBox="0 0 32 32">
<path d="M14.58 5.571h2.84v-4.141c0-0.003 0.001-0.006 0.001-0.009s-0.001-0.006-0.001-0.009v-0.043h-0.004c-0.028-0.76-0.649-1.369-1.416-1.369s-1.388 0.609-1.416 1.369h-0.004v0.043c0 0.003-0.001 0.006-0.001 0.009s0.001 0.006 0.001 0.009v4.141z"></path>
<path d="M16 14.048c1.956 0 3.541-1.585 3.541-3.541s-1.585-3.541-3.541-3.541-3.541 1.585-3.541 3.541 1.585 3.541 3.541 3.541zM16 9.087c0.785 0 1.421 0.636 1.421 1.421s-0.636 1.421-1.421 1.421c-0.784 0-1.421-0.636-1.421-1.421s0.636-1.421 1.421-1.421z"></path>
<path d="M17.937 14.54l0.704 1.52c0.815-0.387 1.541-0.951 2.124-1.664l-0.82-1.77c-0.448 0.832-1.155 1.502-2.008 1.914z"></path>
<path d="M13.226 16.001l0.688-1.532c-0.855-0.452-1.543-1.173-1.959-2.049l-0.829 1.846c0.569 0.741 1.288 1.325 2.1 1.735z"></path>
<path d="M26.273 27.443l-1.546 0.722 2.703 3.835z"></path>
<path d="M22.115 17.313c-0.665 0.598-1.412 1.090-2.214 1.469l4.076 8.801 2.38-1.112-4.241-9.158z"></path>
<path d="M22.808 15.098l-0.921-0.622c-1.324 1.96-3.524 3.13-5.887 3.13-2.505 0-4.777-1.281-6.077-3.427l-0.951 0.576c1.503 2.481 4.13 3.963 7.027 3.963 2.732 0 5.276-1.353 6.808-3.62z"></path>
<path d="M4.569 32l2.704-3.835-1.546-0.722z"></path>
<path d="M5.644 26.471l2.38 1.112 3.971-8.84c-0.802-0.389-1.542-0.899-2.201-1.511l-4.15 9.239z"></path>
</symbol>
<symbol id="wrench" viewBox="0 0 32 32">
<path d="M28.484 0.84c-2.394-0.909-5.203-0.405-7.132 1.524l-0.632 0.632 2.804 2.804 4.96-4.96z"></path>
<path d="M0.761 27.163c-1.015 1.015-1.015 2.66 0 3.674s2.66 1.015 3.674 0c0.010-0.010 0.016-0.021 0.026-0.031l15.475-15.475-3.671-3.671-15.504 15.504zM3.116 29.664c-0.327 0.327-0.858 0.327-1.185 0s-0.327-0.858 0-1.185c0.327-0.327 0.858-0.327 1.185 0s0.327 0.858 0 1.185z"></path>
<path d="M23.646 10.81l-0.98 0.98-4.278-4.278 0.98-0.98 4.278 4.278z"></path>
<path d="M31.562 3.918l-5.802 5.802-6.454-6.454-3.267 3.268c-0.651 0.651-0.651 1.705 0 2.356l1.234 1.234 0.005-0.005 4.473 4.473-0.005 0.005 1.196 1.196c0.651 0.651 1.705 0.651 2.356 0l4.741-4.741c1.929-1.93 2.433-4.738 1.524-7.133zM22.738 12.762l-5.293-5.293 1.912-1.912 5.293 5.293-1.912 1.912z"></path>
</symbol>
<symbol id="hammer" viewBox="0 0 32 32">
<path d="M26.379 2.375l3.245 3.245-0.831 0.832-3.245-3.245 0.831-0.832z"></path>
<path d="M31.687 10.761l-10.449-10.449c-0.417-0.417-1.094-0.417-1.51 0l-6.033 6.033c-0.417 0.417-0.417 1.093 0 1.51l10.449 10.449c0.417 0.417 1.094 0.417 1.51 0l6.033-6.033c0.417-0.417 0.417-1.094 0-1.511z"></path>
<path d="M3.246 32l-3.245-3.245 16.59-16.59 3.245 3.245-16.59 16.59z"></path>
</symbol>
<symbol id="axe" viewBox="0 0 32 32">
<path d="M23.393 3.36l-1.38-1.38c-0.412-0.412-1.033-0.479-1.519-0.211l3.11 3.11c0.267-0.486 0.201-1.107-0.211-1.519z"></path>
<path d="M12.812 12.713c-0.029 0.62-0.965 2.642-2.408 4.086l-10.034 10.041c-0.501 0.536-0.493 1.374 0.029 1.896l1.257 1.257c0.522 0.522 1.361 0.53 1.896 0.029l0.003 0.003 10.038-10.038c1.77-1.77 3.617-4.764 3.724-7.064 0.011-0.23 0.147-0.655 0.387-1.17l-3.328-3.328c-0.865 1.416-1.502 2.966-1.564 4.288z"></path>
<path d="M31.932 9.621c-0.041-0.041-0.104-0.057-0.179-0.061l-7.258-2.471-0.046 0.046c-0.242 0.196-0.597 0.184-0.822-0.041s-0.237-0.58-0.041-0.822l0.046-0.046-4.316-4.316-5.068 5.067 4.316 4.316 0.046-0.046c0.242-0.196 0.597-0.184 0.822 0.041s0.237 0.58 0.041 0.822l-0.046 0.046 2.471 7.258c0.004 0.074 0.020 0.138 0.061 0.179 0.453 0.453 3.053-1.412 5.807-4.166s4.619-5.354 4.166-5.807z"></path>
</symbol>
<symbol id="saw" viewBox="0 0 32 32">
<path d="M30.212 23.633l-0.927-0.899-2.91-2.802-5.422 5.594c-1.066 1.1-1.038 2.855 0.061 3.921l1.846 1.771c1.1 1.066 2.855 1.038 3.921-0.061l3.492-3.603c1.066-1.1 1.038-2.855-0.061-3.921zM25.843 21.961c0.19-0.173 0.484-0.158 0.657 0.032s0.158 0.484-0.032 0.657c-0.19 0.173-0.484 0.158-0.657-0.032s-0.158-0.484 0.032-0.657zM22.59 25.302c0.19-0.173 0.484-0.158 0.657 0.032s0.158 0.484-0.032 0.657c-0.19 0.173-0.484 0.158-0.657-0.032s-0.158-0.484 0.032-0.657zM29.166 27.002l-3 3.096c-0.743 0.766-1.967 0.785-2.733 0.043s-0.785-1.967-0.043-2.733l3-3.096c0.743-0.766 1.967-0.785 2.733-0.043s0.785 1.967 0.043 2.733z"></path>
<path d="M23.529 21.008l1.763-1.819-19.119-19.189-4.62 4.193-0.608 1.565 1.617-0.453-0.608 1.565 1.617-0.453-0.608 1.565 1.617-0.453-0.608 1.565 1.617-0.453-0.608 1.565 1.617-0.453-0.608 1.565 1.617-0.453-0.608 1.565 1.617-0.453-0.608 1.565 1.617-0.453-0.608 1.565 1.617-0.453-0.608 1.565 1.617-0.453-0.608 1.565 1.617-0.453-0.608 1.565 1.617-0.453-0.608 1.565 1.617-0.453-0.608 1.565 1.617-0.453-0.608 1.565 1.617-0.453-0.608 1.565 1.617-0.453-0.608 1.565 1.617-0.453-0.608 1.565 1.617-0.453 0.352 0.358 1.49-1.538z"></path>
</symbol>
</defs>
</svg>
